G75*
G70*
%OFA0B0*%
%FSLAX25Y25*%
%IPPOS*%
%LPD*%
%AMOC8*
5,1,8,0,0,1.08239X$1,22.5*
%
%ADD10R,0.06693X0.06693*%
%ADD11O,0.06693X0.06693*%
%ADD12C,0.02362*%
%ADD24R,0.02559X0.01575*%
%ADD25R,0.01575X0.02559*%
X0000000Y0000000D02*
%LPD*%
G01*
D10*
X0010000Y0032500D03*
D11*
X0010000Y0022500D03*
D12*
X0077677Y0039665D03*
X0077677Y0034941D03*
X0077677Y0044390D03*
X0077677Y0049114D03*
X0020886Y0023681D03*
X0020886Y0019744D03*
D10*
X0090000Y0012500D03*
D11*
X0090000Y0022500D03*
X0090000Y0032500D03*
X0090000Y0042500D03*
X0090000Y0052500D03*
X0019409Y0012500D02*
%LPD*%
G01*
D12*
X0077677Y0039665D03*
X0077677Y0034941D03*
X0077677Y0044390D03*
X0077677Y0049114D03*
X0020885Y0023681D03*
X0020885Y0019744D03*
G36*
G01*
X0036850Y0030118D02*
X0036850Y0031575D01*
G75*
G02*
X0037381Y0032106I0000531J0000000D01*
G01*
X0038444Y0032106D01*
G75*
G02*
X0038976Y0031575I0000000J-000531D01*
G01*
X0038976Y0030118D01*
G75*
G02*
X0038444Y0029587I-000531J0000000D01*
G01*
X0037381Y0029587D01*
G75*
G02*
X0036850Y0030118I0000000J0000531D01*
G01*
G37*
G36*
G01*
X0032834Y0030118D02*
X0032834Y0031575D01*
G75*
G02*
X0033366Y0032106I0000531J0000000D01*
G01*
X0034429Y0032106D01*
G75*
G02*
X0034960Y0031575I0000000J-000531D01*
G01*
X0034960Y0030118D01*
G75*
G02*
X0034429Y0029587I-000531J0000000D01*
G01*
X0033366Y0029587D01*
G75*
G02*
X0032834Y0030118I0000000J0000531D01*
G01*
G37*
G36*
G01*
X0060098Y0014429D02*
X0058641Y0014429D01*
G75*
G02*
X0058110Y0014961I0000000J0000531D01*
G01*
X0058110Y0016024D01*
G75*
G02*
X0058641Y0016555I0000531J0000000D01*
G01*
X0060098Y0016555D01*
G75*
G02*
X0060629Y0016024I0000000J-000531D01*
G01*
X0060629Y0014961D01*
G75*
G02*
X0060098Y0014429I-000531J0000000D01*
G01*
G37*
G36*
G01*
X0060098Y0018445D02*
X0058641Y0018445D01*
G75*
G02*
X0058110Y0018976I0000000J0000531D01*
G01*
X0058110Y0020039D01*
G75*
G02*
X0058641Y0020571I0000531J0000000D01*
G01*
X0060098Y0020571D01*
G75*
G02*
X0060629Y0020039I0000000J-000531D01*
G01*
X0060629Y0018976D01*
G75*
G02*
X0060098Y0018445I-000531J0000000D01*
G01*
G37*
G36*
G01*
X0049126Y0046772D02*
X0049126Y0047953D01*
G75*
G02*
X0049716Y0048543I0000591J0000000D01*
G01*
X0056212Y0048543D01*
G75*
G02*
X0056803Y0047953I0000000J-000591D01*
G01*
X0056803Y0046772D01*
G75*
G02*
X0056212Y0046181I-000591J0000000D01*
G01*
X0049716Y0046181D01*
G75*
G02*
X0049126Y0046772I0000000J0000591D01*
G01*
G37*
G36*
G01*
X0049126Y0041772D02*
X0049126Y0042953D01*
G75*
G02*
X0049716Y0043543I0000591J0000000D01*
G01*
X0056212Y0043543D01*
G75*
G02*
X0056803Y0042953I0000000J-000591D01*
G01*
X0056803Y0041772D01*
G75*
G02*
X0056212Y0041181I-000591J0000000D01*
G01*
X0049716Y0041181D01*
G75*
G02*
X0049126Y0041772I0000000J0000591D01*
G01*
G37*
G36*
G01*
X0049126Y0036772D02*
X0049126Y0037953D01*
G75*
G02*
X0049716Y0038543I0000591J0000000D01*
G01*
X0056212Y0038543D01*
G75*
G02*
X0056803Y0037953I0000000J-000591D01*
G01*
X0056803Y0036772D01*
G75*
G02*
X0056212Y0036181I-000591J0000000D01*
G01*
X0049716Y0036181D01*
G75*
G02*
X0049126Y0036772I0000000J0000591D01*
G01*
G37*
G36*
G01*
X0049126Y0031772D02*
X0049126Y0032953D01*
G75*
G02*
X0049716Y0033543I0000591J0000000D01*
G01*
X0056212Y0033543D01*
G75*
G02*
X0056803Y0032953I0000000J-000591D01*
G01*
X0056803Y0031772D01*
G75*
G02*
X0056212Y0031181I-000591J0000000D01*
G01*
X0049716Y0031181D01*
G75*
G02*
X0049126Y0031772I0000000J0000591D01*
G01*
G37*
G36*
G01*
X0068614Y0031772D02*
X0068614Y0032953D01*
G75*
G02*
X0069204Y0033543I0000591J0000000D01*
G01*
X0075700Y0033543D01*
G75*
G02*
X0076291Y0032953I0000000J-000591D01*
G01*
X0076291Y0031772D01*
G75*
G02*
X0075700Y0031181I-000591J0000000D01*
G01*
X0069204Y0031181D01*
G75*
G02*
X0068614Y0031772I0000000J0000591D01*
G01*
G37*
G36*
G01*
X0068614Y0036772D02*
X0068614Y0037953D01*
G75*
G02*
X0069204Y0038543I0000591J0000000D01*
G01*
X0075700Y0038543D01*
G75*
G02*
X0076291Y0037953I0000000J-000591D01*
G01*
X0076291Y0036772D01*
G75*
G02*
X0075700Y0036181I-000591J0000000D01*
G01*
X0069204Y0036181D01*
G75*
G02*
X0068614Y0036772I0000000J0000591D01*
G01*
G37*
G36*
G01*
X0068614Y0041772D02*
X0068614Y0042953D01*
G75*
G02*
X0069204Y0043543I0000591J0000000D01*
G01*
X0075700Y0043543D01*
G75*
G02*
X0076291Y0042953I0000000J-000591D01*
G01*
X0076291Y0041772D01*
G75*
G02*
X0075700Y0041181I-000591J0000000D01*
G01*
X0069204Y0041181D01*
G75*
G02*
X0068614Y0041772I0000000J0000591D01*
G01*
G37*
G36*
G01*
X0068614Y0046772D02*
X0068614Y0047953D01*
G75*
G02*
X0069204Y0048543I0000591J0000000D01*
G01*
X0075700Y0048543D01*
G75*
G02*
X0076291Y0047953I0000000J-000591D01*
G01*
X0076291Y0046772D01*
G75*
G02*
X0075700Y0046181I-000591J0000000D01*
G01*
X0069204Y0046181D01*
G75*
G02*
X0068614Y0046772I0000000J0000591D01*
G01*
G37*
D24*
X0034606Y0047500D03*
X0034606Y0044941D03*
X0034606Y0042382D03*
X0042086Y0042382D03*
X0042086Y0044941D03*
X0042086Y0047500D03*
G36*
G01*
X0050767Y0028412D02*
X0052224Y0028412D01*
G75*
G02*
X0052755Y0027880I0000000J-000531D01*
G01*
X0052755Y0026817D01*
G75*
G02*
X0052224Y0026286I-000531J0000000D01*
G01*
X0050767Y0026286D01*
G75*
G02*
X0050236Y0026817I0000000J0000531D01*
G01*
X0050236Y0027880D01*
G75*
G02*
X0050767Y0028412I0000531J0000000D01*
G01*
G37*
G36*
G01*
X0050767Y0024396D02*
X0052224Y0024396D01*
G75*
G02*
X0052755Y0023865I0000000J-000531D01*
G01*
X0052755Y0022802D01*
G75*
G02*
X0052224Y0022270I-000531J0000000D01*
G01*
X0050767Y0022270D01*
G75*
G02*
X0050236Y0022802I0000000J0000531D01*
G01*
X0050236Y0023865D01*
G75*
G02*
X0050767Y0024396I0000531J0000000D01*
G01*
G37*
G36*
G01*
X0056102Y0022349D02*
X0054763Y0022349D01*
G75*
G02*
X0054212Y0022900I0000000J0000551D01*
G01*
X0054212Y0024002D01*
G75*
G02*
X0054763Y0024554I0000551J0000000D01*
G01*
X0056102Y0024554D01*
G75*
G02*
X0056653Y0024002I0000000J-000551D01*
G01*
X0056653Y0022900D01*
G75*
G02*
X0056102Y0022349I-000551J0000000D01*
G01*
G37*
G36*
G01*
X0056102Y0026128D02*
X0054763Y0026128D01*
G75*
G02*
X0054212Y0026680I0000000J0000551D01*
G01*
X0054212Y0027782D01*
G75*
G02*
X0054763Y0028333I0000551J0000000D01*
G01*
X0056102Y0028333D01*
G75*
G02*
X0056653Y0027782I0000000J-000551D01*
G01*
X0056653Y0026680D01*
G75*
G02*
X0056102Y0026128I-000551J0000000D01*
G01*
G37*
G36*
G01*
X0052224Y0014429D02*
X0050767Y0014429D01*
G75*
G02*
X0050236Y0014961I0000000J0000531D01*
G01*
X0050236Y0016024D01*
G75*
G02*
X0050767Y0016555I0000531J0000000D01*
G01*
X0052224Y0016555D01*
G75*
G02*
X0052755Y0016024I0000000J-000531D01*
G01*
X0052755Y0014961D01*
G75*
G02*
X0052224Y0014429I-000531J0000000D01*
G01*
G37*
G36*
G01*
X0052224Y0018445D02*
X0050767Y0018445D01*
G75*
G02*
X0050236Y0018976I0000000J0000531D01*
G01*
X0050236Y0020039D01*
G75*
G02*
X0050767Y0020571I0000531J0000000D01*
G01*
X0052224Y0020571D01*
G75*
G02*
X0052755Y0020039I0000000J-000531D01*
G01*
X0052755Y0018976D01*
G75*
G02*
X0052224Y0018445I-000531J0000000D01*
G01*
G37*
G36*
G01*
X0063818Y0020492D02*
X0065157Y0020492D01*
G75*
G02*
X0065708Y0019941I0000000J-000551D01*
G01*
X0065708Y0018839D01*
G75*
G02*
X0065157Y0018287I-000551J0000000D01*
G01*
X0063818Y0018287D01*
G75*
G02*
X0063267Y0018839I0000000J0000551D01*
G01*
X0063267Y0019941D01*
G75*
G02*
X0063818Y0020492I0000551J0000000D01*
G01*
G37*
G36*
G01*
X0063818Y0016713D02*
X0065157Y0016713D01*
G75*
G02*
X0065708Y0016161I0000000J-000551D01*
G01*
X0065708Y0015059D01*
G75*
G02*
X0065157Y0014508I-000551J0000000D01*
G01*
X0063818Y0014508D01*
G75*
G02*
X0063267Y0015059I0000000J0000551D01*
G01*
X0063267Y0016161D01*
G75*
G02*
X0063818Y0016713I0000551J0000000D01*
G01*
G37*
G36*
G01*
X0040689Y0024350D02*
X0042027Y0024350D01*
G75*
G02*
X0042578Y0023799I0000000J-000551D01*
G01*
X0042578Y0022697D01*
G75*
G02*
X0042027Y0022146I-000551J0000000D01*
G01*
X0040689Y0022146D01*
G75*
G02*
X0040137Y0022697I0000000J0000551D01*
G01*
X0040137Y0023799D01*
G75*
G02*
X0040689Y0024350I0000551J0000000D01*
G01*
G37*
G36*
G01*
X0040689Y0020571D02*
X0042027Y0020571D01*
G75*
G02*
X0042578Y0020020I0000000J-000551D01*
G01*
X0042578Y0018917D01*
G75*
G02*
X0042027Y0018366I-000551J0000000D01*
G01*
X0040689Y0018366D01*
G75*
G02*
X0040137Y0018917I0000000J0000551D01*
G01*
X0040137Y0020020D01*
G75*
G02*
X0040689Y0020571I0000551J0000000D01*
G01*
G37*
G36*
G01*
X0046456Y0027598D02*
X0046456Y0026142D01*
G75*
G02*
X0045925Y0025610I-000531J0000000D01*
G01*
X0044862Y0025610D01*
G75*
G02*
X0044330Y0026142I0000000J0000531D01*
G01*
X0044330Y0027598D01*
G75*
G02*
X0044862Y0028130I0000531J0000000D01*
G01*
X0045925Y0028130D01*
G75*
G02*
X0046456Y0027598I0000000J-000531D01*
G01*
G37*
G36*
G01*
X0042440Y0027598D02*
X0042440Y0026142D01*
G75*
G02*
X0041909Y0025610I-000531J0000000D01*
G01*
X0040846Y0025610D01*
G75*
G02*
X0040315Y0026142I0000000J0000531D01*
G01*
X0040315Y0027598D01*
G75*
G02*
X0040846Y0028130I0000531J0000000D01*
G01*
X0041909Y0028130D01*
G75*
G02*
X0042440Y0027598I0000000J-000531D01*
G01*
G37*
G36*
G01*
X0077283Y0028327D02*
X0077283Y0026988D01*
G75*
G02*
X0076732Y0026437I-000551J0000000D01*
G01*
X0075629Y0026437D01*
G75*
G02*
X0075078Y0026988I0000000J0000551D01*
G01*
X0075078Y0028327D01*
G75*
G02*
X0075629Y0028878I0000551J0000000D01*
G01*
X0076732Y0028878D01*
G75*
G02*
X0077283Y0028327I0000000J-000551D01*
G01*
G37*
G36*
G01*
X0073503Y0028327D02*
X0073503Y0026988D01*
G75*
G02*
X0072952Y0026437I-000551J0000000D01*
G01*
X0071850Y0026437D01*
G75*
G02*
X0071299Y0026988I0000000J0000551D01*
G01*
X0071299Y0028327D01*
G75*
G02*
X0071850Y0028878I0000551J0000000D01*
G01*
X0072952Y0028878D01*
G75*
G02*
X0073503Y0028327I0000000J-000551D01*
G01*
G37*
G36*
G01*
X0028228Y0034090D02*
X0028228Y0036107D01*
G75*
G02*
X0029089Y0036969I0000861J0000000D01*
G01*
X0030812Y0036969D01*
G75*
G02*
X0031673Y0036107I0000000J-000861D01*
G01*
X0031673Y0034090D01*
G75*
G02*
X0030812Y0033228I-000861J0000000D01*
G01*
X0029089Y0033228D01*
G75*
G02*
X0028228Y0034090I0000000J0000861D01*
G01*
G37*
G36*
G01*
X0022027Y0034090D02*
X0022027Y0036107D01*
G75*
G02*
X0022888Y0036969I0000861J0000000D01*
G01*
X0024611Y0036969D01*
G75*
G02*
X0025472Y0036107I0000000J-000861D01*
G01*
X0025472Y0034090D01*
G75*
G02*
X0024611Y0033228I-000861J0000000D01*
G01*
X0022888Y0033228D01*
G75*
G02*
X0022027Y0034090I0000000J0000861D01*
G01*
G37*
G36*
G01*
X0047007Y0039311D02*
X0045669Y0039311D01*
G75*
G02*
X0045118Y0039862I0000000J0000551D01*
G01*
X0045118Y0040965D01*
G75*
G02*
X0045669Y0041516I0000551J0000000D01*
G01*
X0047007Y0041516D01*
G75*
G02*
X0047559Y0040965I0000000J-000551D01*
G01*
X0047559Y0039862D01*
G75*
G02*
X0047007Y0039311I-000551J0000000D01*
G01*
G37*
G36*
G01*
X0047007Y0043091D02*
X0045669Y0043091D01*
G75*
G02*
X0045118Y0043642I0000000J0000551D01*
G01*
X0045118Y0044744D01*
G75*
G02*
X0045669Y0045295I0000551J0000000D01*
G01*
X0047007Y0045295D01*
G75*
G02*
X0047559Y0044744I0000000J-000551D01*
G01*
X0047559Y0043642D01*
G75*
G02*
X0047007Y0043091I-000551J0000000D01*
G01*
G37*
G36*
G01*
X0029370Y0042165D02*
X0029370Y0040709D01*
G75*
G02*
X0028838Y0040177I-000531J0000000D01*
G01*
X0027775Y0040177D01*
G75*
G02*
X0027244Y0040709I0000000J0000531D01*
G01*
X0027244Y0042165D01*
G75*
G02*
X0027775Y0042697I0000531J0000000D01*
G01*
X0028838Y0042697D01*
G75*
G02*
X0029370Y0042165I0000000J-000531D01*
G01*
G37*
G36*
G01*
X0025354Y0042165D02*
X0025354Y0040709D01*
G75*
G02*
X0024822Y0040177I-000531J0000000D01*
G01*
X0023759Y0040177D01*
G75*
G02*
X0023228Y0040709I0000000J0000531D01*
G01*
X0023228Y0042165D01*
G75*
G02*
X0023759Y0042697I0000531J0000000D01*
G01*
X0024822Y0042697D01*
G75*
G02*
X0025354Y0042165I0000000J-000531D01*
G01*
G37*
G36*
G01*
X0040315Y0030079D02*
X0040315Y0031535D01*
G75*
G02*
X0040846Y0032067I0000531J0000000D01*
G01*
X0041909Y0032067D01*
G75*
G02*
X0042440Y0031535I0000000J-000531D01*
G01*
X0042440Y0030079D01*
G75*
G02*
X0041909Y0029547I-000531J0000000D01*
G01*
X0040846Y0029547D01*
G75*
G02*
X0040315Y0030079I0000000J0000531D01*
G01*
G37*
G36*
G01*
X0044330Y0030079D02*
X0044330Y0031535D01*
G75*
G02*
X0044862Y0032067I0000531J0000000D01*
G01*
X0045925Y0032067D01*
G75*
G02*
X0046456Y0031535I0000000J-000531D01*
G01*
X0046456Y0030079D01*
G75*
G02*
X0045925Y0029547I-000531J0000000D01*
G01*
X0044862Y0029547D01*
G75*
G02*
X0044330Y0030079I0000000J0000531D01*
G01*
G37*
G36*
G01*
X0045452Y0024288D02*
X0046909Y0024288D01*
G75*
G02*
X0047440Y0023757I0000000J-000531D01*
G01*
X0047440Y0022694D01*
G75*
G02*
X0046909Y0022162I-000531J0000000D01*
G01*
X0045452Y0022162D01*
G75*
G02*
X0044921Y0022694I0000000J0000531D01*
G01*
X0044921Y0023757D01*
G75*
G02*
X0045452Y0024288I0000531J0000000D01*
G01*
G37*
G36*
G01*
X0045452Y0020272D02*
X0046909Y0020272D01*
G75*
G02*
X0047440Y0019741I0000000J-000531D01*
G01*
X0047440Y0018678D01*
G75*
G02*
X0046909Y0018147I-000531J0000000D01*
G01*
X0045452Y0018147D01*
G75*
G02*
X0044921Y0018678I0000000J0000531D01*
G01*
X0044921Y0019741D01*
G75*
G02*
X0045452Y0020272I0000531J0000000D01*
G01*
G37*
G36*
G01*
X0028110Y0030886D02*
X0028110Y0029547D01*
G75*
G02*
X0027559Y0028996I-000551J0000000D01*
G01*
X0026456Y0028996D01*
G75*
G02*
X0025905Y0029547I0000000J0000551D01*
G01*
X0025905Y0030886D01*
G75*
G02*
X0026456Y0031437I0000551J0000000D01*
G01*
X0027559Y0031437D01*
G75*
G02*
X0028110Y0030886I0000000J-000551D01*
G01*
G37*
G36*
G01*
X0024330Y0030886D02*
X0024330Y0029547D01*
G75*
G02*
X0023779Y0028996I-000551J0000000D01*
G01*
X0022677Y0028996D01*
G75*
G02*
X0022126Y0029547I0000000J0000551D01*
G01*
X0022126Y0030886D01*
G75*
G02*
X0022677Y0031437I0000551J0000000D01*
G01*
X0023779Y0031437D01*
G75*
G02*
X0024330Y0030886I0000000J-000551D01*
G01*
G37*
G36*
G01*
X0065157Y0022349D02*
X0063818Y0022349D01*
G75*
G02*
X0063267Y0022900I0000000J0000551D01*
G01*
X0063267Y0024002D01*
G75*
G02*
X0063818Y0024554I0000551J0000000D01*
G01*
X0065157Y0024554D01*
G75*
G02*
X0065708Y0024002I0000000J-000551D01*
G01*
X0065708Y0022900D01*
G75*
G02*
X0065157Y0022349I-000551J0000000D01*
G01*
G37*
G36*
G01*
X0065157Y0026128D02*
X0063818Y0026128D01*
G75*
G02*
X0063267Y0026680I0000000J0000551D01*
G01*
X0063267Y0027782D01*
G75*
G02*
X0063818Y0028333I0000551J0000000D01*
G01*
X0065157Y0028333D01*
G75*
G02*
X0065708Y0027782I0000000J-000551D01*
G01*
X0065708Y0026680D01*
G75*
G02*
X0065157Y0026128I-000551J0000000D01*
G01*
G37*
G36*
G01*
X0040137Y0014823D02*
X0040137Y0016280D01*
G75*
G02*
X0040669Y0016811I0000531J0000000D01*
G01*
X0041732Y0016811D01*
G75*
G02*
X0042263Y0016280I0000000J-000531D01*
G01*
X0042263Y0014823D01*
G75*
G02*
X0041732Y0014291I-000531J0000000D01*
G01*
X0040669Y0014291D01*
G75*
G02*
X0040137Y0014823I0000000J0000531D01*
G01*
G37*
G36*
G01*
X0044153Y0014823D02*
X0044153Y0016280D01*
G75*
G02*
X0044685Y0016811I0000531J0000000D01*
G01*
X0045748Y0016811D01*
G75*
G02*
X0046279Y0016280I0000000J-000531D01*
G01*
X0046279Y0014823D01*
G75*
G02*
X0045748Y0014291I-000531J0000000D01*
G01*
X0044685Y0014291D01*
G75*
G02*
X0044153Y0014823I0000000J0000531D01*
G01*
G37*
D25*
X0069396Y0016043D03*
X0071955Y0016043D03*
X0074514Y0016043D03*
X0074514Y0023524D03*
X0071955Y0023524D03*
X0069396Y0023524D03*
G36*
G01*
X0023447Y0024829D02*
X0023447Y0026010D01*
G75*
G02*
X0024038Y0026601I0000591J0000000D01*
G01*
X0028073Y0026601D01*
G75*
G02*
X0028664Y0026010I0000000J-000591D01*
G01*
X0028664Y0024829D01*
G75*
G02*
X0028073Y0024239I-000591J0000000D01*
G01*
X0024038Y0024239D01*
G75*
G02*
X0023447Y0024829I0000000J0000591D01*
G01*
G37*
G36*
G01*
X0023447Y0021089D02*
X0023447Y0022270D01*
G75*
G02*
X0024038Y0022861I0000591J0000000D01*
G01*
X0028073Y0022861D01*
G75*
G02*
X0028664Y0022270I0000000J-000591D01*
G01*
X0028664Y0021089D01*
G75*
G02*
X0028073Y0020498I-000591J0000000D01*
G01*
X0024038Y0020498D01*
G75*
G02*
X0023447Y0021089I0000000J0000591D01*
G01*
G37*
G36*
G01*
X0023447Y0017349D02*
X0023447Y0018530D01*
G75*
G02*
X0024038Y0019120I0000591J0000000D01*
G01*
X0028073Y0019120D01*
G75*
G02*
X0028664Y0018530I0000000J-000591D01*
G01*
X0028664Y0017349D01*
G75*
G02*
X0028073Y0016758I-000591J0000000D01*
G01*
X0024038Y0016758D01*
G75*
G02*
X0023447Y0017349I0000000J0000591D01*
G01*
G37*
G36*
G01*
X0032404Y0017349D02*
X0032404Y0018530D01*
G75*
G02*
X0032994Y0019120I0000591J0000000D01*
G01*
X0037030Y0019120D01*
G75*
G02*
X0037620Y0018530I0000000J-000591D01*
G01*
X0037620Y0017349D01*
G75*
G02*
X0037030Y0016758I-000591J0000000D01*
G01*
X0032994Y0016758D01*
G75*
G02*
X0032404Y0017349I0000000J0000591D01*
G01*
G37*
G36*
G01*
X0032404Y0021089D02*
X0032404Y0022270D01*
G75*
G02*
X0032994Y0022861I0000591J0000000D01*
G01*
X0037030Y0022861D01*
G75*
G02*
X0037620Y0022270I0000000J-000591D01*
G01*
X0037620Y0021089D01*
G75*
G02*
X0037030Y0020498I-000591J0000000D01*
G01*
X0032994Y0020498D01*
G75*
G02*
X0032404Y0021089I0000000J0000591D01*
G01*
G37*
G36*
G01*
X0032404Y0024829D02*
X0032404Y0026010D01*
G75*
G02*
X0032994Y0026601I0000591J0000000D01*
G01*
X0037030Y0026601D01*
G75*
G02*
X0037620Y0026010I0000000J-000591D01*
G01*
X0037620Y0024829D01*
G75*
G02*
X0037030Y0024239I-000591J0000000D01*
G01*
X0032994Y0024239D01*
G75*
G02*
X0032404Y0024829I0000000J0000591D01*
G01*
G37*
G36*
G01*
X0034566Y0036713D02*
X0034566Y0038051D01*
G75*
G02*
X0035118Y0038602I0000551J0000000D01*
G01*
X0036220Y0038602D01*
G75*
G02*
X0036771Y0038051I0000000J-000551D01*
G01*
X0036771Y0036713D01*
G75*
G02*
X0036220Y0036161I-000551J0000000D01*
G01*
X0035118Y0036161D01*
G75*
G02*
X0034566Y0036713I0000000J0000551D01*
G01*
G37*
G36*
G01*
X0038346Y0036713D02*
X0038346Y0038051D01*
G75*
G02*
X0038897Y0038602I0000551J0000000D01*
G01*
X0040000Y0038602D01*
G75*
G02*
X0040551Y0038051I0000000J-000551D01*
G01*
X0040551Y0036713D01*
G75*
G02*
X0040000Y0036161I-000551J0000000D01*
G01*
X0038897Y0036161D01*
G75*
G02*
X0038346Y0036713I0000000J0000551D01*
G01*
G37*
G36*
G01*
X0056102Y0014508D02*
X0054763Y0014508D01*
G75*
G02*
X0054212Y0015059I0000000J0000551D01*
G01*
X0054212Y0016161D01*
G75*
G02*
X0054763Y0016713I0000551J0000000D01*
G01*
X0056102Y0016713D01*
G75*
G02*
X0056653Y0016161I0000000J-000551D01*
G01*
X0056653Y0015059D01*
G75*
G02*
X0056102Y0014508I-000551J0000000D01*
G01*
G37*
G36*
G01*
X0056102Y0018287D02*
X0054763Y0018287D01*
G75*
G02*
X0054212Y0018839I0000000J0000551D01*
G01*
X0054212Y0019941D01*
G75*
G02*
X0054763Y0020492I0000551J0000000D01*
G01*
X0056102Y0020492D01*
G75*
G02*
X0056653Y0019941I0000000J-000551D01*
G01*
X0056653Y0018839D01*
G75*
G02*
X0056102Y0018287I-000551J0000000D01*
G01*
G37*
G36*
G01*
X0060098Y0022270D02*
X0058641Y0022270D01*
G75*
G02*
X0058110Y0022802I0000000J0000531D01*
G01*
X0058110Y0023865D01*
G75*
G02*
X0058641Y0024396I0000531J0000000D01*
G01*
X0060098Y0024396D01*
G75*
G02*
X0060629Y0023865I0000000J-000531D01*
G01*
X0060629Y0022802D01*
G75*
G02*
X0060098Y0022270I-000531J0000000D01*
G01*
G37*
G36*
G01*
X0060098Y0026286D02*
X0058641Y0026286D01*
G75*
G02*
X0058110Y0026817I0000000J0000531D01*
G01*
X0058110Y0027880D01*
G75*
G02*
X0058641Y0028412I0000531J0000000D01*
G01*
X0060098Y0028412D01*
G75*
G02*
X0060629Y0027880I0000000J-000531D01*
G01*
X0060629Y0026817D01*
G75*
G02*
X0060098Y0026286I-000531J0000000D01*
G01*
G37*
M02*
