G75*
G70*
%OFA0B0*%
%FSLAX25Y25*%
%IPPOS*%
%LPD*%
%AMOC8*
5,1,8,0,0,1.08239X$1,22.5*
%
%ADD19C,0.00394*%
%ADD20C,0.00591*%
%ADD21C,0.00472*%
%ADD22C,0.00787*%
X0000000Y0000000D02*
%LPD*%
G01*
D19*
X0003040Y0059743D02*
X0003509Y0058431D01*
X0003509Y0058431D02*
X0003978Y0059743D01*
X0004728Y0058431D02*
X0004728Y0059743D01*
X0004728Y0059368D02*
X0004821Y0059555D01*
X0004821Y0059555D02*
X0004915Y0059649D01*
X0004915Y0059649D02*
X0005102Y0059743D01*
X0005102Y0059743D02*
X0005290Y0059743D01*
X0005946Y0059180D02*
X0007446Y0059180D01*
X0009227Y0058431D02*
X0009227Y0060399D01*
X0009227Y0058524D02*
X0009039Y0058431D01*
X0009039Y0058431D02*
X0008665Y0058431D01*
X0008665Y0058431D02*
X0008477Y0058524D01*
X0008477Y0058524D02*
X0008383Y0058618D01*
X0008383Y0058618D02*
X0008290Y0058806D01*
X0008290Y0058806D02*
X0008290Y0059368D01*
X0008290Y0059368D02*
X0008383Y0059555D01*
X0008383Y0059555D02*
X0008477Y0059649D01*
X0008477Y0059649D02*
X0008665Y0059743D01*
X0008665Y0059743D02*
X0009039Y0059743D01*
X0009039Y0059743D02*
X0009227Y0059649D01*
X0010164Y0058431D02*
X0010164Y0059743D01*
X0010164Y0060399D02*
X0010071Y0060305D01*
X0010071Y0060305D02*
X0010164Y0060212D01*
X0010164Y0060212D02*
X0010258Y0060305D01*
X0010258Y0060305D02*
X0010164Y0060399D01*
X0010164Y0060399D02*
X0010164Y0060212D01*
X0011008Y0058524D02*
X0011195Y0058431D01*
X0011195Y0058431D02*
X0011570Y0058431D01*
X0011570Y0058431D02*
X0011758Y0058524D01*
X0011758Y0058524D02*
X0011852Y0058712D01*
X0011852Y0058712D02*
X0011852Y0058806D01*
X0011852Y0058806D02*
X0011758Y0058993D01*
X0011758Y0058993D02*
X0011570Y0059087D01*
X0011570Y0059087D02*
X0011289Y0059087D01*
X0011289Y0059087D02*
X0011102Y0059180D01*
X0011102Y0059180D02*
X0011008Y0059368D01*
X0011008Y0059368D02*
X0011008Y0059462D01*
X0011008Y0059462D02*
X0011102Y0059649D01*
X0011102Y0059649D02*
X0011289Y0059743D01*
X0011289Y0059743D02*
X0011570Y0059743D01*
X0011570Y0059743D02*
X0011758Y0059649D01*
X0013539Y0058524D02*
X0013351Y0058431D01*
X0013351Y0058431D02*
X0012976Y0058431D01*
X0012976Y0058431D02*
X0012789Y0058524D01*
X0012789Y0058524D02*
X0012695Y0058618D01*
X0012695Y0058618D02*
X0012602Y0058806D01*
X0012602Y0058806D02*
X0012602Y0059368D01*
X0012602Y0059368D02*
X0012695Y0059555D01*
X0012695Y0059555D02*
X0012789Y0059649D01*
X0012789Y0059649D02*
X0012976Y0059743D01*
X0012976Y0059743D02*
X0013351Y0059743D01*
X0013351Y0059743D02*
X0013539Y0059649D01*
X0014383Y0058431D02*
X0014383Y0059743D01*
X0014383Y0059368D02*
X0014476Y0059555D01*
X0014476Y0059555D02*
X0014570Y0059649D01*
X0014570Y0059649D02*
X0014758Y0059743D01*
X0014758Y0059743D02*
X0014945Y0059743D01*
X0016351Y0058524D02*
X0016164Y0058431D01*
X0016164Y0058431D02*
X0015789Y0058431D01*
X0015789Y0058431D02*
X0015601Y0058524D01*
X0015601Y0058524D02*
X0015507Y0058712D01*
X0015507Y0058712D02*
X0015507Y0059462D01*
X0015507Y0059462D02*
X0015601Y0059649D01*
X0015601Y0059649D02*
X0015789Y0059743D01*
X0015789Y0059743D02*
X0016164Y0059743D01*
X0016164Y0059743D02*
X0016351Y0059649D01*
X0016351Y0059649D02*
X0016445Y0059462D01*
X0016445Y0059462D02*
X0016445Y0059274D01*
X0016445Y0059274D02*
X0015507Y0059087D01*
X0017007Y0059743D02*
X0017757Y0059743D01*
X0017288Y0060399D02*
X0017288Y0058712D01*
X0017288Y0058712D02*
X0017382Y0058524D01*
X0017382Y0058524D02*
X0017570Y0058431D01*
X0017570Y0058431D02*
X0017757Y0058431D01*
X0019163Y0058524D02*
X0018976Y0058431D01*
X0018976Y0058431D02*
X0018601Y0058431D01*
X0018601Y0058431D02*
X0018413Y0058524D01*
X0018413Y0058524D02*
X0018320Y0058712D01*
X0018320Y0058712D02*
X0018320Y0059462D01*
X0018320Y0059462D02*
X0018413Y0059649D01*
X0018413Y0059649D02*
X0018601Y0059743D01*
X0018601Y0059743D02*
X0018976Y0059743D01*
X0018976Y0059743D02*
X0019163Y0059649D01*
X0019163Y0059649D02*
X0019257Y0059462D01*
X0019257Y0059462D02*
X0019257Y0059274D01*
X0019257Y0059274D02*
X0018320Y0059087D01*
X0020101Y0059180D02*
X0021600Y0059180D01*
X0022538Y0058431D02*
X0022538Y0060399D01*
X0022538Y0059649D02*
X0022725Y0059743D01*
X0022725Y0059743D02*
X0023100Y0059743D01*
X0023100Y0059743D02*
X0023288Y0059649D01*
X0023288Y0059649D02*
X0023381Y0059555D01*
X0023381Y0059555D02*
X0023475Y0059368D01*
X0023475Y0059368D02*
X0023475Y0058806D01*
X0023475Y0058806D02*
X0023381Y0058618D01*
X0023381Y0058618D02*
X0023288Y0058524D01*
X0023288Y0058524D02*
X0023100Y0058431D01*
X0023100Y0058431D02*
X0022725Y0058431D01*
X0022725Y0058431D02*
X0022538Y0058524D01*
X0024319Y0058431D02*
X0024319Y0059743D01*
X0024319Y0059368D02*
X0024413Y0059555D01*
X0024413Y0059555D02*
X0024506Y0059649D01*
X0024506Y0059649D02*
X0024694Y0059743D01*
X0024694Y0059743D02*
X0024881Y0059743D01*
X0026287Y0058524D02*
X0026100Y0058431D01*
X0026100Y0058431D02*
X0025725Y0058431D01*
X0025725Y0058431D02*
X0025537Y0058524D01*
X0025537Y0058524D02*
X0025444Y0058712D01*
X0025444Y0058712D02*
X0025444Y0059462D01*
X0025444Y0059462D02*
X0025537Y0059649D01*
X0025537Y0059649D02*
X0025725Y0059743D01*
X0025725Y0059743D02*
X0026100Y0059743D01*
X0026100Y0059743D02*
X0026287Y0059649D01*
X0026287Y0059649D02*
X0026381Y0059462D01*
X0026381Y0059462D02*
X0026381Y0059274D01*
X0026381Y0059274D02*
X0025444Y0059087D01*
X0028068Y0058431D02*
X0028068Y0059462D01*
X0028068Y0059462D02*
X0027975Y0059649D01*
X0027975Y0059649D02*
X0027787Y0059743D01*
X0027787Y0059743D02*
X0027412Y0059743D01*
X0027412Y0059743D02*
X0027225Y0059649D01*
X0028068Y0058524D02*
X0027881Y0058431D01*
X0027881Y0058431D02*
X0027412Y0058431D01*
X0027412Y0058431D02*
X0027225Y0058524D01*
X0027225Y0058524D02*
X0027131Y0058712D01*
X0027131Y0058712D02*
X0027131Y0058899D01*
X0027131Y0058899D02*
X0027225Y0059087D01*
X0027225Y0059087D02*
X0027412Y0059180D01*
X0027412Y0059180D02*
X0027881Y0059180D01*
X0027881Y0059180D02*
X0028068Y0059274D01*
X0029006Y0058431D02*
X0029006Y0060399D01*
X0029193Y0059180D02*
X0029756Y0058431D01*
X0029756Y0059743D02*
X0029006Y0058993D01*
X0030880Y0058431D02*
X0030693Y0058524D01*
X0030693Y0058524D02*
X0030599Y0058618D01*
X0030599Y0058618D02*
X0030506Y0058806D01*
X0030506Y0058806D02*
X0030506Y0059368D01*
X0030506Y0059368D02*
X0030599Y0059555D01*
X0030599Y0059555D02*
X0030693Y0059649D01*
X0030693Y0059649D02*
X0030880Y0059743D01*
X0030880Y0059743D02*
X0031162Y0059743D01*
X0031162Y0059743D02*
X0031349Y0059649D01*
X0031349Y0059649D02*
X0031443Y0059555D01*
X0031443Y0059555D02*
X0031537Y0059368D01*
X0031537Y0059368D02*
X0031537Y0058806D01*
X0031537Y0058806D02*
X0031443Y0058618D01*
X0031443Y0058618D02*
X0031349Y0058524D01*
X0031349Y0058524D02*
X0031162Y0058431D01*
X0031162Y0058431D02*
X0030880Y0058431D01*
X0033224Y0059743D02*
X0033224Y0058431D01*
X0032380Y0059743D02*
X0032380Y0058712D01*
X0032380Y0058712D02*
X0032474Y0058524D01*
X0032474Y0058524D02*
X0032662Y0058431D01*
X0032662Y0058431D02*
X0032943Y0058431D01*
X0032943Y0058431D02*
X0033130Y0058524D01*
X0033130Y0058524D02*
X0033224Y0058618D01*
X0033880Y0059743D02*
X0034630Y0059743D01*
X0034161Y0060399D02*
X0034161Y0058712D01*
X0034161Y0058712D02*
X0034255Y0058524D01*
X0034255Y0058524D02*
X0034443Y0058431D01*
X0034443Y0058431D02*
X0034630Y0058431D01*
X0036786Y0058431D02*
X0036786Y0059743D01*
X0036786Y0059368D02*
X0036880Y0059555D01*
X0036880Y0059555D02*
X0036973Y0059649D01*
X0036973Y0059649D02*
X0037161Y0059743D01*
X0037161Y0059743D02*
X0037348Y0059743D01*
X0038755Y0058524D02*
X0038567Y0058431D01*
X0038567Y0058431D02*
X0038192Y0058431D01*
X0038192Y0058431D02*
X0038005Y0058524D01*
X0038005Y0058524D02*
X0037911Y0058712D01*
X0037911Y0058712D02*
X0037911Y0059462D01*
X0037911Y0059462D02*
X0038005Y0059649D01*
X0038005Y0059649D02*
X0038192Y0059743D01*
X0038192Y0059743D02*
X0038567Y0059743D01*
X0038567Y0059743D02*
X0038755Y0059649D01*
X0038755Y0059649D02*
X0038848Y0059462D01*
X0038848Y0059462D02*
X0038848Y0059274D01*
X0038848Y0059274D02*
X0037911Y0059087D01*
X0039504Y0059743D02*
X0039973Y0058431D01*
X0039973Y0058431D02*
X0040442Y0059743D01*
X0041192Y0058618D02*
X0041285Y0058524D01*
X0041285Y0058524D02*
X0041192Y0058431D01*
X0041192Y0058431D02*
X0041098Y0058524D01*
X0041098Y0058524D02*
X0041192Y0058618D01*
X0041192Y0058618D02*
X0041192Y0058431D01*
X0044004Y0060399D02*
X0044191Y0060399D01*
X0044191Y0060399D02*
X0044379Y0060305D01*
X0044379Y0060305D02*
X0044473Y0060212D01*
X0044473Y0060212D02*
X0044566Y0060024D01*
X0044566Y0060024D02*
X0044660Y0059649D01*
X0044660Y0059649D02*
X0044660Y0059180D01*
X0044660Y0059180D02*
X0044566Y0058806D01*
X0044566Y0058806D02*
X0044473Y0058618D01*
X0044473Y0058618D02*
X0044379Y0058524D01*
X0044379Y0058524D02*
X0044191Y0058431D01*
X0044191Y0058431D02*
X0044004Y0058431D01*
X0044004Y0058431D02*
X0043816Y0058524D01*
X0043816Y0058524D02*
X0043723Y0058618D01*
X0043723Y0058618D02*
X0043629Y0058806D01*
X0043629Y0058806D02*
X0043535Y0059180D01*
X0043535Y0059180D02*
X0043535Y0059649D01*
X0043535Y0059649D02*
X0043629Y0060024D01*
X0043629Y0060024D02*
X0043723Y0060212D01*
X0043723Y0060212D02*
X0043816Y0060305D01*
X0043816Y0060305D02*
X0044004Y0060399D01*
X0045504Y0058618D02*
X0045597Y0058524D01*
X0045597Y0058524D02*
X0045504Y0058431D01*
X0045504Y0058431D02*
X0045410Y0058524D01*
X0045410Y0058524D02*
X0045504Y0058618D01*
X0045504Y0058618D02*
X0045504Y0058431D01*
X0047472Y0058431D02*
X0046347Y0058431D01*
X0046910Y0058431D02*
X0046910Y0060399D01*
X0046910Y0060399D02*
X0046722Y0060118D01*
X0046722Y0060118D02*
X0046535Y0059930D01*
X0046535Y0059930D02*
X0046347Y0059837D01*
X0003040Y0056574D02*
X0003509Y0055261D01*
X0003509Y0055261D02*
X0003978Y0056574D01*
X0004728Y0055261D02*
X0004728Y0056574D01*
X0004728Y0056199D02*
X0004821Y0056386D01*
X0004821Y0056386D02*
X0004915Y0056480D01*
X0004915Y0056480D02*
X0005102Y0056574D01*
X0005102Y0056574D02*
X0005290Y0056574D01*
X0005946Y0056011D02*
X0007446Y0056011D01*
X0009227Y0055261D02*
X0009227Y0057230D01*
X0009227Y0055355D02*
X0009039Y0055261D01*
X0009039Y0055261D02*
X0008665Y0055261D01*
X0008665Y0055261D02*
X0008477Y0055355D01*
X0008477Y0055355D02*
X0008383Y0055449D01*
X0008383Y0055449D02*
X0008290Y0055636D01*
X0008290Y0055636D02*
X0008290Y0056199D01*
X0008290Y0056199D02*
X0008383Y0056386D01*
X0008383Y0056386D02*
X0008477Y0056480D01*
X0008477Y0056480D02*
X0008665Y0056574D01*
X0008665Y0056574D02*
X0009039Y0056574D01*
X0009039Y0056574D02*
X0009227Y0056480D01*
X0010164Y0055261D02*
X0010164Y0056574D01*
X0010164Y0057230D02*
X0010071Y0057136D01*
X0010071Y0057136D02*
X0010164Y0057042D01*
X0010164Y0057042D02*
X0010258Y0057136D01*
X0010258Y0057136D02*
X0010164Y0057230D01*
X0010164Y0057230D02*
X0010164Y0057042D01*
X0011008Y0055355D02*
X0011195Y0055261D01*
X0011195Y0055261D02*
X0011570Y0055261D01*
X0011570Y0055261D02*
X0011758Y0055355D01*
X0011758Y0055355D02*
X0011852Y0055543D01*
X0011852Y0055543D02*
X0011852Y0055636D01*
X0011852Y0055636D02*
X0011758Y0055824D01*
X0011758Y0055824D02*
X0011570Y0055918D01*
X0011570Y0055918D02*
X0011289Y0055918D01*
X0011289Y0055918D02*
X0011102Y0056011D01*
X0011102Y0056011D02*
X0011008Y0056199D01*
X0011008Y0056199D02*
X0011008Y0056293D01*
X0011008Y0056293D02*
X0011102Y0056480D01*
X0011102Y0056480D02*
X0011289Y0056574D01*
X0011289Y0056574D02*
X0011570Y0056574D01*
X0011570Y0056574D02*
X0011758Y0056480D01*
X0013539Y0055355D02*
X0013351Y0055261D01*
X0013351Y0055261D02*
X0012976Y0055261D01*
X0012976Y0055261D02*
X0012789Y0055355D01*
X0012789Y0055355D02*
X0012695Y0055449D01*
X0012695Y0055449D02*
X0012602Y0055636D01*
X0012602Y0055636D02*
X0012602Y0056199D01*
X0012602Y0056199D02*
X0012695Y0056386D01*
X0012695Y0056386D02*
X0012789Y0056480D01*
X0012789Y0056480D02*
X0012976Y0056574D01*
X0012976Y0056574D02*
X0013351Y0056574D01*
X0013351Y0056574D02*
X0013539Y0056480D01*
X0014383Y0055261D02*
X0014383Y0056574D01*
X0014383Y0056199D02*
X0014476Y0056386D01*
X0014476Y0056386D02*
X0014570Y0056480D01*
X0014570Y0056480D02*
X0014758Y0056574D01*
X0014758Y0056574D02*
X0014945Y0056574D01*
X0016351Y0055355D02*
X0016164Y0055261D01*
X0016164Y0055261D02*
X0015789Y0055261D01*
X0015789Y0055261D02*
X0015601Y0055355D01*
X0015601Y0055355D02*
X0015507Y0055543D01*
X0015507Y0055543D02*
X0015507Y0056293D01*
X0015507Y0056293D02*
X0015601Y0056480D01*
X0015601Y0056480D02*
X0015789Y0056574D01*
X0015789Y0056574D02*
X0016164Y0056574D01*
X0016164Y0056574D02*
X0016351Y0056480D01*
X0016351Y0056480D02*
X0016445Y0056293D01*
X0016445Y0056293D02*
X0016445Y0056105D01*
X0016445Y0056105D02*
X0015507Y0055918D01*
X0017007Y0056574D02*
X0017757Y0056574D01*
X0017288Y0057230D02*
X0017288Y0055543D01*
X0017288Y0055543D02*
X0017382Y0055355D01*
X0017382Y0055355D02*
X0017570Y0055261D01*
X0017570Y0055261D02*
X0017757Y0055261D01*
X0019163Y0055355D02*
X0018976Y0055261D01*
X0018976Y0055261D02*
X0018601Y0055261D01*
X0018601Y0055261D02*
X0018413Y0055355D01*
X0018413Y0055355D02*
X0018320Y0055543D01*
X0018320Y0055543D02*
X0018320Y0056293D01*
X0018320Y0056293D02*
X0018413Y0056480D01*
X0018413Y0056480D02*
X0018601Y0056574D01*
X0018601Y0056574D02*
X0018976Y0056574D01*
X0018976Y0056574D02*
X0019163Y0056480D01*
X0019163Y0056480D02*
X0019257Y0056293D01*
X0019257Y0056293D02*
X0019257Y0056105D01*
X0019257Y0056105D02*
X0018320Y0055918D01*
X0021600Y0055261D02*
X0021600Y0056574D01*
X0021600Y0056199D02*
X0021694Y0056386D01*
X0021694Y0056386D02*
X0021788Y0056480D01*
X0021788Y0056480D02*
X0021975Y0056574D01*
X0021975Y0056574D02*
X0022163Y0056574D01*
X0023569Y0055355D02*
X0023381Y0055261D01*
X0023381Y0055261D02*
X0023006Y0055261D01*
X0023006Y0055261D02*
X0022819Y0055355D01*
X0022819Y0055355D02*
X0022725Y0055543D01*
X0022725Y0055543D02*
X0022725Y0056293D01*
X0022725Y0056293D02*
X0022819Y0056480D01*
X0022819Y0056480D02*
X0023006Y0056574D01*
X0023006Y0056574D02*
X0023381Y0056574D01*
X0023381Y0056574D02*
X0023569Y0056480D01*
X0023569Y0056480D02*
X0023663Y0056293D01*
X0023663Y0056293D02*
X0023663Y0056105D01*
X0023663Y0056105D02*
X0022725Y0055918D01*
X0024319Y0056574D02*
X0024788Y0055261D01*
X0024788Y0055261D02*
X0025256Y0056574D01*
X0026006Y0055449D02*
X0026100Y0055355D01*
X0026100Y0055355D02*
X0026006Y0055261D01*
X0026006Y0055261D02*
X0025912Y0055355D01*
X0025912Y0055355D02*
X0026006Y0055449D01*
X0026006Y0055449D02*
X0026006Y0055261D01*
X0028818Y0057230D02*
X0029006Y0057230D01*
X0029006Y0057230D02*
X0029193Y0057136D01*
X0029193Y0057136D02*
X0029287Y0057042D01*
X0029287Y0057042D02*
X0029381Y0056855D01*
X0029381Y0056855D02*
X0029474Y0056480D01*
X0029474Y0056480D02*
X0029474Y0056011D01*
X0029474Y0056011D02*
X0029381Y0055636D01*
X0029381Y0055636D02*
X0029287Y0055449D01*
X0029287Y0055449D02*
X0029193Y0055355D01*
X0029193Y0055355D02*
X0029006Y0055261D01*
X0029006Y0055261D02*
X0028818Y0055261D01*
X0028818Y0055261D02*
X0028631Y0055355D01*
X0028631Y0055355D02*
X0028537Y0055449D01*
X0028537Y0055449D02*
X0028443Y0055636D01*
X0028443Y0055636D02*
X0028350Y0056011D01*
X0028350Y0056011D02*
X0028350Y0056480D01*
X0028350Y0056480D02*
X0028443Y0056855D01*
X0028443Y0056855D02*
X0028537Y0057042D01*
X0028537Y0057042D02*
X0028631Y0057136D01*
X0028631Y0057136D02*
X0028818Y0057230D01*
X0030318Y0055449D02*
X0030412Y0055355D01*
X0030412Y0055355D02*
X0030318Y0055261D01*
X0030318Y0055261D02*
X0030224Y0055355D01*
X0030224Y0055355D02*
X0030318Y0055449D01*
X0030318Y0055449D02*
X0030318Y0055261D01*
X0032193Y0057230D02*
X0031255Y0057230D01*
X0031255Y0057230D02*
X0031162Y0056293D01*
X0031162Y0056293D02*
X0031255Y0056386D01*
X0031255Y0056386D02*
X0031443Y0056480D01*
X0031443Y0056480D02*
X0031912Y0056480D01*
X0031912Y0056480D02*
X0032099Y0056386D01*
X0032099Y0056386D02*
X0032193Y0056293D01*
X0032193Y0056293D02*
X0032287Y0056105D01*
X0032287Y0056105D02*
X0032287Y0055636D01*
X0032287Y0055636D02*
X0032193Y0055449D01*
X0032193Y0055449D02*
X0032099Y0055355D01*
X0032099Y0055355D02*
X0031912Y0055261D01*
X0031912Y0055261D02*
X0031443Y0055261D01*
X0031443Y0055261D02*
X0031255Y0055355D01*
X0031255Y0055355D02*
X0031162Y0055449D01*
X0014366Y0024439D02*
X0013054Y0020502D01*
X0013054Y0020502D02*
X0011741Y0024439D01*
X0008179Y0020502D02*
X0009492Y0022377D01*
X0010429Y0020502D02*
X0010429Y0024439D01*
X0010429Y0024439D02*
X0008929Y0024439D01*
X0008929Y0024439D02*
X0008554Y0024252D01*
X0008554Y0024252D02*
X0008367Y0024064D01*
X0008367Y0024064D02*
X0008179Y0023689D01*
X0008179Y0023689D02*
X0008179Y0023127D01*
X0008179Y0023127D02*
X0008367Y0022752D01*
X0008367Y0022752D02*
X0008554Y0022565D01*
X0008554Y0022565D02*
X0008929Y0022377D01*
X0008929Y0022377D02*
X0010429Y0022377D01*
X0006492Y0022002D02*
X0003492Y0022002D01*
X0004992Y0020502D02*
X0004992Y0023502D01*
X0003228Y0005931D02*
X0003228Y0007243D01*
X0003228Y0006868D02*
X0003321Y0007055D01*
X0003321Y0007055D02*
X0003415Y0007149D01*
X0003415Y0007149D02*
X0003603Y0007243D01*
X0003603Y0007243D02*
X0003790Y0007243D01*
X0005290Y0007243D02*
X0005290Y0005931D01*
X0004446Y0007243D02*
X0004446Y0006212D01*
X0004446Y0006212D02*
X0004540Y0006024D01*
X0004540Y0006024D02*
X0004728Y0005931D01*
X0004728Y0005931D02*
X0005009Y0005931D01*
X0005009Y0005931D02*
X0005196Y0006024D01*
X0005196Y0006024D02*
X0005290Y0006118D01*
X0006134Y0006024D02*
X0006321Y0005931D01*
X0006321Y0005931D02*
X0006696Y0005931D01*
X0006696Y0005931D02*
X0006883Y0006024D01*
X0006883Y0006024D02*
X0006977Y0006212D01*
X0006977Y0006212D02*
X0006977Y0006306D01*
X0006977Y0006306D02*
X0006883Y0006493D01*
X0006883Y0006493D02*
X0006696Y0006587D01*
X0006696Y0006587D02*
X0006415Y0006587D01*
X0006415Y0006587D02*
X0006227Y0006680D01*
X0006227Y0006680D02*
X0006134Y0006868D01*
X0006134Y0006868D02*
X0006134Y0006962D01*
X0006134Y0006962D02*
X0006227Y0007149D01*
X0006227Y0007149D02*
X0006415Y0007243D01*
X0006415Y0007243D02*
X0006696Y0007243D01*
X0006696Y0007243D02*
X0006883Y0007149D01*
X0008571Y0006024D02*
X0008383Y0005931D01*
X0008383Y0005931D02*
X0008008Y0005931D01*
X0008008Y0005931D02*
X0007821Y0006024D01*
X0007821Y0006024D02*
X0007727Y0006212D01*
X0007727Y0006212D02*
X0007727Y0006962D01*
X0007727Y0006962D02*
X0007821Y0007149D01*
X0007821Y0007149D02*
X0008008Y0007243D01*
X0008008Y0007243D02*
X0008383Y0007243D01*
X0008383Y0007243D02*
X0008571Y0007149D01*
X0008571Y0007149D02*
X0008665Y0006962D01*
X0008665Y0006962D02*
X0008665Y0006774D01*
X0008665Y0006774D02*
X0007727Y0006587D01*
X0009227Y0007243D02*
X0009977Y0007243D01*
X0009508Y0005931D02*
X0009508Y0007618D01*
X0009508Y0007618D02*
X0009602Y0007805D01*
X0009602Y0007805D02*
X0009789Y0007899D01*
X0009789Y0007899D02*
X0009977Y0007899D01*
X0010633Y0005931D02*
X0010633Y0007243D01*
X0010633Y0007899D02*
X0010539Y0007805D01*
X0010539Y0007805D02*
X0010633Y0007712D01*
X0010633Y0007712D02*
X0010727Y0007805D01*
X0010727Y0007805D02*
X0010633Y0007899D01*
X0010633Y0007899D02*
X0010633Y0007712D01*
X0011570Y0006118D02*
X0011664Y0006024D01*
X0011664Y0006024D02*
X0011570Y0005931D01*
X0011570Y0005931D02*
X0011477Y0006024D01*
X0011477Y0006024D02*
X0011570Y0006118D01*
X0011570Y0006118D02*
X0011570Y0005931D01*
X0013351Y0006024D02*
X0013164Y0005931D01*
X0013164Y0005931D02*
X0012789Y0005931D01*
X0012789Y0005931D02*
X0012602Y0006024D01*
X0012602Y0006024D02*
X0012508Y0006118D01*
X0012508Y0006118D02*
X0012414Y0006306D01*
X0012414Y0006306D02*
X0012414Y0006868D01*
X0012414Y0006868D02*
X0012508Y0007055D01*
X0012508Y0007055D02*
X0012602Y0007149D01*
X0012602Y0007149D02*
X0012789Y0007243D01*
X0012789Y0007243D02*
X0013164Y0007243D01*
X0013164Y0007243D02*
X0013351Y0007149D01*
X0014476Y0005931D02*
X0014289Y0006024D01*
X0014289Y0006024D02*
X0014195Y0006118D01*
X0014195Y0006118D02*
X0014101Y0006306D01*
X0014101Y0006306D02*
X0014101Y0006868D01*
X0014101Y0006868D02*
X0014195Y0007055D01*
X0014195Y0007055D02*
X0014289Y0007149D01*
X0014289Y0007149D02*
X0014476Y0007243D01*
X0014476Y0007243D02*
X0014758Y0007243D01*
X0014758Y0007243D02*
X0014945Y0007149D01*
X0014945Y0007149D02*
X0015039Y0007055D01*
X0015039Y0007055D02*
X0015132Y0006868D01*
X0015132Y0006868D02*
X0015132Y0006306D01*
X0015132Y0006306D02*
X0015039Y0006118D01*
X0015039Y0006118D02*
X0014945Y0006024D01*
X0014945Y0006024D02*
X0014758Y0005931D01*
X0014758Y0005931D02*
X0014476Y0005931D01*
X0015976Y0005931D02*
X0015976Y0007243D01*
X0015976Y0007055D02*
X0016070Y0007149D01*
X0016070Y0007149D02*
X0016257Y0007243D01*
X0016257Y0007243D02*
X0016539Y0007243D01*
X0016539Y0007243D02*
X0016726Y0007149D01*
X0016726Y0007149D02*
X0016820Y0006962D01*
X0016820Y0006962D02*
X0016820Y0005931D01*
X0016820Y0006962D02*
X0016913Y0007149D01*
X0016913Y0007149D02*
X0017101Y0007243D01*
X0017101Y0007243D02*
X0017382Y0007243D01*
X0017382Y0007243D02*
X0017570Y0007149D01*
X0017570Y0007149D02*
X0017663Y0006962D01*
X0017663Y0006962D02*
X0017663Y0005931D01*
X0004071Y0004074D02*
X0004071Y0002480D01*
X0004071Y0002480D02*
X0003978Y0002293D01*
X0003978Y0002293D02*
X0003884Y0002199D01*
X0003884Y0002199D02*
X0003696Y0002105D01*
X0003696Y0002105D02*
X0003415Y0002105D01*
X0003415Y0002105D02*
X0003228Y0002199D01*
X0004071Y0002855D02*
X0003884Y0002761D01*
X0003884Y0002761D02*
X0003509Y0002761D01*
X0003509Y0002761D02*
X0003321Y0002855D01*
X0003321Y0002855D02*
X0003228Y0002949D01*
X0003228Y0002949D02*
X0003134Y0003136D01*
X0003134Y0003136D02*
X0003134Y0003699D01*
X0003134Y0003699D02*
X0003228Y0003886D01*
X0003228Y0003886D02*
X0003321Y0003980D01*
X0003321Y0003980D02*
X0003509Y0004074D01*
X0003509Y0004074D02*
X0003884Y0004074D01*
X0003884Y0004074D02*
X0004071Y0003980D01*
X0005009Y0002761D02*
X0005009Y0004074D01*
X0005009Y0004730D02*
X0004915Y0004636D01*
X0004915Y0004636D02*
X0005009Y0004542D01*
X0005009Y0004542D02*
X0005102Y0004636D01*
X0005102Y0004636D02*
X0005009Y0004730D01*
X0005009Y0004730D02*
X0005009Y0004542D01*
X0005665Y0004074D02*
X0006415Y0004074D01*
X0005946Y0004730D02*
X0005946Y0003043D01*
X0005946Y0003043D02*
X0006040Y0002855D01*
X0006040Y0002855D02*
X0006227Y0002761D01*
X0006227Y0002761D02*
X0006415Y0002761D01*
X0007071Y0002761D02*
X0007071Y0004730D01*
X0007915Y0002761D02*
X0007915Y0003793D01*
X0007915Y0003793D02*
X0007821Y0003980D01*
X0007821Y0003980D02*
X0007633Y0004074D01*
X0007633Y0004074D02*
X0007352Y0004074D01*
X0007352Y0004074D02*
X0007165Y0003980D01*
X0007165Y0003980D02*
X0007071Y0003886D01*
X0009696Y0004074D02*
X0009696Y0002761D01*
X0008852Y0004074D02*
X0008852Y0003043D01*
X0008852Y0003043D02*
X0008946Y0002855D01*
X0008946Y0002855D02*
X0009133Y0002761D01*
X0009133Y0002761D02*
X0009414Y0002761D01*
X0009414Y0002761D02*
X0009602Y0002855D01*
X0009602Y0002855D02*
X0009696Y0002949D01*
X0010633Y0002761D02*
X0010633Y0004730D01*
X0010633Y0003980D02*
X0010820Y0004074D01*
X0010820Y0004074D02*
X0011195Y0004074D01*
X0011195Y0004074D02*
X0011383Y0003980D01*
X0011383Y0003980D02*
X0011477Y0003886D01*
X0011477Y0003886D02*
X0011570Y0003699D01*
X0011570Y0003699D02*
X0011570Y0003136D01*
X0011570Y0003136D02*
X0011477Y0002949D01*
X0011477Y0002949D02*
X0011383Y0002855D01*
X0011383Y0002855D02*
X0011195Y0002761D01*
X0011195Y0002761D02*
X0010820Y0002761D01*
X0010820Y0002761D02*
X0010633Y0002855D01*
X0012414Y0002949D02*
X0012508Y0002855D01*
X0012508Y0002855D02*
X0012414Y0002761D01*
X0012414Y0002761D02*
X0012320Y0002855D01*
X0012320Y0002855D02*
X0012414Y0002949D01*
X0012414Y0002949D02*
X0012414Y0002761D01*
X0014195Y0002855D02*
X0014008Y0002761D01*
X0014008Y0002761D02*
X0013633Y0002761D01*
X0013633Y0002761D02*
X0013445Y0002855D01*
X0013445Y0002855D02*
X0013351Y0002949D01*
X0013351Y0002949D02*
X0013258Y0003136D01*
X0013258Y0003136D02*
X0013258Y0003699D01*
X0013258Y0003699D02*
X0013351Y0003886D01*
X0013351Y0003886D02*
X0013445Y0003980D01*
X0013445Y0003980D02*
X0013633Y0004074D01*
X0013633Y0004074D02*
X0014008Y0004074D01*
X0014008Y0004074D02*
X0014195Y0003980D01*
X0015320Y0002761D02*
X0015132Y0002855D01*
X0015132Y0002855D02*
X0015039Y0002949D01*
X0015039Y0002949D02*
X0014945Y0003136D01*
X0014945Y0003136D02*
X0014945Y0003699D01*
X0014945Y0003699D02*
X0015039Y0003886D01*
X0015039Y0003886D02*
X0015132Y0003980D01*
X0015132Y0003980D02*
X0015320Y0004074D01*
X0015320Y0004074D02*
X0015601Y0004074D01*
X0015601Y0004074D02*
X0015789Y0003980D01*
X0015789Y0003980D02*
X0015882Y0003886D01*
X0015882Y0003886D02*
X0015976Y0003699D01*
X0015976Y0003699D02*
X0015976Y0003136D01*
X0015976Y0003136D02*
X0015882Y0002949D01*
X0015882Y0002949D02*
X0015789Y0002855D01*
X0015789Y0002855D02*
X0015601Y0002761D01*
X0015601Y0002761D02*
X0015320Y0002761D01*
X0016820Y0002761D02*
X0016820Y0004074D01*
X0016820Y0003886D02*
X0016913Y0003980D01*
X0016913Y0003980D02*
X0017101Y0004074D01*
X0017101Y0004074D02*
X0017382Y0004074D01*
X0017382Y0004074D02*
X0017570Y0003980D01*
X0017570Y0003980D02*
X0017663Y0003793D01*
X0017663Y0003793D02*
X0017663Y0002761D01*
X0017663Y0003793D02*
X0017757Y0003980D01*
X0017757Y0003980D02*
X0017945Y0004074D01*
X0017945Y0004074D02*
X0018226Y0004074D01*
X0018226Y0004074D02*
X0018413Y0003980D01*
X0018413Y0003980D02*
X0018507Y0003793D01*
X0018507Y0003793D02*
X0018507Y0002761D01*
X0020850Y0004824D02*
X0019163Y0002293D01*
X0022350Y0002855D02*
X0022163Y0002761D01*
X0022163Y0002761D02*
X0021788Y0002761D01*
X0021788Y0002761D02*
X0021600Y0002855D01*
X0021600Y0002855D02*
X0021507Y0002949D01*
X0021507Y0002949D02*
X0021413Y0003136D01*
X0021413Y0003136D02*
X0021413Y0003699D01*
X0021413Y0003699D02*
X0021507Y0003886D01*
X0021507Y0003886D02*
X0021600Y0003980D01*
X0021600Y0003980D02*
X0021788Y0004074D01*
X0021788Y0004074D02*
X0022163Y0004074D01*
X0022163Y0004074D02*
X0022350Y0003980D01*
X0023194Y0002761D02*
X0023194Y0004730D01*
X0024038Y0002761D02*
X0024038Y0003793D01*
X0024038Y0003793D02*
X0023944Y0003980D01*
X0023944Y0003980D02*
X0023756Y0004074D01*
X0023756Y0004074D02*
X0023475Y0004074D01*
X0023475Y0004074D02*
X0023288Y0003980D01*
X0023288Y0003980D02*
X0023194Y0003886D01*
X0025819Y0004074D02*
X0025819Y0002761D01*
X0024975Y0004074D02*
X0024975Y0003043D01*
X0024975Y0003043D02*
X0025069Y0002855D01*
X0025069Y0002855D02*
X0025256Y0002761D01*
X0025256Y0002761D02*
X0025537Y0002761D01*
X0025537Y0002761D02*
X0025725Y0002855D01*
X0025725Y0002855D02*
X0025819Y0002949D01*
X0027600Y0002855D02*
X0027412Y0002761D01*
X0027412Y0002761D02*
X0027037Y0002761D01*
X0027037Y0002761D02*
X0026850Y0002855D01*
X0026850Y0002855D02*
X0026756Y0002949D01*
X0026756Y0002949D02*
X0026662Y0003136D01*
X0026662Y0003136D02*
X0026662Y0003699D01*
X0026662Y0003699D02*
X0026756Y0003886D01*
X0026756Y0003886D02*
X0026850Y0003980D01*
X0026850Y0003980D02*
X0027037Y0004074D01*
X0027037Y0004074D02*
X0027412Y0004074D01*
X0027412Y0004074D02*
X0027600Y0003980D01*
X0028443Y0002761D02*
X0028443Y0004730D01*
X0028631Y0003511D02*
X0029193Y0002761D01*
X0029193Y0004074D02*
X0028443Y0003324D01*
X0029849Y0004074D02*
X0030224Y0002761D01*
X0030224Y0002761D02*
X0030599Y0003699D01*
X0030599Y0003699D02*
X0030974Y0002761D01*
X0030974Y0002761D02*
X0031349Y0004074D01*
X0032943Y0002761D02*
X0032943Y0003793D01*
X0032943Y0003793D02*
X0032849Y0003980D01*
X0032849Y0003980D02*
X0032662Y0004074D01*
X0032662Y0004074D02*
X0032287Y0004074D01*
X0032287Y0004074D02*
X0032099Y0003980D01*
X0032943Y0002855D02*
X0032755Y0002761D01*
X0032755Y0002761D02*
X0032287Y0002761D01*
X0032287Y0002761D02*
X0032099Y0002855D01*
X0032099Y0002855D02*
X0032005Y0003043D01*
X0032005Y0003043D02*
X0032005Y0003230D01*
X0032005Y0003230D02*
X0032099Y0003418D01*
X0032099Y0003418D02*
X0032287Y0003511D01*
X0032287Y0003511D02*
X0032755Y0003511D01*
X0032755Y0003511D02*
X0032943Y0003605D01*
X0034724Y0004074D02*
X0034724Y0002480D01*
X0034724Y0002480D02*
X0034630Y0002293D01*
X0034630Y0002293D02*
X0034536Y0002199D01*
X0034536Y0002199D02*
X0034349Y0002105D01*
X0034349Y0002105D02*
X0034068Y0002105D01*
X0034068Y0002105D02*
X0033880Y0002199D01*
X0034724Y0002855D02*
X0034536Y0002761D01*
X0034536Y0002761D02*
X0034161Y0002761D01*
X0034161Y0002761D02*
X0033974Y0002855D01*
X0033974Y0002855D02*
X0033880Y0002949D01*
X0033880Y0002949D02*
X0033786Y0003136D01*
X0033786Y0003136D02*
X0033786Y0003699D01*
X0033786Y0003699D02*
X0033880Y0003886D01*
X0033880Y0003886D02*
X0033974Y0003980D01*
X0033974Y0003980D02*
X0034161Y0004074D01*
X0034161Y0004074D02*
X0034536Y0004074D01*
X0034536Y0004074D02*
X0034724Y0003980D01*
X0035942Y0002761D02*
X0035755Y0002855D01*
X0035755Y0002855D02*
X0035661Y0002949D01*
X0035661Y0002949D02*
X0035567Y0003136D01*
X0035567Y0003136D02*
X0035567Y0003699D01*
X0035567Y0003699D02*
X0035661Y0003886D01*
X0035661Y0003886D02*
X0035755Y0003980D01*
X0035755Y0003980D02*
X0035942Y0004074D01*
X0035942Y0004074D02*
X0036224Y0004074D01*
X0036224Y0004074D02*
X0036411Y0003980D01*
X0036411Y0003980D02*
X0036505Y0003886D01*
X0036505Y0003886D02*
X0036599Y0003699D01*
X0036599Y0003699D02*
X0036599Y0003136D01*
X0036599Y0003136D02*
X0036505Y0002949D01*
X0036505Y0002949D02*
X0036411Y0002855D01*
X0036411Y0002855D02*
X0036224Y0002761D01*
X0036224Y0002761D02*
X0035942Y0002761D01*
X0037442Y0004074D02*
X0037442Y0002761D01*
X0037442Y0003886D02*
X0037536Y0003980D01*
X0037536Y0003980D02*
X0037723Y0004074D01*
X0037723Y0004074D02*
X0038005Y0004074D01*
X0038005Y0004074D02*
X0038192Y0003980D01*
X0038192Y0003980D02*
X0038286Y0003793D01*
X0038286Y0003793D02*
X0038286Y0002761D01*
X0040067Y0002855D02*
X0039879Y0002761D01*
X0039879Y0002761D02*
X0039504Y0002761D01*
X0039504Y0002761D02*
X0039317Y0002855D01*
X0039317Y0002855D02*
X0039223Y0002949D01*
X0039223Y0002949D02*
X0039129Y0003136D01*
X0039129Y0003136D02*
X0039129Y0003699D01*
X0039129Y0003699D02*
X0039223Y0003886D01*
X0039223Y0003886D02*
X0039317Y0003980D01*
X0039317Y0003980D02*
X0039504Y0004074D01*
X0039504Y0004074D02*
X0039879Y0004074D01*
X0039879Y0004074D02*
X0040067Y0003980D01*
X0041192Y0002761D02*
X0041004Y0002855D01*
X0041004Y0002855D02*
X0040910Y0002949D01*
X0040910Y0002949D02*
X0040817Y0003136D01*
X0040817Y0003136D02*
X0040817Y0003699D01*
X0040817Y0003699D02*
X0040910Y0003886D01*
X0040910Y0003886D02*
X0041004Y0003980D01*
X0041004Y0003980D02*
X0041192Y0004074D01*
X0041192Y0004074D02*
X0041473Y0004074D01*
X0041473Y0004074D02*
X0041660Y0003980D01*
X0041660Y0003980D02*
X0041754Y0003886D01*
X0041754Y0003886D02*
X0041848Y0003699D01*
X0041848Y0003699D02*
X0041848Y0003136D01*
X0041848Y0003136D02*
X0041754Y0002949D01*
X0041754Y0002949D02*
X0041660Y0002855D01*
X0041660Y0002855D02*
X0041473Y0002761D01*
X0041473Y0002761D02*
X0041192Y0002761D01*
X0042692Y0002761D02*
X0042692Y0004074D01*
X0042692Y0003886D02*
X0042785Y0003980D01*
X0042785Y0003980D02*
X0042973Y0004074D01*
X0042973Y0004074D02*
X0043254Y0004074D01*
X0043254Y0004074D02*
X0043441Y0003980D01*
X0043441Y0003980D02*
X0043535Y0003793D01*
X0043535Y0003793D02*
X0043535Y0002761D01*
X0043535Y0003793D02*
X0043629Y0003980D01*
X0043629Y0003980D02*
X0043816Y0004074D01*
X0043816Y0004074D02*
X0044098Y0004074D01*
X0044098Y0004074D02*
X0044285Y0003980D01*
X0044285Y0003980D02*
X0044379Y0003793D01*
X0044379Y0003793D02*
X0044379Y0002761D01*
X0045316Y0004074D02*
X0045316Y0002105D01*
X0045316Y0003980D02*
X0045504Y0004074D01*
X0045504Y0004074D02*
X0045879Y0004074D01*
X0045879Y0004074D02*
X0046066Y0003980D01*
X0046066Y0003980D02*
X0046160Y0003886D01*
X0046160Y0003886D02*
X0046254Y0003699D01*
X0046254Y0003699D02*
X0046254Y0003136D01*
X0046254Y0003136D02*
X0046160Y0002949D01*
X0046160Y0002949D02*
X0046066Y0002855D01*
X0046066Y0002855D02*
X0045879Y0002761D01*
X0045879Y0002761D02*
X0045504Y0002761D01*
X0045504Y0002761D02*
X0045316Y0002855D01*
X0047941Y0004074D02*
X0047941Y0002761D01*
X0047097Y0004074D02*
X0047097Y0003043D01*
X0047097Y0003043D02*
X0047191Y0002855D01*
X0047191Y0002855D02*
X0047378Y0002761D01*
X0047378Y0002761D02*
X0047660Y0002761D01*
X0047660Y0002761D02*
X0047847Y0002855D01*
X0047847Y0002855D02*
X0047941Y0002949D01*
X0048597Y0004074D02*
X0049347Y0004074D01*
X0048878Y0004730D02*
X0048878Y0003043D01*
X0048878Y0003043D02*
X0048972Y0002855D01*
X0048972Y0002855D02*
X0049159Y0002761D01*
X0049159Y0002761D02*
X0049347Y0002761D01*
X0050003Y0002761D02*
X0050003Y0004074D01*
X0050003Y0004730D02*
X0049909Y0004636D01*
X0049909Y0004636D02*
X0050003Y0004542D01*
X0050003Y0004542D02*
X0050097Y0004636D01*
X0050097Y0004636D02*
X0050003Y0004730D01*
X0050003Y0004730D02*
X0050003Y0004542D01*
X0050940Y0004074D02*
X0050940Y0002761D01*
X0050940Y0003886D02*
X0051034Y0003980D01*
X0051034Y0003980D02*
X0051222Y0004074D01*
X0051222Y0004074D02*
X0051503Y0004074D01*
X0051503Y0004074D02*
X0051690Y0003980D01*
X0051690Y0003980D02*
X0051784Y0003793D01*
X0051784Y0003793D02*
X0051784Y0002761D01*
X0053565Y0004074D02*
X0053565Y0002480D01*
X0053565Y0002480D02*
X0053471Y0002293D01*
X0053471Y0002293D02*
X0053378Y0002199D01*
X0053378Y0002199D02*
X0053190Y0002105D01*
X0053190Y0002105D02*
X0052909Y0002105D01*
X0052909Y0002105D02*
X0052722Y0002199D01*
X0053565Y0002855D02*
X0053378Y0002761D01*
X0053378Y0002761D02*
X0053003Y0002761D01*
X0053003Y0002761D02*
X0052815Y0002855D01*
X0052815Y0002855D02*
X0052722Y0002949D01*
X0052722Y0002949D02*
X0052628Y0003136D01*
X0052628Y0003136D02*
X0052628Y0003699D01*
X0052628Y0003699D02*
X0052722Y0003886D01*
X0052722Y0003886D02*
X0052815Y0003980D01*
X0052815Y0003980D02*
X0053003Y0004074D01*
X0053003Y0004074D02*
X0053378Y0004074D01*
X0053378Y0004074D02*
X0053565Y0003980D01*
X0055909Y0004824D02*
X0054221Y0002293D01*
X0056377Y0004074D02*
X0056846Y0002761D01*
X0056846Y0002761D02*
X0057315Y0004074D01*
X0058065Y0002761D02*
X0058065Y0004074D01*
X0058065Y0003699D02*
X0058158Y0003886D01*
X0058158Y0003886D02*
X0058252Y0003980D01*
X0058252Y0003980D02*
X0058440Y0004074D01*
X0058440Y0004074D02*
X0058627Y0004074D01*
X0059283Y0003511D02*
X0060783Y0003511D01*
X0062564Y0002761D02*
X0062564Y0004730D01*
X0062564Y0002855D02*
X0062377Y0002761D01*
X0062377Y0002761D02*
X0062002Y0002761D01*
X0062002Y0002761D02*
X0061814Y0002855D01*
X0061814Y0002855D02*
X0061720Y0002949D01*
X0061720Y0002949D02*
X0061627Y0003136D01*
X0061627Y0003136D02*
X0061627Y0003699D01*
X0061627Y0003699D02*
X0061720Y0003886D01*
X0061720Y0003886D02*
X0061814Y0003980D01*
X0061814Y0003980D02*
X0062002Y0004074D01*
X0062002Y0004074D02*
X0062377Y0004074D01*
X0062377Y0004074D02*
X0062564Y0003980D01*
X0063501Y0002761D02*
X0063501Y0004074D01*
X0063501Y0004730D02*
X0063408Y0004636D01*
X0063408Y0004636D02*
X0063501Y0004542D01*
X0063501Y0004542D02*
X0063595Y0004636D01*
X0063595Y0004636D02*
X0063501Y0004730D01*
X0063501Y0004730D02*
X0063501Y0004542D01*
X0064345Y0002855D02*
X0064533Y0002761D01*
X0064533Y0002761D02*
X0064907Y0002761D01*
X0064907Y0002761D02*
X0065095Y0002855D01*
X0065095Y0002855D02*
X0065189Y0003043D01*
X0065189Y0003043D02*
X0065189Y0003136D01*
X0065189Y0003136D02*
X0065095Y0003324D01*
X0065095Y0003324D02*
X0064907Y0003418D01*
X0064907Y0003418D02*
X0064626Y0003418D01*
X0064626Y0003418D02*
X0064439Y0003511D01*
X0064439Y0003511D02*
X0064345Y0003699D01*
X0064345Y0003699D02*
X0064345Y0003793D01*
X0064345Y0003793D02*
X0064439Y0003980D01*
X0064439Y0003980D02*
X0064626Y0004074D01*
X0064626Y0004074D02*
X0064907Y0004074D01*
X0064907Y0004074D02*
X0065095Y0003980D01*
X0066876Y0002855D02*
X0066689Y0002761D01*
X0066689Y0002761D02*
X0066314Y0002761D01*
X0066314Y0002761D02*
X0066126Y0002855D01*
X0066126Y0002855D02*
X0066032Y0002949D01*
X0066032Y0002949D02*
X0065939Y0003136D01*
X0065939Y0003136D02*
X0065939Y0003699D01*
X0065939Y0003699D02*
X0066032Y0003886D01*
X0066032Y0003886D02*
X0066126Y0003980D01*
X0066126Y0003980D02*
X0066314Y0004074D01*
X0066314Y0004074D02*
X0066689Y0004074D01*
X0066689Y0004074D02*
X0066876Y0003980D01*
X0067720Y0002761D02*
X0067720Y0004074D01*
X0067720Y0003699D02*
X0067813Y0003886D01*
X0067813Y0003886D02*
X0067907Y0003980D01*
X0067907Y0003980D02*
X0068095Y0004074D01*
X0068095Y0004074D02*
X0068282Y0004074D01*
X0069688Y0002855D02*
X0069501Y0002761D01*
X0069501Y0002761D02*
X0069126Y0002761D01*
X0069126Y0002761D02*
X0068938Y0002855D01*
X0068938Y0002855D02*
X0068844Y0003043D01*
X0068844Y0003043D02*
X0068844Y0003793D01*
X0068844Y0003793D02*
X0068938Y0003980D01*
X0068938Y0003980D02*
X0069126Y0004074D01*
X0069126Y0004074D02*
X0069501Y0004074D01*
X0069501Y0004074D02*
X0069688Y0003980D01*
X0069688Y0003980D02*
X0069782Y0003793D01*
X0069782Y0003793D02*
X0069782Y0003605D01*
X0069782Y0003605D02*
X0068844Y0003418D01*
X0070344Y0004074D02*
X0071094Y0004074D01*
X0070626Y0004730D02*
X0070626Y0003043D01*
X0070626Y0003043D02*
X0070719Y0002855D01*
X0070719Y0002855D02*
X0070907Y0002761D01*
X0070907Y0002761D02*
X0071094Y0002761D01*
X0072500Y0002855D02*
X0072313Y0002761D01*
X0072313Y0002761D02*
X0071938Y0002761D01*
X0071938Y0002761D02*
X0071750Y0002855D01*
X0071750Y0002855D02*
X0071657Y0003043D01*
X0071657Y0003043D02*
X0071657Y0003793D01*
X0071657Y0003793D02*
X0071750Y0003980D01*
X0071750Y0003980D02*
X0071938Y0004074D01*
X0071938Y0004074D02*
X0072313Y0004074D01*
X0072313Y0004074D02*
X0072500Y0003980D01*
X0072500Y0003980D02*
X0072594Y0003793D01*
X0072594Y0003793D02*
X0072594Y0003605D01*
X0072594Y0003605D02*
X0071657Y0003418D01*
X0073438Y0003511D02*
X0074937Y0003511D01*
X0075875Y0002761D02*
X0075875Y0004730D01*
X0075875Y0003980D02*
X0076062Y0004074D01*
X0076062Y0004074D02*
X0076437Y0004074D01*
X0076437Y0004074D02*
X0076625Y0003980D01*
X0076625Y0003980D02*
X0076719Y0003886D01*
X0076719Y0003886D02*
X0076812Y0003699D01*
X0076812Y0003699D02*
X0076812Y0003136D01*
X0076812Y0003136D02*
X0076719Y0002949D01*
X0076719Y0002949D02*
X0076625Y0002855D01*
X0076625Y0002855D02*
X0076437Y0002761D01*
X0076437Y0002761D02*
X0076062Y0002761D01*
X0076062Y0002761D02*
X0075875Y0002855D01*
X0077656Y0002761D02*
X0077656Y0004074D01*
X0077656Y0003699D02*
X0077750Y0003886D01*
X0077750Y0003886D02*
X0077843Y0003980D01*
X0077843Y0003980D02*
X0078031Y0004074D01*
X0078031Y0004074D02*
X0078218Y0004074D01*
X0079624Y0002855D02*
X0079437Y0002761D01*
X0079437Y0002761D02*
X0079062Y0002761D01*
X0079062Y0002761D02*
X0078874Y0002855D01*
X0078874Y0002855D02*
X0078781Y0003043D01*
X0078781Y0003043D02*
X0078781Y0003793D01*
X0078781Y0003793D02*
X0078874Y0003980D01*
X0078874Y0003980D02*
X0079062Y0004074D01*
X0079062Y0004074D02*
X0079437Y0004074D01*
X0079437Y0004074D02*
X0079624Y0003980D01*
X0079624Y0003980D02*
X0079718Y0003793D01*
X0079718Y0003793D02*
X0079718Y0003605D01*
X0079718Y0003605D02*
X0078781Y0003418D01*
X0081405Y0002761D02*
X0081405Y0003793D01*
X0081405Y0003793D02*
X0081312Y0003980D01*
X0081312Y0003980D02*
X0081124Y0004074D01*
X0081124Y0004074D02*
X0080749Y0004074D01*
X0080749Y0004074D02*
X0080562Y0003980D01*
X0081405Y0002855D02*
X0081218Y0002761D01*
X0081218Y0002761D02*
X0080749Y0002761D01*
X0080749Y0002761D02*
X0080562Y0002855D01*
X0080562Y0002855D02*
X0080468Y0003043D01*
X0080468Y0003043D02*
X0080468Y0003230D01*
X0080468Y0003230D02*
X0080562Y0003418D01*
X0080562Y0003418D02*
X0080749Y0003511D01*
X0080749Y0003511D02*
X0081218Y0003511D01*
X0081218Y0003511D02*
X0081405Y0003605D01*
X0082343Y0002761D02*
X0082343Y0004730D01*
X0082530Y0003511D02*
X0083093Y0002761D01*
X0083093Y0004074D02*
X0082343Y0003324D01*
X0084218Y0002761D02*
X0084030Y0002855D01*
X0084030Y0002855D02*
X0083936Y0002949D01*
X0083936Y0002949D02*
X0083843Y0003136D01*
X0083843Y0003136D02*
X0083843Y0003699D01*
X0083843Y0003699D02*
X0083936Y0003886D01*
X0083936Y0003886D02*
X0084030Y0003980D01*
X0084030Y0003980D02*
X0084218Y0004074D01*
X0084218Y0004074D02*
X0084499Y0004074D01*
X0084499Y0004074D02*
X0084686Y0003980D01*
X0084686Y0003980D02*
X0084780Y0003886D01*
X0084780Y0003886D02*
X0084874Y0003699D01*
X0084874Y0003699D02*
X0084874Y0003136D01*
X0084874Y0003136D02*
X0084780Y0002949D01*
X0084780Y0002949D02*
X0084686Y0002855D01*
X0084686Y0002855D02*
X0084499Y0002761D01*
X0084499Y0002761D02*
X0084218Y0002761D01*
X0086561Y0004074D02*
X0086561Y0002761D01*
X0085717Y0004074D02*
X0085717Y0003043D01*
X0085717Y0003043D02*
X0085811Y0002855D01*
X0085811Y0002855D02*
X0085999Y0002761D01*
X0085999Y0002761D02*
X0086280Y0002761D01*
X0086280Y0002761D02*
X0086467Y0002855D01*
X0086467Y0002855D02*
X0086561Y0002949D01*
X0087217Y0004074D02*
X0087967Y0004074D01*
X0087498Y0004730D02*
X0087498Y0003043D01*
X0087498Y0003043D02*
X0087592Y0002855D01*
X0087592Y0002855D02*
X0087780Y0002761D01*
X0087780Y0002761D02*
X0087967Y0002761D01*
D20*
X0008688Y0043820D02*
X0008688Y0041007D01*
X0008688Y0041007D02*
X0008500Y0040445D01*
X0008500Y0040445D02*
X0008125Y0040070D01*
X0008125Y0040070D02*
X0007563Y0039883D01*
X0007563Y0039883D02*
X0007188Y0039883D01*
X0012625Y0039883D02*
X0010375Y0039883D01*
X0011500Y0039883D02*
X0011500Y0043820D01*
X0011500Y0043820D02*
X0011125Y0043257D01*
X0011125Y0043257D02*
X0010750Y0042882D01*
X0010750Y0042882D02*
X0010375Y0042695D01*
X0088688Y0005473D02*
X0088688Y0002661D01*
X0088688Y0002661D02*
X0088500Y0002099D01*
X0088500Y0002099D02*
X0088125Y0001724D01*
X0088125Y0001724D02*
X0087563Y0001536D01*
X0087563Y0001536D02*
X0087188Y0001536D01*
X0090375Y0005098D02*
X0090562Y0005286D01*
X0090562Y0005286D02*
X0090937Y0005473D01*
X0090937Y0005473D02*
X0091875Y0005473D01*
X0091875Y0005473D02*
X0092250Y0005286D01*
X0092250Y0005286D02*
X0092437Y0005098D01*
X0092437Y0005098D02*
X0092625Y0004723D01*
X0092625Y0004723D02*
X0092625Y0004348D01*
X0092625Y0004348D02*
X0092437Y0003786D01*
X0092437Y0003786D02*
X0090187Y0001536D01*
X0090187Y0001536D02*
X0092625Y0001536D01*
D21*
X0004764Y0037736D02*
X0010000Y0037736D01*
X0004764Y0032500D02*
X0004764Y0037736D01*
X0004764Y0027500D02*
X0004764Y0017264D01*
X0004764Y0027500D02*
X0015236Y0027500D01*
X0004764Y0017264D02*
X0015236Y0017264D01*
X0015236Y0027500D02*
X0015236Y0017264D01*
D22*
X0019803Y0050689D02*
X0019803Y0025492D01*
X0019803Y0012894D02*
X0019803Y0018012D01*
X0019803Y0012894D02*
X0078858Y0012894D01*
X0076496Y0050689D02*
X0019803Y0050689D01*
X0078858Y0012894D02*
X0078858Y0032972D01*
D21*
X0084764Y0017500D02*
X0084764Y0057736D01*
X0095236Y0057736D02*
X0084764Y0057736D01*
X0095236Y0017500D02*
X0084764Y0017500D01*
X0095236Y0017500D02*
X0095236Y0057736D01*
X0095236Y0012500D02*
X0095236Y0007264D01*
X0095236Y0007264D02*
X0090000Y0007264D01*
X0019409Y0012500D02*
%LPD*%
G01*
D22*
X0022460Y0049474D02*
X0024429Y0043568D01*
X0024429Y0043568D02*
X0026397Y0049474D01*
X0031740Y0043568D02*
X0029772Y0046380D01*
X0028366Y0043568D02*
X0028366Y0049474D01*
X0028366Y0049474D02*
X0030615Y0049474D01*
X0030615Y0049474D02*
X0031178Y0049193D01*
X0031178Y0049193D02*
X0031459Y0048911D01*
X0031459Y0048911D02*
X0031740Y0048349D01*
X0031740Y0048349D02*
X0031740Y0047505D01*
X0031740Y0047505D02*
X0031459Y0046943D01*
X0031459Y0046943D02*
X0031178Y0046662D01*
X0031178Y0046662D02*
X0030615Y0046380D01*
X0030615Y0046380D02*
X0028366Y0046380D01*
X0019803Y0050689D02*
X0019803Y0025492D01*
X0019803Y0012894D02*
X0019803Y0018012D01*
X0019803Y0012894D02*
X0078858Y0012894D01*
X0076496Y0050689D02*
X0019803Y0050689D01*
X0078858Y0012894D02*
X0078858Y0032972D01*
D21*
X0035300Y0029350D02*
X0036510Y0029350D01*
X0035300Y0032343D02*
X0036510Y0032343D01*
X0057874Y0016895D02*
X0057874Y0018105D01*
X0060866Y0016895D02*
X0060866Y0018105D01*
X0062708Y0049941D02*
X0049126Y0049941D01*
X0062708Y0029783D02*
X0070385Y0029783D01*
X0062708Y0029783D02*
X0055031Y0029783D01*
X0062708Y0049941D02*
X0070385Y0049941D01*
X0041102Y0049508D02*
X0033622Y0049508D01*
X0035590Y0040374D02*
X0041102Y0040374D01*
X0050000Y0025946D02*
X0050000Y0024736D01*
X0052992Y0025946D02*
X0052992Y0024736D01*
X0056850Y0024916D02*
X0056850Y0025765D01*
X0054015Y0024916D02*
X0054015Y0025765D01*
X0050000Y0016895D02*
X0050000Y0018105D01*
X0052992Y0016895D02*
X0052992Y0018105D01*
X0063070Y0017925D02*
X0063070Y0017075D01*
X0065905Y0017925D02*
X0065905Y0017075D01*
X0042775Y0021783D02*
X0042775Y0020934D01*
X0039940Y0021783D02*
X0039940Y0020934D01*
X0043990Y0025374D02*
X0042780Y0025374D01*
X0043990Y0028366D02*
X0042780Y0028366D01*
X0074715Y0029075D02*
X0073866Y0029075D01*
X0074715Y0026240D02*
X0073866Y0026240D01*
X0030000Y0037992D02*
X0021003Y0037992D01*
X0021003Y0032205D02*
X0030000Y0032205D01*
X0021003Y0037992D02*
X0021003Y0032205D01*
X0047755Y0041879D02*
X0047755Y0042728D01*
X0044921Y0041879D02*
X0044921Y0042728D01*
X0026904Y0042933D02*
X0025694Y0042933D01*
X0026904Y0039941D02*
X0025694Y0039941D01*
X0042780Y0032303D02*
X0043990Y0032303D01*
X0042780Y0029311D02*
X0043990Y0029311D01*
X0047677Y0021822D02*
X0047677Y0020612D01*
X0044685Y0021822D02*
X0044685Y0020612D01*
X0025542Y0031634D02*
X0024693Y0031634D01*
X0025542Y0028799D02*
X0024693Y0028799D01*
X0063070Y0024916D02*
X0063070Y0025765D01*
X0065905Y0024916D02*
X0065905Y0025765D01*
X0042603Y0014055D02*
X0043813Y0014055D01*
X0042603Y0017047D02*
X0043813Y0017047D01*
X0076522Y0017028D02*
X0076522Y0022539D01*
X0067389Y0022539D02*
X0067389Y0015059D01*
X0030534Y0015538D02*
X0027384Y0015538D01*
X0030534Y0027821D02*
X0023447Y0027821D01*
X0030534Y0015538D02*
X0033683Y0015538D01*
X0030534Y0027821D02*
X0033683Y0027821D01*
X0037134Y0035965D02*
X0037983Y0035965D01*
X0037134Y0038799D02*
X0037983Y0038799D01*
X0056850Y0017075D02*
X0056850Y0017925D01*
X0054015Y0017075D02*
X0054015Y0017925D01*
X0060866Y0024736D02*
X0060866Y0025946D01*
X0057874Y0024736D02*
X0057874Y0025946D01*
M02*
