G75*
G70*
%OFA0B0*%
%FSLAX25Y25*%
%IPPOS*%
%LPD*%
%AMOC8*
5,1,8,0,0,1.08239X$1,22.5*
%
%ADD10R,0.06693X0.06693*%
%ADD11O,0.06693X0.06693*%
%ADD12C,0.02362*%
%ADD13R,0.00984X0.24350*%
%ADD14R,0.00984X0.04390*%
%ADD15R,0.56201X0.00984*%
%ADD16R,0.59449X0.00984*%
%ADD17R,0.00984X0.20374*%
%ADD26C,0.00984*%
X0000000Y0000000D02*
%LPD*%
G01*
D10*
X0010000Y0032500D03*
D11*
X0010000Y0022500D03*
D12*
X0077677Y0039665D03*
X0077677Y0034941D03*
X0077677Y0044390D03*
X0077677Y0049114D03*
D13*
X0020000Y0038612D03*
D14*
X0020000Y0014793D03*
D15*
X0047608Y0050295D03*
D16*
X0049232Y0013091D03*
D17*
X0078465Y0022785D03*
D12*
X0020886Y0023681D03*
X0020886Y0019744D03*
D10*
X0090000Y0012500D03*
D11*
X0090000Y0022500D03*
X0090000Y0032500D03*
X0090000Y0042500D03*
X0090000Y0052500D03*
X0019409Y0012500D02*
%LPD*%
G01*
D12*
X0077677Y0039665D03*
X0077677Y0034941D03*
X0077677Y0044390D03*
X0077677Y0049114D03*
D13*
X0020000Y0038612D03*
D14*
X0020000Y0014793D03*
D15*
X0047608Y0050295D03*
D16*
X0049232Y0013091D03*
D17*
X0078464Y0022785D03*
D12*
X0020885Y0023681D03*
X0020885Y0019744D03*
D12*
X0031066Y0031437D03*
X0037293Y0049407D03*
X0077834Y0013878D03*
X0021063Y0047657D03*
X0021279Y0039370D03*
X0054645Y0014075D03*
X0046298Y0038355D03*
X0028593Y0021701D03*
X0040934Y0034582D03*
X0036732Y0014075D03*
X0028502Y0014130D03*
X0058484Y0034055D03*
X0060654Y0026159D03*
X0020787Y0031201D03*
X0048149Y0033563D03*
X0077677Y0022835D03*
X0055334Y0029823D03*
X0067130Y0049198D03*
X0077578Y0018701D03*
X0033978Y0028558D03*
X0033682Y0015412D03*
X0051558Y0029352D03*
X0038174Y0021480D03*
X0028847Y0029491D03*
X0029330Y0047776D03*
X0075156Y0020385D03*
X0039709Y0044690D03*
X0038056Y0033939D03*
X0048944Y0019269D03*
X0070394Y0020474D03*
X0065175Y0046909D03*
X0032809Y0047496D03*
X0062224Y0047504D03*
X0061532Y0033759D03*
X0060867Y0040794D03*
X0049348Y0022773D03*
X0029353Y0038465D03*
X0043877Y0034346D03*
X0047622Y0030304D03*
X0048248Y0026378D03*
X0059665Y0031201D03*
X0067013Y0034211D03*
X0061301Y0015671D03*
X0048444Y0015551D03*
D26*
X0033267Y0035807D02*
X0026889Y0035807D01*
X0034960Y0037500D02*
X0033267Y0035807D01*
X0026889Y0035807D02*
X0026889Y0031449D01*
X0026889Y0039272D02*
X0026889Y0035807D01*
X0033682Y0016498D02*
X0033682Y0015412D01*
X0038937Y0018602D02*
X0035787Y0018602D01*
X0035787Y0018602D02*
X0033682Y0016498D01*
X0040748Y0020413D02*
X0038937Y0018602D01*
X0031066Y0031437D02*
X0034331Y0031437D01*
X0034331Y0031437D02*
X0040748Y0025020D01*
X0040748Y0025020D02*
X0040748Y0020413D01*
X0043954Y0037500D02*
X0034960Y0037500D01*
X0049107Y0035807D02*
X0049087Y0035827D01*
X0057034Y0035807D02*
X0049107Y0035807D01*
X0069056Y0036475D02*
X0057702Y0036475D01*
X0075034Y0020788D02*
X0075034Y0030497D01*
X0026889Y0031449D02*
X0028847Y0029491D01*
X0075034Y0030497D02*
X0069056Y0036475D01*
X0032401Y0044783D02*
X0026889Y0039272D01*
X0028847Y0026979D02*
X0028847Y0029491D01*
X0034346Y0021480D02*
X0028847Y0026979D01*
X0049087Y0035827D02*
X0045628Y0035827D01*
X0038174Y0021480D02*
X0034346Y0021480D01*
X0057702Y0036475D02*
X0057034Y0035807D01*
X0045628Y0035827D02*
X0043954Y0037500D01*
X0035201Y0041579D02*
X0045940Y0041579D01*
X0032086Y0038465D02*
X0035201Y0041579D01*
X0029353Y0038465D02*
X0032086Y0038465D01*
X0067503Y0019291D02*
X0069669Y0021457D01*
X0049626Y0019291D02*
X0067503Y0019291D01*
X0038056Y0030861D02*
X0049626Y0019291D01*
X0038056Y0033939D02*
X0038056Y0030861D01*
X0051558Y0029352D02*
X0051535Y0029375D01*
X0047165Y0044685D02*
X0048733Y0043117D01*
X0032421Y0044685D02*
X0047165Y0044685D01*
X0051535Y0029375D02*
X0051535Y0035728D01*
X0071680Y0043117D02*
X0077677Y0049114D01*
X0029330Y0047776D02*
X0032421Y0044685D01*
X0048733Y0043117D02*
X0071680Y0043117D01*
X0063246Y0044980D02*
X0065175Y0046909D01*
X0032809Y0047496D02*
X0033159Y0047146D01*
X0048149Y0047146D02*
X0050315Y0044980D01*
X0050315Y0044980D02*
X0063246Y0044980D01*
X0033159Y0047146D02*
X0048149Y0047146D01*
X0045940Y0041579D02*
X0046832Y0041579D01*
X0045940Y0041579D02*
X0046618Y0041579D01*
X0050243Y0038169D02*
X0071554Y0038169D01*
X0071554Y0038169D02*
X0077677Y0044291D01*
X0046832Y0041579D02*
X0050243Y0038169D01*
X0067013Y0034211D02*
X0064002Y0031201D01*
X0064002Y0031201D02*
X0059665Y0031201D01*
G36*
X0076160Y0050713D02*
G01*
X0076301Y0050518D01*
X0076301Y0050277D01*
X0076225Y0050142D01*
X0076172Y0050081D01*
X0075960Y0049618D01*
X0075960Y0049618D01*
X0075888Y0049114D01*
X0075888Y0049114D01*
X0075893Y0049081D01*
X0075852Y0048843D01*
X0075783Y0048750D01*
X0071346Y0044313D01*
X0071131Y0044204D01*
X0071070Y0044199D01*
X0064935Y0044199D01*
X0064706Y0044273D01*
X0064565Y0044468D01*
X0064565Y0044709D01*
X0064660Y0044864D01*
X0064820Y0045024D01*
X0065034Y0045133D01*
X0065095Y0045138D01*
X0065429Y0045138D01*
X0065429Y0045138D01*
X0065918Y0045282D01*
X0066346Y0045557D01*
X0066680Y0045942D01*
X0066891Y0046405D01*
X0066894Y0046424D01*
X0066964Y0046909D01*
X0066964Y0046909D01*
X0066891Y0047413D01*
X0066891Y0047413D01*
X0066891Y0047413D01*
X0066680Y0047876D01*
X0066346Y0048261D01*
X0066217Y0048344D01*
X0065918Y0048536D01*
X0065429Y0048679D01*
X0065429Y0048679D01*
X0064920Y0048679D01*
X0064920Y0048679D01*
X0064432Y0048536D01*
X0064228Y0048405D01*
X0063995Y0048344D01*
X0063771Y0048431D01*
X0063723Y0048477D01*
X0063395Y0048855D01*
X0062967Y0049131D01*
X0062479Y0049274D01*
X0062479Y0049274D01*
X0061969Y0049274D01*
X0061969Y0049274D01*
X0061481Y0049131D01*
X0061481Y0049131D01*
X0061053Y0048855D01*
X0061053Y0048855D01*
X0061053Y0048855D01*
X0060776Y0048536D01*
X0060719Y0048471D01*
X0060508Y0048007D01*
X0060508Y0048007D01*
X0060435Y0047504D01*
X0060435Y0047504D01*
X0060508Y0047000D01*
X0060508Y0047000D01*
X0060508Y0047000D01*
X0060508Y0047000D01*
X0060549Y0046909D01*
X0060684Y0046613D01*
X0060712Y0046374D01*
X0060593Y0046164D01*
X0060374Y0046064D01*
X0060330Y0046062D01*
X0050924Y0046062D01*
X0050695Y0046136D01*
X0050648Y0046176D01*
X0049016Y0047808D01*
X0048968Y0047867D01*
X0048929Y0047925D01*
X0048571Y0048164D01*
X0048571Y0048164D01*
X0048571Y0048164D01*
X0048460Y0048187D01*
X0048404Y0048198D01*
X0048149Y0048248D01*
X0048149Y0048248D01*
X0048080Y0048235D01*
X0048004Y0048227D01*
X0034672Y0048227D01*
X0034443Y0048302D01*
X0034330Y0048440D01*
X0034329Y0048439D01*
X0034324Y0048447D01*
X0034317Y0048455D01*
X0034314Y0048463D01*
X0034314Y0048463D01*
X0033980Y0048847D01*
X0033552Y0049123D01*
X0033525Y0049131D01*
X0033063Y0049266D01*
X0033063Y0049266D01*
X0032554Y0049266D01*
X0032554Y0049266D01*
X0032066Y0049123D01*
X0032066Y0049123D01*
X0031638Y0048847D01*
X0031478Y0048663D01*
X0031272Y0048539D01*
X0031032Y0048559D01*
X0030849Y0048717D01*
X0030840Y0048734D01*
X0030835Y0048743D01*
X0030835Y0048743D01*
X0030835Y0048743D01*
X0030502Y0049127D01*
X0030073Y0049403D01*
X0029585Y0049546D01*
X0029585Y0049546D01*
X0029076Y0049546D01*
X0029076Y0049546D01*
X0028587Y0049403D01*
X0028587Y0049403D01*
X0028159Y0049127D01*
X0028159Y0049127D01*
X0028159Y0049127D01*
X0028147Y0049114D01*
X0027826Y0048743D01*
X0027614Y0048280D01*
X0027614Y0048280D01*
X0027542Y0047776D01*
X0027542Y0047776D01*
X0027614Y0047272D01*
X0027614Y0047272D01*
X0027614Y0047272D01*
X0027614Y0047272D01*
X0027826Y0046809D01*
X0028159Y0046424D01*
X0028587Y0046149D01*
X0029076Y0046005D01*
X0029410Y0046005D01*
X0029639Y0045931D01*
X0029685Y0045891D01*
X0030557Y0045020D01*
X0030666Y0044805D01*
X0030628Y0044567D01*
X0030557Y0044468D01*
X0026227Y0040139D01*
X0026168Y0040090D01*
X0026110Y0040051D01*
X0026035Y0039939D01*
X0025960Y0039827D01*
X0025939Y0039796D01*
X0025871Y0039694D01*
X0025871Y0039694D01*
X0025787Y0039272D01*
X0025800Y0039203D01*
X0025808Y0039127D01*
X0025808Y0035952D01*
X0025800Y0035876D01*
X0025787Y0035807D01*
X0025800Y0035738D01*
X0025808Y0035662D01*
X0025808Y0031594D01*
X0025800Y0031518D01*
X0025787Y0031449D01*
X0025795Y0031409D01*
X0025808Y0031343D01*
X0025871Y0031027D01*
X0026073Y0030724D01*
X0026110Y0030669D01*
X0026168Y0030630D01*
X0026227Y0030582D01*
X0026953Y0029856D01*
X0027063Y0029641D01*
X0027064Y0029525D01*
X0027059Y0029491D01*
X0027059Y0029491D01*
X0027131Y0028987D01*
X0027131Y0028987D01*
X0027131Y0028987D01*
X0027131Y0028987D01*
X0027343Y0028524D01*
X0027671Y0028145D01*
X0027765Y0027923D01*
X0027766Y0027890D01*
X0027766Y0027124D01*
X0027758Y0027048D01*
X0027745Y0026979D01*
X0027766Y0026872D01*
X0027829Y0026557D01*
X0027988Y0026319D01*
X0028068Y0026199D01*
X0028126Y0026160D01*
X0028185Y0026112D01*
X0033479Y0020818D01*
X0033527Y0020759D01*
X0033566Y0020701D01*
X0033847Y0020513D01*
X0033924Y0020462D01*
X0034346Y0020378D01*
X0034404Y0020389D01*
X0034415Y0020391D01*
X0034491Y0020399D01*
X0035317Y0020399D01*
X0035546Y0020324D01*
X0035688Y0020129D01*
X0035688Y0019889D01*
X0035546Y0019694D01*
X0035393Y0019627D01*
X0035365Y0019621D01*
X0035007Y0019382D01*
X0035007Y0019382D01*
X0034968Y0019324D01*
X0034920Y0019265D01*
X0033020Y0017365D01*
X0032961Y0017316D01*
X0032903Y0017277D01*
X0032903Y0017277D01*
X0032795Y0017116D01*
X0032743Y0017039D01*
X0032663Y0016920D01*
X0032663Y0016920D01*
X0032642Y0016888D01*
X0032630Y0016896D01*
X0032528Y0016775D01*
X0032511Y0016764D01*
X0032177Y0016379D01*
X0031966Y0015916D01*
X0031966Y0015916D01*
X0031894Y0015412D01*
X0031894Y0015412D01*
X0031966Y0014908D01*
X0031966Y0014908D01*
X0031966Y0014908D01*
X0031966Y0014908D01*
X0032177Y0014445D01*
X0032511Y0014060D01*
X0032939Y0013785D01*
X0033428Y0013641D01*
X0033428Y0013641D01*
X0033937Y0013641D01*
X0033937Y0013641D01*
X0034425Y0013785D01*
X0034854Y0014060D01*
X0035187Y0014445D01*
X0035398Y0014908D01*
X0035398Y0014908D01*
X0035471Y0015412D01*
X0035471Y0015412D01*
X0035398Y0015916D01*
X0035398Y0015916D01*
X0035398Y0015916D01*
X0035270Y0016197D01*
X0035242Y0016437D01*
X0035349Y0016635D01*
X0036121Y0017407D01*
X0036335Y0017516D01*
X0036396Y0017521D01*
X0038792Y0017521D01*
X0038868Y0017513D01*
X0038881Y0017511D01*
X0038937Y0017500D01*
X0039359Y0017584D01*
X0039384Y0017600D01*
X0039716Y0017823D01*
X0039755Y0017881D01*
X0039804Y0017940D01*
X0041410Y0019546D01*
X0041469Y0019595D01*
X0041527Y0019634D01*
X0041766Y0019991D01*
X0041829Y0020307D01*
X0041850Y0020413D01*
X0041841Y0020462D01*
X0041837Y0020482D01*
X0041829Y0020558D01*
X0041829Y0024617D01*
X0041904Y0024846D01*
X0042098Y0024988D01*
X0042339Y0024988D01*
X0042494Y0024893D01*
X0047158Y0020230D01*
X0047267Y0020015D01*
X0047237Y0019792D01*
X0047228Y0019773D01*
X0047228Y0019773D01*
X0047156Y0019269D01*
X0047156Y0019269D01*
X0047228Y0018765D01*
X0047228Y0018765D01*
X0047228Y0018765D01*
X0047228Y0018765D01*
X0047440Y0018302D01*
X0047773Y0017917D01*
X0047822Y0017886D01*
X0047974Y0017699D01*
X0047988Y0017459D01*
X0047858Y0017256D01*
X0047721Y0017184D01*
X0047701Y0017178D01*
X0047701Y0017178D01*
X0047273Y0016903D01*
X0047273Y0016903D01*
X0047273Y0016903D01*
X0047137Y0016745D01*
X0046940Y0016518D01*
X0046728Y0016055D01*
X0046728Y0016055D01*
X0046656Y0015551D01*
X0046656Y0015551D01*
X0046728Y0015047D01*
X0046728Y0015047D01*
X0046728Y0015047D01*
X0046728Y0015047D01*
X0046940Y0014584D01*
X0047273Y0014199D01*
X0047701Y0013924D01*
X0048190Y0013781D01*
X0048190Y0013781D01*
X0048699Y0013781D01*
X0048699Y0013781D01*
X0049187Y0013924D01*
X0049616Y0014199D01*
X0049949Y0014584D01*
X0050161Y0015047D01*
X0050178Y0015168D01*
X0050233Y0015551D01*
X0050233Y0015551D01*
X0050216Y0015671D01*
X0059512Y0015671D01*
X0059585Y0015168D01*
X0059585Y0015168D01*
X0059585Y0015168D01*
X0059585Y0015168D01*
X0059796Y0014704D01*
X0060129Y0014320D01*
X0060558Y0014044D01*
X0061046Y0013901D01*
X0061046Y0013901D01*
X0061555Y0013901D01*
X0061555Y0013901D01*
X0062044Y0014044D01*
X0062472Y0014320D01*
X0062805Y0014704D01*
X0063017Y0015168D01*
X0063017Y0015168D01*
X0063089Y0015671D01*
X0063089Y0015671D01*
X0063017Y0016175D01*
X0063017Y0016175D01*
X0063017Y0016175D01*
X0062805Y0016638D01*
X0062472Y0017023D01*
X0062222Y0017184D01*
X0062044Y0017298D01*
X0061541Y0017446D01*
X0061342Y0017582D01*
X0061307Y0017680D01*
X0061180Y0017505D01*
X0061060Y0017446D01*
X0060558Y0017298D01*
X0060558Y0017298D01*
X0060129Y0017023D01*
X0060129Y0017023D01*
X0060129Y0017023D01*
X0059982Y0016853D01*
X0059796Y0016638D01*
X0059585Y0016175D01*
X0059585Y0016175D01*
X0059512Y0015671D01*
X0059512Y0015671D01*
X0050216Y0015671D01*
X0050161Y0016055D01*
X0050161Y0016055D01*
X0050161Y0016055D01*
X0049949Y0016518D01*
X0049616Y0016903D01*
X0049567Y0016934D01*
X0049414Y0017121D01*
X0049401Y0017361D01*
X0049531Y0017564D01*
X0049668Y0017636D01*
X0049687Y0017642D01*
X0050116Y0017917D01*
X0050253Y0018075D01*
X0050459Y0018200D01*
X0050547Y0018210D01*
X0060951Y0018210D01*
X0061180Y0018135D01*
X0061306Y0017962D01*
X0061329Y0018040D01*
X0061520Y0018187D01*
X0061651Y0018210D01*
X0067358Y0018210D01*
X0067434Y0018202D01*
X0067448Y0018200D01*
X0067503Y0018189D01*
X0067925Y0018273D01*
X0068283Y0018512D01*
X0068322Y0018570D01*
X0068371Y0018629D01*
X0068782Y0019041D01*
X0068997Y0019150D01*
X0069235Y0019112D01*
X0069268Y0019093D01*
X0069651Y0018847D01*
X0069651Y0018847D01*
X0070140Y0018703D01*
X0070140Y0018703D01*
X0070649Y0018703D01*
X0070649Y0018703D01*
X0071137Y0018847D01*
X0071566Y0019122D01*
X0071899Y0019507D01*
X0072110Y0019970D01*
X0072120Y0020038D01*
X0072183Y0020474D01*
X0072183Y0020474D01*
X0072110Y0020978D01*
X0072110Y0020978D01*
X0072110Y0020978D01*
X0071899Y0021441D01*
X0071566Y0021826D01*
X0071545Y0021839D01*
X0071137Y0022101D01*
X0070649Y0022244D01*
X0070649Y0022244D01*
X0070555Y0022244D01*
X0070338Y0022310D01*
X0070091Y0022475D01*
X0070091Y0022475D01*
X0070091Y0022475D01*
X0069669Y0022559D01*
X0069669Y0022559D01*
X0069247Y0022475D01*
X0069247Y0022475D01*
X0068979Y0022297D01*
X0067170Y0020487D01*
X0066955Y0020378D01*
X0066894Y0020373D01*
X0050508Y0020373D01*
X0050279Y0020447D01*
X0050214Y0020507D01*
X0050203Y0020520D01*
X0050116Y0020621D01*
X0050116Y0020621D01*
X0050109Y0020629D01*
X0050015Y0020851D01*
X0050070Y0021085D01*
X0050193Y0021212D01*
X0050519Y0021422D01*
X0050852Y0021806D01*
X0051064Y0022270D01*
X0051092Y0022461D01*
X0051136Y0022773D01*
X0051136Y0022773D01*
X0051064Y0023277D01*
X0051064Y0023277D01*
X0051064Y0023277D01*
X0050852Y0023740D01*
X0050519Y0024125D01*
X0050091Y0024400D01*
X0049746Y0024502D01*
X0049705Y0024514D01*
X0049506Y0024650D01*
X0049425Y0024877D01*
X0049493Y0025108D01*
X0049520Y0025143D01*
X0049752Y0025411D01*
X0049964Y0025874D01*
X0050011Y0026199D01*
X0050036Y0026378D01*
X0050036Y0026378D01*
X0049964Y0026882D01*
X0049964Y0026882D01*
X0049964Y0026882D01*
X0049752Y0027345D01*
X0049419Y0027730D01*
X0048991Y0028005D01*
X0048991Y0028005D01*
X0048662Y0028101D01*
X0048463Y0028237D01*
X0048382Y0028464D01*
X0048450Y0028695D01*
X0048561Y0028803D01*
X0048793Y0028952D01*
X0049121Y0029330D01*
X0049327Y0029455D01*
X0049567Y0029434D01*
X0049749Y0029276D01*
X0049801Y0029131D01*
X0049842Y0028848D01*
X0049842Y0028848D01*
X0049842Y0028848D01*
X0049842Y0028848D01*
X0050053Y0028385D01*
X0050387Y0028000D01*
X0050815Y0027725D01*
X0051303Y0027581D01*
X0051303Y0027581D01*
X0051813Y0027581D01*
X0051813Y0027581D01*
X0052301Y0027725D01*
X0052729Y0028000D01*
X0053063Y0028385D01*
X0053274Y0028848D01*
X0053294Y0028987D01*
X0053347Y0029352D01*
X0053347Y0029352D01*
X0053274Y0029856D01*
X0053274Y0029856D01*
X0053274Y0029856D01*
X0053063Y0030319D01*
X0053063Y0030319D01*
X0053063Y0030319D01*
X0052712Y0030724D01*
X0052618Y0030946D01*
X0052616Y0030979D01*
X0052616Y0034336D01*
X0052691Y0034565D01*
X0052886Y0034707D01*
X0053006Y0034726D01*
X0056889Y0034726D01*
X0056965Y0034718D01*
X0056979Y0034715D01*
X0057034Y0034704D01*
X0057456Y0034788D01*
X0057519Y0034830D01*
X0057536Y0034842D01*
X0057633Y0034906D01*
X0057814Y0035027D01*
X0057853Y0035086D01*
X0057902Y0035145D01*
X0057961Y0035205D01*
X0058036Y0035279D01*
X0058250Y0035389D01*
X0058311Y0035393D01*
X0059753Y0035393D01*
X0059982Y0035319D01*
X0060123Y0035124D01*
X0060123Y0034883D01*
X0060047Y0034748D01*
X0060029Y0034727D01*
X0060028Y0034726D01*
X0059816Y0034263D01*
X0059816Y0034263D01*
X0059744Y0033759D01*
X0059744Y0033759D01*
X0059793Y0033416D01*
X0059752Y0033179D01*
X0059579Y0033011D01*
X0059437Y0032978D01*
X0059438Y0032975D01*
X0059410Y0032971D01*
X0058922Y0032828D01*
X0058922Y0032828D01*
X0058494Y0032553D01*
X0058494Y0032553D01*
X0058494Y0032553D01*
X0058397Y0032441D01*
X0058160Y0032168D01*
X0057949Y0031705D01*
X0057949Y0031705D01*
X0057876Y0031201D01*
X0057876Y0031201D01*
X0057949Y0030697D01*
X0057949Y0030697D01*
X0057949Y0030697D01*
X0057949Y0030697D01*
X0058160Y0030234D01*
X0058494Y0029849D01*
X0058922Y0029574D01*
X0059410Y0029430D01*
X0059410Y0029430D01*
X0059919Y0029430D01*
X0059919Y0029430D01*
X0060408Y0029574D01*
X0060836Y0029849D01*
X0060954Y0029985D01*
X0061160Y0030109D01*
X0061248Y0030119D01*
X0063857Y0030119D01*
X0063933Y0030112D01*
X0063947Y0030109D01*
X0064002Y0030098D01*
X0064424Y0030182D01*
X0064426Y0030183D01*
X0064429Y0030185D01*
X0064570Y0030279D01*
X0064782Y0030421D01*
X0064821Y0030479D01*
X0064870Y0030539D01*
X0066657Y0032326D01*
X0066872Y0032436D01*
X0066933Y0032441D01*
X0067267Y0032441D01*
X0067267Y0032441D01*
X0067756Y0032584D01*
X0068184Y0032859D01*
X0068517Y0033244D01*
X0068729Y0033707D01*
X0068729Y0033707D01*
X0068801Y0034211D01*
X0068801Y0034239D01*
X0068807Y0034239D01*
X0068843Y0034445D01*
X0069016Y0034613D01*
X0069254Y0034647D01*
X0069463Y0034538D01*
X0073839Y0030163D01*
X0073948Y0029948D01*
X0073953Y0029887D01*
X0073953Y0021846D01*
X0073878Y0021617D01*
X0073858Y0021591D01*
X0073651Y0021352D01*
X0073439Y0020889D01*
X0073439Y0020889D01*
X0073367Y0020385D01*
X0073367Y0020385D01*
X0073439Y0019881D01*
X0073439Y0019881D01*
X0073439Y0019881D01*
X0073439Y0019881D01*
X0073651Y0019418D01*
X0073984Y0019033D01*
X0074412Y0018758D01*
X0074901Y0018615D01*
X0074901Y0018615D01*
X0075410Y0018615D01*
X0075410Y0018615D01*
X0075899Y0018758D01*
X0076327Y0019033D01*
X0076660Y0019418D01*
X0076872Y0019881D01*
X0076872Y0019881D01*
X0076944Y0020385D01*
X0076944Y0020385D01*
X0076872Y0020889D01*
X0076872Y0020889D01*
X0076872Y0020889D01*
X0076660Y0021352D01*
X0076327Y0021737D01*
X0076327Y0021737D01*
X0076295Y0021758D01*
X0076142Y0021944D01*
X0076116Y0022085D01*
X0076116Y0030352D01*
X0076123Y0030428D01*
X0076125Y0030439D01*
X0076137Y0030497D01*
X0076053Y0030919D01*
X0076035Y0030946D01*
X0076013Y0030979D01*
X0075823Y0031263D01*
X0075814Y0031276D01*
X0075756Y0031315D01*
X0075697Y0031364D01*
X0070639Y0036422D01*
X0070530Y0036636D01*
X0070567Y0036874D01*
X0070738Y0037045D01*
X0070914Y0037087D01*
X0071409Y0037087D01*
X0071485Y0037080D01*
X0071498Y0037077D01*
X0071554Y0037066D01*
X0071976Y0037150D01*
X0072334Y0037389D01*
X0072373Y0037447D01*
X0072421Y0037506D01*
X0075280Y0040365D01*
X0075494Y0040474D01*
X0075732Y0040436D01*
X0075902Y0040266D01*
X0075941Y0040034D01*
X0075888Y0039665D01*
X0075888Y0039665D01*
X0075960Y0039161D01*
X0075960Y0039161D01*
X0075960Y0039161D01*
X0075960Y0039161D01*
X0076172Y0038698D01*
X0076400Y0038435D01*
X0076494Y0038213D01*
X0076496Y0038179D01*
X0076496Y0036427D01*
X0076421Y0036198D01*
X0076400Y0036172D01*
X0076172Y0035908D01*
X0075960Y0035445D01*
X0075960Y0035445D01*
X0075888Y0034941D01*
X0075888Y0034941D01*
X0075960Y0034437D01*
X0075960Y0034437D01*
X0075960Y0034437D01*
X0075960Y0034437D01*
X0076172Y0033974D01*
X0076505Y0033589D01*
X0076934Y0033314D01*
X0077422Y0033170D01*
X0077422Y0033170D01*
X0077931Y0033170D01*
X0077931Y0033170D01*
X0078420Y0033314D01*
X0078420Y0033314D01*
X0078447Y0033322D01*
X0078449Y0033312D01*
X0078644Y0033334D01*
X0078854Y0033216D01*
X0078954Y0032997D01*
X0078956Y0032952D01*
X0078956Y0012990D01*
X0078882Y0012761D01*
X0078687Y0012619D01*
X0078566Y0012600D01*
X0019899Y0012600D01*
X0019670Y0012675D01*
X0019528Y0012870D01*
X0019509Y0012990D01*
X0019509Y0016745D01*
X0019584Y0016974D01*
X0019779Y0017116D01*
X0019992Y0017124D01*
X0020551Y0016986D01*
X0020551Y0016986D01*
X0021220Y0016986D01*
X0021220Y0016986D01*
X0021871Y0017146D01*
X0022464Y0017458D01*
X0022965Y0017902D01*
X0023345Y0018453D01*
X0023583Y0019079D01*
X0023664Y0019744D01*
X0023663Y0019746D01*
X0023636Y0019970D01*
X0023583Y0020409D01*
X0023345Y0021035D01*
X0023031Y0021491D01*
X0022962Y0021722D01*
X0023031Y0021934D01*
X0023345Y0022390D01*
X0023583Y0023016D01*
X0023664Y0023681D01*
X0023583Y0024346D01*
X0023345Y0024972D01*
X0022965Y0025523D01*
X0022464Y0025967D01*
X0021871Y0026279D01*
X0021871Y0026279D01*
X0021871Y0026279D01*
X0021220Y0026439D01*
X0021220Y0026439D01*
X0020551Y0026439D01*
X0020551Y0026439D01*
X0019992Y0026301D01*
X0019752Y0026319D01*
X0019568Y0026474D01*
X0019509Y0026680D01*
X0019509Y0050398D01*
X0019584Y0050627D01*
X0019779Y0050768D01*
X0019899Y0050787D01*
X0075930Y0050787D01*
X0076160Y0050713D01*
G37*
G36*
X0042730Y0036344D02*
G01*
X0042871Y0036149D01*
X0042871Y0035908D01*
X0042730Y0035713D01*
X0042711Y0035701D01*
X0042706Y0035698D01*
X0042706Y0035698D01*
X0042706Y0035698D01*
X0042443Y0035393D01*
X0042373Y0035313D01*
X0042161Y0034850D01*
X0042161Y0034850D01*
X0042089Y0034346D01*
X0042089Y0034346D01*
X0042161Y0033842D01*
X0042161Y0033842D01*
X0042161Y0033842D01*
X0042161Y0033842D01*
X0042373Y0033379D01*
X0042706Y0032994D01*
X0043134Y0032719D01*
X0043623Y0032575D01*
X0043623Y0032575D01*
X0044132Y0032575D01*
X0044132Y0032575D01*
X0044621Y0032719D01*
X0045049Y0032994D01*
X0045382Y0033379D01*
X0045594Y0033842D01*
X0045594Y0033846D01*
X0045666Y0034346D01*
X0045666Y0034356D01*
X0045669Y0034363D01*
X0045670Y0034373D01*
X0045672Y0034373D01*
X0045741Y0034585D01*
X0045935Y0034726D01*
X0046056Y0034745D01*
X0048863Y0034745D01*
X0048939Y0034738D01*
X0049107Y0034704D01*
X0049164Y0034716D01*
X0049175Y0034718D01*
X0049251Y0034726D01*
X0050064Y0034726D01*
X0050293Y0034651D01*
X0050434Y0034456D01*
X0050453Y0034336D01*
X0050453Y0030926D01*
X0050379Y0030697D01*
X0050358Y0030671D01*
X0050059Y0030326D01*
X0049853Y0030201D01*
X0049613Y0030222D01*
X0049431Y0030380D01*
X0049379Y0030526D01*
X0049338Y0030808D01*
X0049338Y0030808D01*
X0049338Y0030808D01*
X0049127Y0031271D01*
X0048793Y0031656D01*
X0048718Y0031705D01*
X0048365Y0031931D01*
X0047877Y0032075D01*
X0047877Y0032075D01*
X0047367Y0032075D01*
X0047367Y0032075D01*
X0046879Y0031931D01*
X0046879Y0031931D01*
X0046451Y0031656D01*
X0046451Y0031656D01*
X0046451Y0031656D01*
X0046271Y0031449D01*
X0046117Y0031271D01*
X0045906Y0030808D01*
X0045906Y0030808D01*
X0045833Y0030304D01*
X0045833Y0030304D01*
X0045906Y0029800D01*
X0045906Y0029800D01*
X0045906Y0029800D01*
X0045906Y0029800D01*
X0046117Y0029337D01*
X0046451Y0028952D01*
X0046879Y0028677D01*
X0047207Y0028581D01*
X0047406Y0028445D01*
X0047487Y0028218D01*
X0047419Y0027987D01*
X0047308Y0027879D01*
X0047076Y0027730D01*
X0047076Y0027730D01*
X0047076Y0027730D01*
X0046948Y0027581D01*
X0046743Y0027345D01*
X0046531Y0026882D01*
X0046531Y0026882D01*
X0046459Y0026378D01*
X0046459Y0026378D01*
X0046531Y0025874D01*
X0046531Y0025874D01*
X0046531Y0025874D01*
X0046531Y0025874D01*
X0046743Y0025411D01*
X0047076Y0025026D01*
X0047505Y0024751D01*
X0047890Y0024638D01*
X0048089Y0024502D01*
X0048170Y0024275D01*
X0048102Y0024044D01*
X0048075Y0024008D01*
X0047843Y0023740D01*
X0047720Y0023470D01*
X0047557Y0023293D01*
X0047321Y0023245D01*
X0047102Y0023345D01*
X0047090Y0023357D01*
X0039252Y0031195D01*
X0039142Y0031409D01*
X0039138Y0031470D01*
X0039138Y0032338D01*
X0039212Y0032568D01*
X0039233Y0032594D01*
X0039561Y0032972D01*
X0039772Y0033435D01*
X0039772Y0033435D01*
X0039845Y0033939D01*
X0039845Y0033939D01*
X0039772Y0034443D01*
X0039772Y0034443D01*
X0039772Y0034443D01*
X0039561Y0034906D01*
X0039227Y0035291D01*
X0038799Y0035566D01*
X0038498Y0035655D01*
X0038299Y0035791D01*
X0038218Y0036018D01*
X0038286Y0036249D01*
X0038477Y0036396D01*
X0038608Y0036419D01*
X0042501Y0036419D01*
X0042730Y0036344D01*
G37*
G36*
X0046452Y0040423D02*
G01*
X0046498Y0040383D01*
X0049293Y0037589D01*
X0049402Y0037374D01*
X0049365Y0037136D01*
X0049194Y0036966D01*
X0049093Y0036931D01*
X0049018Y0036916D01*
X0048942Y0036908D01*
X0046237Y0036908D01*
X0046008Y0036983D01*
X0045961Y0037022D01*
X0044822Y0038162D01*
X0044773Y0038221D01*
X0044734Y0038280D01*
X0044734Y0038280D01*
X0044732Y0038281D01*
X0044376Y0038519D01*
X0044061Y0038581D01*
X0044023Y0038589D01*
X0043954Y0038603D01*
X0043954Y0038603D01*
X0043886Y0038589D01*
X0043809Y0038581D01*
X0035105Y0038581D01*
X0035029Y0038589D01*
X0034960Y0038603D01*
X0034854Y0038581D01*
X0034714Y0038554D01*
X0034475Y0038582D01*
X0034298Y0038746D01*
X0034251Y0038982D01*
X0034352Y0039201D01*
X0034363Y0039212D01*
X0035534Y0040383D01*
X0035749Y0040493D01*
X0035810Y0040498D01*
X0045834Y0040498D01*
X0046223Y0040498D01*
X0046452Y0040423D01*
G37*
M02*
