G75*
G70*
%OFA0B0*%
%FSLAX25Y25*%
%IPPOS*%
%LPD*%
%AMOC8*
5,1,8,0,0,1.08239X$1,22.5*
%
%ADD10R,0.06693X0.06693*%
%ADD11O,0.06693X0.06693*%
%ADD12C,0.02362*%
%ADD13R,0.00984X0.24350*%
%ADD14R,0.00984X0.04390*%
%ADD15R,0.56201X0.00984*%
%ADD16R,0.59449X0.00984*%
%ADD17R,0.00984X0.20374*%
%ADD18C,0.01969*%
%ADD24R,0.02559X0.01575*%
%ADD25R,0.01575X0.02559*%
%ADD26C,0.00984*%
X0000000Y0000000D02*
%LPD*%
G01*
D10*
X0010000Y0032500D03*
D11*
X0010000Y0022500D03*
D12*
X0077677Y0039665D03*
X0077677Y0034941D03*
X0077677Y0044390D03*
X0077677Y0049114D03*
D13*
X0020000Y0038612D03*
D14*
X0020000Y0014793D03*
D15*
X0047608Y0050295D03*
D16*
X0049232Y0013091D03*
D17*
X0078465Y0022785D03*
D12*
X0020886Y0023681D03*
X0020886Y0019744D03*
D10*
X0090000Y0012500D03*
D11*
X0090000Y0022500D03*
X0090000Y0032500D03*
X0090000Y0042500D03*
X0090000Y0052500D03*
D18*
X0077677Y0034823D02*
X0090000Y0022500D01*
X0077677Y0034941D02*
X0077677Y0034823D01*
X0020886Y0019744D02*
X0018130Y0022500D01*
X0018130Y0022500D02*
X0010000Y0022500D01*
X0020886Y0023681D02*
X0012067Y0032500D01*
X0012067Y0032500D02*
X0010000Y0032500D01*
X0077677Y0044390D02*
X0078110Y0044390D01*
X0078110Y0044390D02*
X0090000Y0032500D01*
X0083386Y0049114D02*
X0090000Y0042500D01*
X0077677Y0049114D02*
X0083386Y0049114D01*
G36*
X0097805Y0060452D02*
G01*
X0097985Y0060244D01*
X0098030Y0060041D01*
X0098030Y0002459D01*
X0097952Y0002195D01*
X0097744Y0002015D01*
X0097541Y0001970D01*
X0002459Y0001970D01*
X0002195Y0002048D01*
X0002015Y0002256D01*
X0001970Y0002459D01*
X0001970Y0022500D01*
X0004663Y0022500D01*
X0004744Y0021573D01*
X0004744Y0021573D01*
X0004985Y0020675D01*
X0004985Y0020675D01*
X0004985Y0020675D01*
X0005378Y0019831D01*
X0005378Y0019831D01*
X0005678Y0019402D01*
X0005911Y0019069D01*
X0006569Y0018411D01*
X0006858Y0018209D01*
X0007331Y0017878D01*
X0007331Y0017878D01*
X0007331Y0017878D01*
X0008175Y0017485D01*
X0009073Y0017244D01*
X0009815Y0017179D01*
X0010000Y0017163D01*
X0010000Y0017163D01*
X0010000Y0017163D01*
X0010154Y0017176D01*
X0010927Y0017244D01*
X0011825Y0017485D01*
X0012669Y0017878D01*
X0013431Y0018411D01*
X0014089Y0019069D01*
X0014276Y0019337D01*
X0014491Y0019509D01*
X0014676Y0019545D01*
X0016704Y0019545D01*
X0016968Y0019468D01*
X0017049Y0019402D01*
X0017920Y0018531D01*
X0018009Y0018389D01*
X0018016Y0018393D01*
X0018028Y0018368D01*
X0018028Y0018368D01*
X0018406Y0017767D01*
X0018908Y0017265D01*
X0018941Y0017244D01*
X0019510Y0016887D01*
X0019527Y0016878D01*
X0019731Y0016694D01*
X0019803Y0016439D01*
X0019803Y0013287D01*
X0078465Y0013287D01*
X0078465Y0028678D01*
X0078542Y0028942D01*
X0078750Y0029122D01*
X0079022Y0029161D01*
X0079272Y0029047D01*
X0079298Y0029023D01*
X0084595Y0023726D01*
X0084727Y0023485D01*
X0084736Y0023339D01*
X0084663Y0022500D01*
X0084663Y0022500D01*
X0084744Y0021573D01*
X0084744Y0021573D01*
X0084985Y0020675D01*
X0084985Y0020675D01*
X0084985Y0020675D01*
X0085378Y0019831D01*
X0085378Y0019831D01*
X0085678Y0019402D01*
X0085911Y0019069D01*
X0085911Y0019069D01*
X0086391Y0018589D01*
X0086523Y0018348D01*
X0086504Y0018073D01*
X0086339Y0017853D01*
X0086217Y0017787D01*
X0085699Y0017594D01*
X0085699Y0017594D01*
X0085246Y0017254D01*
X0085246Y0017254D01*
X0084906Y0016801D01*
X0084906Y0016801D01*
X0084708Y0016270D01*
X0084683Y0016035D01*
X0084683Y0016035D01*
X0084683Y0016035D01*
X0084683Y0008965D01*
X0084683Y0008965D01*
X0084708Y0008730D01*
X0084906Y0008199D01*
X0084906Y0008199D01*
X0085246Y0007746D01*
X0085246Y0007746D01*
X0085699Y0007406D01*
X0085699Y0007406D01*
X0086230Y0007208D01*
X0086230Y0007208D01*
X0086258Y0007205D01*
X0086465Y0007183D01*
X0093535Y0007183D01*
X0093770Y0007208D01*
X0094301Y0007406D01*
X0094754Y0007746D01*
X0095094Y0008199D01*
X0095292Y0008730D01*
X0095317Y0008965D01*
X0095317Y0016035D01*
X0095292Y0016270D01*
X0095094Y0016801D01*
X0095094Y0016801D01*
X0095094Y0016801D01*
X0094754Y0017254D01*
X0094754Y0017254D01*
X0094301Y0017594D01*
X0094301Y0017594D01*
X0093783Y0017787D01*
X0093563Y0017952D01*
X0093467Y0018209D01*
X0093525Y0018478D01*
X0093609Y0018589D01*
X0094089Y0019069D01*
X0094622Y0019831D01*
X0095015Y0020675D01*
X0095256Y0021573D01*
X0095337Y0022500D01*
X0095256Y0023427D01*
X0095015Y0024325D01*
X0094622Y0025169D01*
X0094422Y0025455D01*
X0094089Y0025931D01*
X0093431Y0026589D01*
X0093431Y0026589D01*
X0092700Y0027100D01*
X0092528Y0027315D01*
X0092500Y0027589D01*
X0092624Y0027834D01*
X0092700Y0027900D01*
X0092788Y0027961D01*
X0093431Y0028411D01*
X0094089Y0029069D01*
X0094622Y0029831D01*
X0095015Y0030675D01*
X0095256Y0031573D01*
X0095337Y0032500D01*
X0095256Y0033427D01*
X0095015Y0034325D01*
X0094622Y0035169D01*
X0094089Y0035931D01*
X0094089Y0035931D01*
X0093431Y0036589D01*
X0093431Y0036589D01*
X0092700Y0037100D01*
X0092528Y0037315D01*
X0092500Y0037589D01*
X0092624Y0037834D01*
X0092700Y0037900D01*
X0092816Y0037981D01*
X0093431Y0038411D01*
X0094089Y0039069D01*
X0094622Y0039831D01*
X0095015Y0040675D01*
X0095256Y0041573D01*
X0095337Y0042500D01*
X0095256Y0043427D01*
X0095015Y0044325D01*
X0094622Y0045169D01*
X0094343Y0045567D01*
X0094089Y0045931D01*
X0093431Y0046589D01*
X0093431Y0046589D01*
X0092698Y0047101D01*
X0092527Y0047316D01*
X0092498Y0047590D01*
X0092622Y0047835D01*
X0092698Y0047901D01*
X0093429Y0048413D01*
X0094087Y0049071D01*
X0094620Y0049832D01*
X0095014Y0050675D01*
X0095014Y0050675D01*
X0095239Y0051516D01*
X0091705Y0051516D01*
X0091834Y0051740D01*
X0091969Y0052241D01*
X0091969Y0052759D01*
X0091834Y0053260D01*
X0091705Y0053484D01*
X0095239Y0053484D01*
X0095239Y0053484D01*
X0095014Y0054325D01*
X0095014Y0054325D01*
X0094620Y0055168D01*
X0094620Y0055168D01*
X0094087Y0055929D01*
X0094087Y0055929D01*
X0093429Y0056587D01*
X0092668Y0057120D01*
X0091825Y0057514D01*
X0091825Y0057514D01*
X0090984Y0057739D01*
X0090984Y0054205D01*
X0090760Y0054334D01*
X0090259Y0054469D01*
X0089741Y0054469D01*
X0089240Y0054334D01*
X0089016Y0054205D01*
X0089016Y0057739D01*
X0089016Y0057739D01*
X0088175Y0057514D01*
X0088175Y0057514D01*
X0087332Y0057120D01*
X0087332Y0057120D01*
X0086571Y0056587D01*
X0086571Y0056587D01*
X0085913Y0055929D01*
X0085913Y0055929D01*
X0085380Y0055168D01*
X0085380Y0055168D01*
X0084986Y0054325D01*
X0084986Y0054325D01*
X0084761Y0053484D01*
X0084761Y0053484D01*
X0088295Y0053484D01*
X0088166Y0053260D01*
X0088031Y0052759D01*
X0088031Y0052241D01*
X0088166Y0051740D01*
X0088295Y0051516D01*
X0085258Y0051516D01*
X0084994Y0051593D01*
X0084987Y0051598D01*
X0084979Y0051603D01*
X0084979Y0051603D01*
X0084785Y0051733D01*
X0084248Y0051955D01*
X0084248Y0051955D01*
X0083677Y0052069D01*
X0083677Y0052069D01*
X0078858Y0052069D01*
X0078697Y0052096D01*
X0078383Y0052206D01*
X0078383Y0052206D01*
X0077677Y0052286D01*
X0077677Y0052286D01*
X0076971Y0052206D01*
X0076971Y0052206D01*
X0076301Y0051972D01*
X0075700Y0051594D01*
X0075198Y0051092D01*
X0074841Y0050524D01*
X0074635Y0050341D01*
X0074427Y0050295D01*
X0019803Y0050295D01*
X0019803Y0030121D01*
X0019726Y0029857D01*
X0019518Y0029677D01*
X0019245Y0029638D01*
X0018995Y0029752D01*
X0018970Y0029776D01*
X0015460Y0033286D01*
X0015328Y0033527D01*
X0015317Y0033631D01*
X0015317Y0036035D01*
X0015317Y0036035D01*
X0015317Y0036035D01*
X0015292Y0036270D01*
X0015274Y0036317D01*
X0015094Y0036801D01*
X0015094Y0036801D01*
X0014754Y0037254D01*
X0014754Y0037254D01*
X0014301Y0037594D01*
X0014301Y0037594D01*
X0013770Y0037792D01*
X0013770Y0037792D01*
X0013535Y0037817D01*
X0013535Y0037817D01*
X0013535Y0037817D01*
X0013535Y0037817D01*
X0006465Y0037817D01*
X0006465Y0037817D01*
X0006230Y0037792D01*
X0005699Y0037594D01*
X0005699Y0037594D01*
X0005246Y0037254D01*
X0005246Y0037254D01*
X0004906Y0036801D01*
X0004906Y0036801D01*
X0004708Y0036270D01*
X0004696Y0036156D01*
X0004683Y0036035D01*
X0004683Y0036035D01*
X0004683Y0028965D01*
X0004683Y0028965D01*
X0004708Y0028730D01*
X0004906Y0028199D01*
X0004906Y0028199D01*
X0005246Y0027746D01*
X0005246Y0027746D01*
X0005699Y0027406D01*
X0005699Y0027406D01*
X0006217Y0027213D01*
X0006437Y0027048D01*
X0006533Y0026791D01*
X0006475Y0026522D01*
X0006391Y0026411D01*
X0005911Y0025931D01*
X0005378Y0025169D01*
X0005378Y0025169D01*
X0004985Y0024325D01*
X0004985Y0024325D01*
X0004744Y0023427D01*
X0004744Y0023427D01*
X0004663Y0022500D01*
X0004663Y0022500D01*
X0001970Y0022500D01*
X0001970Y0060041D01*
X0002048Y0060305D01*
X0002256Y0060485D01*
X0002459Y0060530D01*
X0097541Y0060530D01*
X0097805Y0060452D01*
G37*
G36*
X0082224Y0046082D02*
G01*
X0082305Y0046016D01*
X0084595Y0043726D01*
X0084727Y0043485D01*
X0084736Y0043339D01*
X0084715Y0043098D01*
X0084615Y0042842D01*
X0084392Y0042680D01*
X0084117Y0042665D01*
X0083884Y0042795D01*
X0081353Y0045326D01*
X0081221Y0045567D01*
X0081240Y0045842D01*
X0081405Y0046062D01*
X0081663Y0046158D01*
X0081698Y0046159D01*
X0081960Y0046159D01*
X0082224Y0046082D01*
G37*
G36*
X0081092Y0037228D02*
G01*
X0081113Y0037208D01*
X0084595Y0033726D01*
X0084727Y0033485D01*
X0084736Y0033339D01*
X0084715Y0033098D01*
X0084615Y0032842D01*
X0084392Y0032680D01*
X0084117Y0032665D01*
X0083884Y0032795D01*
X0080707Y0035972D01*
X0080591Y0036156D01*
X0080535Y0036317D01*
X0080355Y0036603D01*
X0080280Y0036868D01*
X0080360Y0037131D01*
X0080570Y0037309D01*
X0080843Y0037345D01*
X0081092Y0037228D01*
G37*
X0019409Y0012500D02*
%LPD*%
G01*
D12*
X0077677Y0039665D03*
X0077677Y0034941D03*
X0077677Y0044390D03*
X0077677Y0049114D03*
D13*
X0020000Y0038612D03*
D14*
X0020000Y0014793D03*
D15*
X0047608Y0050295D03*
D16*
X0049232Y0013091D03*
D17*
X0078464Y0022785D03*
D12*
X0020885Y0023681D03*
X0020885Y0019744D03*
G36*
G01*
X0036850Y0030118D02*
X0036850Y0031575D01*
G75*
G02*
X0037381Y0032106I0000531J0000000D01*
G01*
X0038444Y0032106D01*
G75*
G02*
X0038976Y0031575I0000000J-000531D01*
G01*
X0038976Y0030118D01*
G75*
G02*
X0038444Y0029587I-000531J0000000D01*
G01*
X0037381Y0029587D01*
G75*
G02*
X0036850Y0030118I0000000J0000531D01*
G01*
G37*
G36*
G01*
X0032834Y0030118D02*
X0032834Y0031575D01*
G75*
G02*
X0033366Y0032106I0000531J0000000D01*
G01*
X0034429Y0032106D01*
G75*
G02*
X0034960Y0031575I0000000J-000531D01*
G01*
X0034960Y0030118D01*
G75*
G02*
X0034429Y0029587I-000531J0000000D01*
G01*
X0033366Y0029587D01*
G75*
G02*
X0032834Y0030118I0000000J0000531D01*
G01*
G37*
G36*
G01*
X0060098Y0014429D02*
X0058641Y0014429D01*
G75*
G02*
X0058110Y0014961I0000000J0000531D01*
G01*
X0058110Y0016024D01*
G75*
G02*
X0058641Y0016555I0000531J0000000D01*
G01*
X0060098Y0016555D01*
G75*
G02*
X0060629Y0016024I0000000J-000531D01*
G01*
X0060629Y0014961D01*
G75*
G02*
X0060098Y0014429I-000531J0000000D01*
G01*
G37*
G36*
G01*
X0060098Y0018445D02*
X0058641Y0018445D01*
G75*
G02*
X0058110Y0018976I0000000J0000531D01*
G01*
X0058110Y0020039D01*
G75*
G02*
X0058641Y0020571I0000531J0000000D01*
G01*
X0060098Y0020571D01*
G75*
G02*
X0060629Y0020039I0000000J-000531D01*
G01*
X0060629Y0018976D01*
G75*
G02*
X0060098Y0018445I-000531J0000000D01*
G01*
G37*
G36*
G01*
X0049126Y0046772D02*
X0049126Y0047953D01*
G75*
G02*
X0049716Y0048543I0000591J0000000D01*
G01*
X0056212Y0048543D01*
G75*
G02*
X0056803Y0047953I0000000J-000591D01*
G01*
X0056803Y0046772D01*
G75*
G02*
X0056212Y0046181I-000591J0000000D01*
G01*
X0049716Y0046181D01*
G75*
G02*
X0049126Y0046772I0000000J0000591D01*
G01*
G37*
G36*
G01*
X0049126Y0041772D02*
X0049126Y0042953D01*
G75*
G02*
X0049716Y0043543I0000591J0000000D01*
G01*
X0056212Y0043543D01*
G75*
G02*
X0056803Y0042953I0000000J-000591D01*
G01*
X0056803Y0041772D01*
G75*
G02*
X0056212Y0041181I-000591J0000000D01*
G01*
X0049716Y0041181D01*
G75*
G02*
X0049126Y0041772I0000000J0000591D01*
G01*
G37*
G36*
G01*
X0049126Y0036772D02*
X0049126Y0037953D01*
G75*
G02*
X0049716Y0038543I0000591J0000000D01*
G01*
X0056212Y0038543D01*
G75*
G02*
X0056803Y0037953I0000000J-000591D01*
G01*
X0056803Y0036772D01*
G75*
G02*
X0056212Y0036181I-000591J0000000D01*
G01*
X0049716Y0036181D01*
G75*
G02*
X0049126Y0036772I0000000J0000591D01*
G01*
G37*
G36*
G01*
X0049126Y0031772D02*
X0049126Y0032953D01*
G75*
G02*
X0049716Y0033543I0000591J0000000D01*
G01*
X0056212Y0033543D01*
G75*
G02*
X0056803Y0032953I0000000J-000591D01*
G01*
X0056803Y0031772D01*
G75*
G02*
X0056212Y0031181I-000591J0000000D01*
G01*
X0049716Y0031181D01*
G75*
G02*
X0049126Y0031772I0000000J0000591D01*
G01*
G37*
G36*
G01*
X0068614Y0031772D02*
X0068614Y0032953D01*
G75*
G02*
X0069204Y0033543I0000591J0000000D01*
G01*
X0075700Y0033543D01*
G75*
G02*
X0076291Y0032953I0000000J-000591D01*
G01*
X0076291Y0031772D01*
G75*
G02*
X0075700Y0031181I-000591J0000000D01*
G01*
X0069204Y0031181D01*
G75*
G02*
X0068614Y0031772I0000000J0000591D01*
G01*
G37*
G36*
G01*
X0068614Y0036772D02*
X0068614Y0037953D01*
G75*
G02*
X0069204Y0038543I0000591J0000000D01*
G01*
X0075700Y0038543D01*
G75*
G02*
X0076291Y0037953I0000000J-000591D01*
G01*
X0076291Y0036772D01*
G75*
G02*
X0075700Y0036181I-000591J0000000D01*
G01*
X0069204Y0036181D01*
G75*
G02*
X0068614Y0036772I0000000J0000591D01*
G01*
G37*
G36*
G01*
X0068614Y0041772D02*
X0068614Y0042953D01*
G75*
G02*
X0069204Y0043543I0000591J0000000D01*
G01*
X0075700Y0043543D01*
G75*
G02*
X0076291Y0042953I0000000J-000591D01*
G01*
X0076291Y0041772D01*
G75*
G02*
X0075700Y0041181I-000591J0000000D01*
G01*
X0069204Y0041181D01*
G75*
G02*
X0068614Y0041772I0000000J0000591D01*
G01*
G37*
G36*
G01*
X0068614Y0046772D02*
X0068614Y0047953D01*
G75*
G02*
X0069204Y0048543I0000591J0000000D01*
G01*
X0075700Y0048543D01*
G75*
G02*
X0076291Y0047953I0000000J-000591D01*
G01*
X0076291Y0046772D01*
G75*
G02*
X0075700Y0046181I-000591J0000000D01*
G01*
X0069204Y0046181D01*
G75*
G02*
X0068614Y0046772I0000000J0000591D01*
G01*
G37*
D24*
X0034606Y0047500D03*
X0034606Y0044941D03*
X0034606Y0042382D03*
X0042086Y0042382D03*
X0042086Y0044941D03*
X0042086Y0047500D03*
G36*
G01*
X0050767Y0028412D02*
X0052224Y0028412D01*
G75*
G02*
X0052755Y0027880I0000000J-000531D01*
G01*
X0052755Y0026817D01*
G75*
G02*
X0052224Y0026286I-000531J0000000D01*
G01*
X0050767Y0026286D01*
G75*
G02*
X0050236Y0026817I0000000J0000531D01*
G01*
X0050236Y0027880D01*
G75*
G02*
X0050767Y0028412I0000531J0000000D01*
G01*
G37*
G36*
G01*
X0050767Y0024396D02*
X0052224Y0024396D01*
G75*
G02*
X0052755Y0023865I0000000J-000531D01*
G01*
X0052755Y0022802D01*
G75*
G02*
X0052224Y0022270I-000531J0000000D01*
G01*
X0050767Y0022270D01*
G75*
G02*
X0050236Y0022802I0000000J0000531D01*
G01*
X0050236Y0023865D01*
G75*
G02*
X0050767Y0024396I0000531J0000000D01*
G01*
G37*
G36*
G01*
X0056102Y0022349D02*
X0054763Y0022349D01*
G75*
G02*
X0054212Y0022900I0000000J0000551D01*
G01*
X0054212Y0024002D01*
G75*
G02*
X0054763Y0024554I0000551J0000000D01*
G01*
X0056102Y0024554D01*
G75*
G02*
X0056653Y0024002I0000000J-000551D01*
G01*
X0056653Y0022900D01*
G75*
G02*
X0056102Y0022349I-000551J0000000D01*
G01*
G37*
G36*
G01*
X0056102Y0026128D02*
X0054763Y0026128D01*
G75*
G02*
X0054212Y0026680I0000000J0000551D01*
G01*
X0054212Y0027782D01*
G75*
G02*
X0054763Y0028333I0000551J0000000D01*
G01*
X0056102Y0028333D01*
G75*
G02*
X0056653Y0027782I0000000J-000551D01*
G01*
X0056653Y0026680D01*
G75*
G02*
X0056102Y0026128I-000551J0000000D01*
G01*
G37*
G36*
G01*
X0052224Y0014429D02*
X0050767Y0014429D01*
G75*
G02*
X0050236Y0014961I0000000J0000531D01*
G01*
X0050236Y0016024D01*
G75*
G02*
X0050767Y0016555I0000531J0000000D01*
G01*
X0052224Y0016555D01*
G75*
G02*
X0052755Y0016024I0000000J-000531D01*
G01*
X0052755Y0014961D01*
G75*
G02*
X0052224Y0014429I-000531J0000000D01*
G01*
G37*
G36*
G01*
X0052224Y0018445D02*
X0050767Y0018445D01*
G75*
G02*
X0050236Y0018976I0000000J0000531D01*
G01*
X0050236Y0020039D01*
G75*
G02*
X0050767Y0020571I0000531J0000000D01*
G01*
X0052224Y0020571D01*
G75*
G02*
X0052755Y0020039I0000000J-000531D01*
G01*
X0052755Y0018976D01*
G75*
G02*
X0052224Y0018445I-000531J0000000D01*
G01*
G37*
G36*
G01*
X0063818Y0020492D02*
X0065157Y0020492D01*
G75*
G02*
X0065708Y0019941I0000000J-000551D01*
G01*
X0065708Y0018839D01*
G75*
G02*
X0065157Y0018287I-000551J0000000D01*
G01*
X0063818Y0018287D01*
G75*
G02*
X0063267Y0018839I0000000J0000551D01*
G01*
X0063267Y0019941D01*
G75*
G02*
X0063818Y0020492I0000551J0000000D01*
G01*
G37*
G36*
G01*
X0063818Y0016713D02*
X0065157Y0016713D01*
G75*
G02*
X0065708Y0016161I0000000J-000551D01*
G01*
X0065708Y0015059D01*
G75*
G02*
X0065157Y0014508I-000551J0000000D01*
G01*
X0063818Y0014508D01*
G75*
G02*
X0063267Y0015059I0000000J0000551D01*
G01*
X0063267Y0016161D01*
G75*
G02*
X0063818Y0016713I0000551J0000000D01*
G01*
G37*
G36*
G01*
X0040689Y0024350D02*
X0042027Y0024350D01*
G75*
G02*
X0042578Y0023799I0000000J-000551D01*
G01*
X0042578Y0022697D01*
G75*
G02*
X0042027Y0022146I-000551J0000000D01*
G01*
X0040689Y0022146D01*
G75*
G02*
X0040137Y0022697I0000000J0000551D01*
G01*
X0040137Y0023799D01*
G75*
G02*
X0040689Y0024350I0000551J0000000D01*
G01*
G37*
G36*
G01*
X0040689Y0020571D02*
X0042027Y0020571D01*
G75*
G02*
X0042578Y0020020I0000000J-000551D01*
G01*
X0042578Y0018917D01*
G75*
G02*
X0042027Y0018366I-000551J0000000D01*
G01*
X0040689Y0018366D01*
G75*
G02*
X0040137Y0018917I0000000J0000551D01*
G01*
X0040137Y0020020D01*
G75*
G02*
X0040689Y0020571I0000551J0000000D01*
G01*
G37*
G36*
G01*
X0046456Y0027598D02*
X0046456Y0026142D01*
G75*
G02*
X0045925Y0025610I-000531J0000000D01*
G01*
X0044862Y0025610D01*
G75*
G02*
X0044330Y0026142I0000000J0000531D01*
G01*
X0044330Y0027598D01*
G75*
G02*
X0044862Y0028130I0000531J0000000D01*
G01*
X0045925Y0028130D01*
G75*
G02*
X0046456Y0027598I0000000J-000531D01*
G01*
G37*
G36*
G01*
X0042440Y0027598D02*
X0042440Y0026142D01*
G75*
G02*
X0041909Y0025610I-000531J0000000D01*
G01*
X0040846Y0025610D01*
G75*
G02*
X0040315Y0026142I0000000J0000531D01*
G01*
X0040315Y0027598D01*
G75*
G02*
X0040846Y0028130I0000531J0000000D01*
G01*
X0041909Y0028130D01*
G75*
G02*
X0042440Y0027598I0000000J-000531D01*
G01*
G37*
G36*
G01*
X0077283Y0028327D02*
X0077283Y0026988D01*
G75*
G02*
X0076732Y0026437I-000551J0000000D01*
G01*
X0075629Y0026437D01*
G75*
G02*
X0075078Y0026988I0000000J0000551D01*
G01*
X0075078Y0028327D01*
G75*
G02*
X0075629Y0028878I0000551J0000000D01*
G01*
X0076732Y0028878D01*
G75*
G02*
X0077283Y0028327I0000000J-000551D01*
G01*
G37*
G36*
G01*
X0073503Y0028327D02*
X0073503Y0026988D01*
G75*
G02*
X0072952Y0026437I-000551J0000000D01*
G01*
X0071850Y0026437D01*
G75*
G02*
X0071299Y0026988I0000000J0000551D01*
G01*
X0071299Y0028327D01*
G75*
G02*
X0071850Y0028878I0000551J0000000D01*
G01*
X0072952Y0028878D01*
G75*
G02*
X0073503Y0028327I0000000J-000551D01*
G01*
G37*
G36*
G01*
X0028228Y0034090D02*
X0028228Y0036107D01*
G75*
G02*
X0029089Y0036969I0000861J0000000D01*
G01*
X0030812Y0036969D01*
G75*
G02*
X0031673Y0036107I0000000J-000861D01*
G01*
X0031673Y0034090D01*
G75*
G02*
X0030812Y0033228I-000861J0000000D01*
G01*
X0029089Y0033228D01*
G75*
G02*
X0028228Y0034090I0000000J0000861D01*
G01*
G37*
G36*
G01*
X0022027Y0034090D02*
X0022027Y0036107D01*
G75*
G02*
X0022888Y0036969I0000861J0000000D01*
G01*
X0024611Y0036969D01*
G75*
G02*
X0025472Y0036107I0000000J-000861D01*
G01*
X0025472Y0034090D01*
G75*
G02*
X0024611Y0033228I-000861J0000000D01*
G01*
X0022888Y0033228D01*
G75*
G02*
X0022027Y0034090I0000000J0000861D01*
G01*
G37*
G36*
G01*
X0047007Y0039311D02*
X0045669Y0039311D01*
G75*
G02*
X0045118Y0039862I0000000J0000551D01*
G01*
X0045118Y0040965D01*
G75*
G02*
X0045669Y0041516I0000551J0000000D01*
G01*
X0047007Y0041516D01*
G75*
G02*
X0047559Y0040965I0000000J-000551D01*
G01*
X0047559Y0039862D01*
G75*
G02*
X0047007Y0039311I-000551J0000000D01*
G01*
G37*
G36*
G01*
X0047007Y0043091D02*
X0045669Y0043091D01*
G75*
G02*
X0045118Y0043642I0000000J0000551D01*
G01*
X0045118Y0044744D01*
G75*
G02*
X0045669Y0045295I0000551J0000000D01*
G01*
X0047007Y0045295D01*
G75*
G02*
X0047559Y0044744I0000000J-000551D01*
G01*
X0047559Y0043642D01*
G75*
G02*
X0047007Y0043091I-000551J0000000D01*
G01*
G37*
G36*
G01*
X0029370Y0042165D02*
X0029370Y0040709D01*
G75*
G02*
X0028838Y0040177I-000531J0000000D01*
G01*
X0027775Y0040177D01*
G75*
G02*
X0027244Y0040709I0000000J0000531D01*
G01*
X0027244Y0042165D01*
G75*
G02*
X0027775Y0042697I0000531J0000000D01*
G01*
X0028838Y0042697D01*
G75*
G02*
X0029370Y0042165I0000000J-000531D01*
G01*
G37*
G36*
G01*
X0025354Y0042165D02*
X0025354Y0040709D01*
G75*
G02*
X0024822Y0040177I-000531J0000000D01*
G01*
X0023759Y0040177D01*
G75*
G02*
X0023228Y0040709I0000000J0000531D01*
G01*
X0023228Y0042165D01*
G75*
G02*
X0023759Y0042697I0000531J0000000D01*
G01*
X0024822Y0042697D01*
G75*
G02*
X0025354Y0042165I0000000J-000531D01*
G01*
G37*
G36*
G01*
X0040315Y0030079D02*
X0040315Y0031535D01*
G75*
G02*
X0040846Y0032067I0000531J0000000D01*
G01*
X0041909Y0032067D01*
G75*
G02*
X0042440Y0031535I0000000J-000531D01*
G01*
X0042440Y0030079D01*
G75*
G02*
X0041909Y0029547I-000531J0000000D01*
G01*
X0040846Y0029547D01*
G75*
G02*
X0040315Y0030079I0000000J0000531D01*
G01*
G37*
G36*
G01*
X0044330Y0030079D02*
X0044330Y0031535D01*
G75*
G02*
X0044862Y0032067I0000531J0000000D01*
G01*
X0045925Y0032067D01*
G75*
G02*
X0046456Y0031535I0000000J-000531D01*
G01*
X0046456Y0030079D01*
G75*
G02*
X0045925Y0029547I-000531J0000000D01*
G01*
X0044862Y0029547D01*
G75*
G02*
X0044330Y0030079I0000000J0000531D01*
G01*
G37*
G36*
G01*
X0045452Y0024288D02*
X0046909Y0024288D01*
G75*
G02*
X0047440Y0023757I0000000J-000531D01*
G01*
X0047440Y0022694D01*
G75*
G02*
X0046909Y0022162I-000531J0000000D01*
G01*
X0045452Y0022162D01*
G75*
G02*
X0044921Y0022694I0000000J0000531D01*
G01*
X0044921Y0023757D01*
G75*
G02*
X0045452Y0024288I0000531J0000000D01*
G01*
G37*
G36*
G01*
X0045452Y0020272D02*
X0046909Y0020272D01*
G75*
G02*
X0047440Y0019741I0000000J-000531D01*
G01*
X0047440Y0018678D01*
G75*
G02*
X0046909Y0018147I-000531J0000000D01*
G01*
X0045452Y0018147D01*
G75*
G02*
X0044921Y0018678I0000000J0000531D01*
G01*
X0044921Y0019741D01*
G75*
G02*
X0045452Y0020272I0000531J0000000D01*
G01*
G37*
G36*
G01*
X0028110Y0030886D02*
X0028110Y0029547D01*
G75*
G02*
X0027559Y0028996I-000551J0000000D01*
G01*
X0026456Y0028996D01*
G75*
G02*
X0025905Y0029547I0000000J0000551D01*
G01*
X0025905Y0030886D01*
G75*
G02*
X0026456Y0031437I0000551J0000000D01*
G01*
X0027559Y0031437D01*
G75*
G02*
X0028110Y0030886I0000000J-000551D01*
G01*
G37*
G36*
G01*
X0024330Y0030886D02*
X0024330Y0029547D01*
G75*
G02*
X0023779Y0028996I-000551J0000000D01*
G01*
X0022677Y0028996D01*
G75*
G02*
X0022126Y0029547I0000000J0000551D01*
G01*
X0022126Y0030886D01*
G75*
G02*
X0022677Y0031437I0000551J0000000D01*
G01*
X0023779Y0031437D01*
G75*
G02*
X0024330Y0030886I0000000J-000551D01*
G01*
G37*
G36*
G01*
X0065157Y0022349D02*
X0063818Y0022349D01*
G75*
G02*
X0063267Y0022900I0000000J0000551D01*
G01*
X0063267Y0024002D01*
G75*
G02*
X0063818Y0024554I0000551J0000000D01*
G01*
X0065157Y0024554D01*
G75*
G02*
X0065708Y0024002I0000000J-000551D01*
G01*
X0065708Y0022900D01*
G75*
G02*
X0065157Y0022349I-000551J0000000D01*
G01*
G37*
G36*
G01*
X0065157Y0026128D02*
X0063818Y0026128D01*
G75*
G02*
X0063267Y0026680I0000000J0000551D01*
G01*
X0063267Y0027782D01*
G75*
G02*
X0063818Y0028333I0000551J0000000D01*
G01*
X0065157Y0028333D01*
G75*
G02*
X0065708Y0027782I0000000J-000551D01*
G01*
X0065708Y0026680D01*
G75*
G02*
X0065157Y0026128I-000551J0000000D01*
G01*
G37*
G36*
G01*
X0040137Y0014823D02*
X0040137Y0016280D01*
G75*
G02*
X0040669Y0016811I0000531J0000000D01*
G01*
X0041732Y0016811D01*
G75*
G02*
X0042263Y0016280I0000000J-000531D01*
G01*
X0042263Y0014823D01*
G75*
G02*
X0041732Y0014291I-000531J0000000D01*
G01*
X0040669Y0014291D01*
G75*
G02*
X0040137Y0014823I0000000J0000531D01*
G01*
G37*
G36*
G01*
X0044153Y0014823D02*
X0044153Y0016280D01*
G75*
G02*
X0044685Y0016811I0000531J0000000D01*
G01*
X0045748Y0016811D01*
G75*
G02*
X0046279Y0016280I0000000J-000531D01*
G01*
X0046279Y0014823D01*
G75*
G02*
X0045748Y0014291I-000531J0000000D01*
G01*
X0044685Y0014291D01*
G75*
G02*
X0044153Y0014823I0000000J0000531D01*
G01*
G37*
D25*
X0069396Y0016043D03*
X0071955Y0016043D03*
X0074514Y0016043D03*
X0074514Y0023524D03*
X0071955Y0023524D03*
X0069396Y0023524D03*
G36*
G01*
X0023447Y0024829D02*
X0023447Y0026010D01*
G75*
G02*
X0024038Y0026601I0000591J0000000D01*
G01*
X0028073Y0026601D01*
G75*
G02*
X0028664Y0026010I0000000J-000591D01*
G01*
X0028664Y0024829D01*
G75*
G02*
X0028073Y0024239I-000591J0000000D01*
G01*
X0024038Y0024239D01*
G75*
G02*
X0023447Y0024829I0000000J0000591D01*
G01*
G37*
G36*
G01*
X0023447Y0021089D02*
X0023447Y0022270D01*
G75*
G02*
X0024038Y0022861I0000591J0000000D01*
G01*
X0028073Y0022861D01*
G75*
G02*
X0028664Y0022270I0000000J-000591D01*
G01*
X0028664Y0021089D01*
G75*
G02*
X0028073Y0020498I-000591J0000000D01*
G01*
X0024038Y0020498D01*
G75*
G02*
X0023447Y0021089I0000000J0000591D01*
G01*
G37*
G36*
G01*
X0023447Y0017349D02*
X0023447Y0018530D01*
G75*
G02*
X0024038Y0019120I0000591J0000000D01*
G01*
X0028073Y0019120D01*
G75*
G02*
X0028664Y0018530I0000000J-000591D01*
G01*
X0028664Y0017349D01*
G75*
G02*
X0028073Y0016758I-000591J0000000D01*
G01*
X0024038Y0016758D01*
G75*
G02*
X0023447Y0017349I0000000J0000591D01*
G01*
G37*
G36*
G01*
X0032404Y0017349D02*
X0032404Y0018530D01*
G75*
G02*
X0032994Y0019120I0000591J0000000D01*
G01*
X0037030Y0019120D01*
G75*
G02*
X0037620Y0018530I0000000J-000591D01*
G01*
X0037620Y0017349D01*
G75*
G02*
X0037030Y0016758I-000591J0000000D01*
G01*
X0032994Y0016758D01*
G75*
G02*
X0032404Y0017349I0000000J0000591D01*
G01*
G37*
G36*
G01*
X0032404Y0021089D02*
X0032404Y0022270D01*
G75*
G02*
X0032994Y0022861I0000591J0000000D01*
G01*
X0037030Y0022861D01*
G75*
G02*
X0037620Y0022270I0000000J-000591D01*
G01*
X0037620Y0021089D01*
G75*
G02*
X0037030Y0020498I-000591J0000000D01*
G01*
X0032994Y0020498D01*
G75*
G02*
X0032404Y0021089I0000000J0000591D01*
G01*
G37*
G36*
G01*
X0032404Y0024829D02*
X0032404Y0026010D01*
G75*
G02*
X0032994Y0026601I0000591J0000000D01*
G01*
X0037030Y0026601D01*
G75*
G02*
X0037620Y0026010I0000000J-000591D01*
G01*
X0037620Y0024829D01*
G75*
G02*
X0037030Y0024239I-000591J0000000D01*
G01*
X0032994Y0024239D01*
G75*
G02*
X0032404Y0024829I0000000J0000591D01*
G01*
G37*
G36*
G01*
X0034566Y0036713D02*
X0034566Y0038051D01*
G75*
G02*
X0035118Y0038602I0000551J0000000D01*
G01*
X0036220Y0038602D01*
G75*
G02*
X0036771Y0038051I0000000J-000551D01*
G01*
X0036771Y0036713D01*
G75*
G02*
X0036220Y0036161I-000551J0000000D01*
G01*
X0035118Y0036161D01*
G75*
G02*
X0034566Y0036713I0000000J0000551D01*
G01*
G37*
G36*
G01*
X0038346Y0036713D02*
X0038346Y0038051D01*
G75*
G02*
X0038897Y0038602I0000551J0000000D01*
G01*
X0040000Y0038602D01*
G75*
G02*
X0040551Y0038051I0000000J-000551D01*
G01*
X0040551Y0036713D01*
G75*
G02*
X0040000Y0036161I-000551J0000000D01*
G01*
X0038897Y0036161D01*
G75*
G02*
X0038346Y0036713I0000000J0000551D01*
G01*
G37*
G36*
G01*
X0056102Y0014508D02*
X0054763Y0014508D01*
G75*
G02*
X0054212Y0015059I0000000J0000551D01*
G01*
X0054212Y0016161D01*
G75*
G02*
X0054763Y0016713I0000551J0000000D01*
G01*
X0056102Y0016713D01*
G75*
G02*
X0056653Y0016161I0000000J-000551D01*
G01*
X0056653Y0015059D01*
G75*
G02*
X0056102Y0014508I-000551J0000000D01*
G01*
G37*
G36*
G01*
X0056102Y0018287D02*
X0054763Y0018287D01*
G75*
G02*
X0054212Y0018839I0000000J0000551D01*
G01*
X0054212Y0019941D01*
G75*
G02*
X0054763Y0020492I0000551J0000000D01*
G01*
X0056102Y0020492D01*
G75*
G02*
X0056653Y0019941I0000000J-000551D01*
G01*
X0056653Y0018839D01*
G75*
G02*
X0056102Y0018287I-000551J0000000D01*
G01*
G37*
G36*
G01*
X0060098Y0022270D02*
X0058641Y0022270D01*
G75*
G02*
X0058110Y0022802I0000000J0000531D01*
G01*
X0058110Y0023865D01*
G75*
G02*
X0058641Y0024396I0000531J0000000D01*
G01*
X0060098Y0024396D01*
G75*
G02*
X0060629Y0023865I0000000J-000531D01*
G01*
X0060629Y0022802D01*
G75*
G02*
X0060098Y0022270I-000531J0000000D01*
G01*
G37*
G36*
G01*
X0060098Y0026286D02*
X0058641Y0026286D01*
G75*
G02*
X0058110Y0026817I0000000J0000531D01*
G01*
X0058110Y0027880D01*
G75*
G02*
X0058641Y0028412I0000531J0000000D01*
G01*
X0060098Y0028412D01*
G75*
G02*
X0060629Y0027880I0000000J-000531D01*
G01*
X0060629Y0026817D01*
G75*
G02*
X0060098Y0026286I-000531J0000000D01*
G01*
G37*
D12*
X0031066Y0031437D03*
X0037293Y0049407D03*
X0077834Y0013878D03*
X0021063Y0047657D03*
X0021279Y0039370D03*
X0054645Y0014075D03*
X0046298Y0038355D03*
X0028593Y0021701D03*
X0040934Y0034582D03*
X0036732Y0014075D03*
X0028502Y0014130D03*
X0058484Y0034055D03*
X0060654Y0026159D03*
X0020787Y0031201D03*
X0048149Y0033563D03*
X0077677Y0022835D03*
X0055334Y0029823D03*
X0067130Y0049198D03*
X0077578Y0018701D03*
X0033978Y0028558D03*
X0033682Y0015412D03*
X0051558Y0029352D03*
X0038174Y0021480D03*
X0028847Y0029491D03*
X0029330Y0047776D03*
X0075156Y0020385D03*
X0039709Y0044690D03*
X0038056Y0033939D03*
X0048944Y0019269D03*
X0070394Y0020474D03*
X0065175Y0046909D03*
X0032809Y0047496D03*
X0062224Y0047504D03*
X0061532Y0033759D03*
X0060867Y0040794D03*
X0049348Y0022773D03*
X0029353Y0038465D03*
X0043877Y0034346D03*
X0047622Y0030304D03*
X0048248Y0026378D03*
X0059665Y0031201D03*
X0067013Y0034211D03*
X0061301Y0015671D03*
X0048444Y0015551D03*
D26*
X0045393Y0030807D02*
X0047119Y0030807D01*
X0045216Y0030630D02*
X0045393Y0030807D01*
X0047119Y0030807D02*
X0047622Y0030304D01*
X0045216Y0026870D02*
X0045216Y0030630D01*
X0043877Y0033307D02*
X0043877Y0034346D01*
X0041378Y0030807D02*
X0043877Y0033307D01*
X0041358Y0026850D02*
X0041378Y0026870D01*
X0041358Y0025295D02*
X0041358Y0026850D01*
X0035472Y0033287D02*
X0037913Y0030846D01*
X0032781Y0033287D02*
X0035472Y0033287D01*
X0031066Y0031437D02*
X0031066Y0031573D01*
X0031066Y0031573D02*
X0032781Y0033287D01*
X0035669Y0041673D02*
X0034960Y0042382D01*
X0035669Y0037382D02*
X0035669Y0041673D01*
X0035669Y0036326D02*
X0035669Y0037382D01*
X0038056Y0033939D02*
X0035669Y0036326D01*
X0033978Y0030766D02*
X0033897Y0030846D01*
X0033978Y0028558D02*
X0033978Y0030766D01*
X0035207Y0027329D02*
X0035207Y0025493D01*
X0033978Y0028558D02*
X0035207Y0027329D01*
X0029353Y0035696D02*
X0029950Y0035098D01*
X0029353Y0038465D02*
X0029353Y0035696D01*
X0024291Y0035640D02*
X0023750Y0035098D01*
X0024291Y0041437D02*
X0024291Y0035640D01*
X0029950Y0035098D02*
X0030344Y0035098D01*
X0027007Y0030217D02*
X0028122Y0030217D01*
X0028122Y0030217D02*
X0028847Y0029491D01*
X0045487Y0034346D02*
X0043877Y0034346D01*
X0048444Y0037303D02*
X0045487Y0034346D01*
X0052905Y0037303D02*
X0048444Y0037303D01*
X0035403Y0025295D02*
X0026053Y0025295D01*
X0041358Y0023248D02*
X0041358Y0025295D01*
X0037126Y0025295D02*
X0041358Y0025295D01*
X0033682Y0015412D02*
X0033533Y0015561D01*
X0039706Y0019469D02*
X0041358Y0019469D01*
X0033533Y0015561D02*
X0033533Y0017815D01*
X0041358Y0019469D02*
X0041358Y0016004D01*
X0038053Y0017815D02*
X0039706Y0019469D01*
X0035009Y0017815D02*
X0038053Y0017815D01*
X0035009Y0017815D02*
X0026053Y0017815D01*
X0051558Y0029352D02*
X0051558Y0027490D01*
X0039960Y0044941D02*
X0042440Y0044941D01*
X0075925Y0047362D02*
X0077677Y0049114D01*
X0038099Y0021555D02*
X0035157Y0021555D01*
X0038174Y0021480D02*
X0038099Y0021555D01*
X0051558Y0027490D02*
X0051496Y0027428D01*
X0072452Y0047362D02*
X0075925Y0047362D01*
X0074970Y0020571D02*
X0073779Y0020571D01*
X0075156Y0020385D02*
X0074970Y0020571D01*
X0071955Y0022395D02*
X0071955Y0023524D01*
X0073779Y0020571D02*
X0071955Y0022395D01*
X0039709Y0044690D02*
X0039960Y0044941D01*
X0074453Y0017141D02*
X0074453Y0017067D01*
X0048897Y0019429D02*
X0055393Y0019429D01*
X0064488Y0023427D02*
X0064488Y0023451D01*
X0071120Y0020474D02*
X0074453Y0017141D01*
X0067205Y0020710D02*
X0064488Y0023427D01*
X0046181Y0019210D02*
X0048885Y0019210D01*
X0070394Y0020474D02*
X0070158Y0020710D01*
X0070394Y0020474D02*
X0071120Y0020474D01*
X0070158Y0020710D02*
X0067205Y0020710D01*
X0032809Y0047496D02*
X0032813Y0047500D01*
X0032813Y0047500D02*
X0034960Y0047500D01*
X0051114Y0047500D02*
X0051350Y0047736D01*
X0042440Y0047500D02*
X0051114Y0047500D01*
X0062188Y0047539D02*
X0052984Y0047539D01*
X0062224Y0047504D02*
X0062188Y0047539D01*
X0062298Y0042224D02*
X0072118Y0042224D01*
X0069396Y0023524D02*
X0069396Y0025123D01*
X0066889Y0027630D02*
X0066889Y0028402D01*
X0069396Y0025123D02*
X0066889Y0027630D01*
X0060867Y0040794D02*
X0062298Y0042224D01*
X0066889Y0028402D02*
X0061532Y0033759D01*
X0059566Y0019390D02*
X0059370Y0019587D01*
X0069335Y0017067D02*
X0067266Y0019135D01*
X0064488Y0019390D02*
X0059566Y0019390D01*
X0067266Y0019135D02*
X0064742Y0019135D01*
X0055684Y0023224D02*
X0055866Y0023406D01*
X0049348Y0022773D02*
X0049986Y0023412D01*
X0049986Y0023412D02*
X0059370Y0023412D01*
X0075255Y0037362D02*
X0077677Y0034941D01*
X0052964Y0037559D02*
X0072452Y0037559D01*
X0072452Y0037362D02*
X0075255Y0037362D01*
X0043720Y0020765D02*
X0046181Y0023225D01*
X0045216Y0015551D02*
X0043720Y0017047D01*
X0043720Y0017047D02*
X0043720Y0020765D01*
X0048248Y0025292D02*
X0046181Y0023225D01*
X0048248Y0026378D02*
X0048248Y0025292D01*
X0048503Y0015492D02*
X0051417Y0015492D01*
X0048444Y0015551D02*
X0048503Y0015492D01*
X0051417Y0015492D02*
X0051496Y0015413D01*
X0046338Y0044193D02*
X0046199Y0044193D01*
X0050039Y0042618D02*
X0052905Y0042618D01*
X0046199Y0044193D02*
X0044388Y0042382D01*
X0044388Y0042382D02*
X0042086Y0042382D01*
X0048464Y0044193D02*
X0050039Y0042618D01*
X0046338Y0044193D02*
X0048464Y0044193D01*
X0074527Y0025020D02*
X0072362Y0027185D01*
X0072362Y0027185D02*
X0072362Y0032205D01*
X0074527Y0023917D02*
X0074527Y0025020D01*
G36*
X0078854Y0033216D02*
G01*
X0078954Y0032997D01*
X0078956Y0032952D01*
X0078956Y0012990D01*
X0078882Y0012761D01*
X0078687Y0012619D01*
X0078566Y0012600D01*
X0019899Y0012600D01*
X0019670Y0012675D01*
X0019528Y0012870D01*
X0019509Y0012990D01*
X0019509Y0016745D01*
X0019584Y0016974D01*
X0019779Y0017116D01*
X0019992Y0017124D01*
X0020551Y0016986D01*
X0020551Y0016986D01*
X0021220Y0016986D01*
X0021220Y0016986D01*
X0021871Y0017146D01*
X0022301Y0017373D01*
X0022539Y0017413D01*
X0022755Y0017306D01*
X0022867Y0017093D01*
X0022869Y0017074D01*
X0022869Y0017074D01*
X0023047Y0016670D01*
X0023047Y0016670D01*
X0023047Y0016670D01*
X0023359Y0016359D01*
X0023359Y0016359D01*
X0023359Y0016359D01*
X0023672Y0016220D01*
X0023763Y0016180D01*
X0023862Y0016169D01*
X0028249Y0016169D01*
X0028348Y0016180D01*
X0028408Y0016207D01*
X0028752Y0016359D01*
X0028752Y0016359D01*
X0028752Y0016359D01*
X0028934Y0016541D01*
X0029012Y0016619D01*
X0029227Y0016729D01*
X0029288Y0016733D01*
X0031733Y0016733D01*
X0031962Y0016659D01*
X0032104Y0016464D01*
X0032104Y0016223D01*
X0032087Y0016182D01*
X0031966Y0015916D01*
X0031966Y0015916D01*
X0031894Y0015412D01*
X0031894Y0015412D01*
X0031966Y0014908D01*
X0031966Y0014908D01*
X0031966Y0014908D01*
X0031966Y0014908D01*
X0032177Y0014445D01*
X0032511Y0014060D01*
X0032939Y0013785D01*
X0033428Y0013641D01*
X0033428Y0013641D01*
X0033937Y0013641D01*
X0033937Y0013641D01*
X0034425Y0013785D01*
X0034854Y0014060D01*
X0035187Y0014445D01*
X0035398Y0014908D01*
X0035398Y0014908D01*
X0035471Y0015412D01*
X0035471Y0015412D01*
X0035426Y0015724D01*
X0035467Y0015961D01*
X0035640Y0016129D01*
X0035812Y0016169D01*
X0037206Y0016169D01*
X0037206Y0016169D01*
X0037305Y0016180D01*
X0037365Y0016207D01*
X0037708Y0016359D01*
X0037708Y0016359D01*
X0037708Y0016359D01*
X0037981Y0016631D01*
X0038180Y0016738D01*
X0038475Y0016796D01*
X0038635Y0016903D01*
X0038833Y0017035D01*
X0038872Y0017094D01*
X0038920Y0017153D01*
X0039073Y0017306D01*
X0039288Y0017415D01*
X0039526Y0017378D01*
X0039696Y0017207D01*
X0039734Y0016969D01*
X0039706Y0016873D01*
X0039616Y0016670D01*
X0039559Y0016541D01*
X0039548Y0016447D01*
X0039548Y0014655D01*
X0039559Y0014562D01*
X0039559Y0014562D01*
X0039559Y0014562D01*
X0039728Y0014178D01*
X0040024Y0013882D01*
X0040408Y0013713D01*
X0040501Y0013702D01*
X0040501Y0013702D01*
X0040501Y0013702D01*
X0041899Y0013702D01*
X0041899Y0013702D01*
X0041993Y0013713D01*
X0042376Y0013882D01*
X0042673Y0014178D01*
X0042842Y0014562D01*
X0042842Y0014562D01*
X0042852Y0014584D01*
X0043012Y0014764D01*
X0043248Y0014814D01*
X0043468Y0014717D01*
X0043565Y0014584D01*
X0043575Y0014562D01*
X0043575Y0014562D01*
X0043744Y0014178D01*
X0044040Y0013882D01*
X0044424Y0013713D01*
X0044517Y0013702D01*
X0044517Y0013702D01*
X0044517Y0013702D01*
X0045915Y0013702D01*
X0045915Y0013702D01*
X0046009Y0013713D01*
X0046392Y0013882D01*
X0046688Y0014178D01*
X0046688Y0014178D01*
X0046714Y0014204D01*
X0046725Y0014193D01*
X0046859Y0014297D01*
X0047100Y0014304D01*
X0047246Y0014211D01*
X0047252Y0014218D01*
X0047273Y0014199D01*
X0047273Y0014199D01*
X0047701Y0013924D01*
X0048190Y0013781D01*
X0048190Y0013781D01*
X0048699Y0013781D01*
X0048699Y0013781D01*
X0049187Y0013924D01*
X0049551Y0014158D01*
X0049784Y0014219D01*
X0050008Y0014132D01*
X0050037Y0014106D01*
X0050123Y0014020D01*
X0050506Y0013851D01*
X0050600Y0013840D01*
X0050600Y0013840D01*
X0050600Y0013840D01*
X0052391Y0013840D01*
X0052391Y0013840D01*
X0052485Y0013851D01*
X0052868Y0014020D01*
X0053113Y0014265D01*
X0053328Y0014374D01*
X0053566Y0014337D01*
X0053665Y0014265D01*
X0053984Y0013946D01*
X0054412Y0013746D01*
X0054412Y0013746D01*
X0054433Y0013743D01*
X0054433Y0013743D01*
X0054433Y0016220D01*
X0054507Y0016450D01*
X0054702Y0016591D01*
X0054822Y0016610D01*
X0056043Y0016610D01*
X0056272Y0016536D01*
X0056414Y0016341D01*
X0056433Y0016220D01*
X0056433Y0013743D01*
X0056433Y0013743D01*
X0056454Y0013746D01*
X0056882Y0013946D01*
X0057201Y0014265D01*
X0057415Y0014374D01*
X0057653Y0014337D01*
X0057752Y0014265D01*
X0057997Y0014020D01*
X0058380Y0013851D01*
X0058474Y0013840D01*
X0058474Y0013840D01*
X0058474Y0013840D01*
X0060265Y0013840D01*
X0060265Y0013840D01*
X0060359Y0013851D01*
X0060572Y0013944D01*
X0060811Y0013969D01*
X0060839Y0013962D01*
X0061046Y0013901D01*
X0061046Y0013901D01*
X0061555Y0013901D01*
X0061555Y0013901D01*
X0062044Y0014044D01*
X0062325Y0014225D01*
X0062558Y0014286D01*
X0062783Y0014199D01*
X0062811Y0014173D01*
X0063039Y0013946D01*
X0063467Y0013746D01*
X0063467Y0013746D01*
X0063488Y0013743D01*
X0063488Y0013743D01*
X0065488Y0013743D01*
X0065488Y0013743D01*
X0065509Y0013746D01*
X0065937Y0013946D01*
X0066270Y0014279D01*
X0066425Y0014610D01*
X0066425Y0014610D01*
X0065488Y0014610D01*
X0065488Y0014610D01*
X0065488Y0013743D01*
X0063488Y0013743D01*
X0063488Y0016220D01*
X0063562Y0016450D01*
X0063757Y0016591D01*
X0063878Y0016610D01*
X0066425Y0016610D01*
X0066425Y0016610D01*
X0066270Y0016941D01*
X0065937Y0017275D01*
X0065909Y0017294D01*
X0065913Y0017300D01*
X0065767Y0017436D01*
X0065721Y0017673D01*
X0065823Y0017891D01*
X0065832Y0017901D01*
X0065871Y0017940D01*
X0066086Y0018049D01*
X0066147Y0018054D01*
X0066656Y0018054D01*
X0066885Y0017979D01*
X0066932Y0017940D01*
X0067905Y0016966D01*
X0068015Y0016752D01*
X0068020Y0016691D01*
X0068020Y0014706D01*
X0068054Y0014534D01*
X0068054Y0014534D01*
X0068160Y0014374D01*
X0068184Y0014339D01*
X0068184Y0014339D01*
X0068379Y0014209D01*
X0068425Y0014199D01*
X0068551Y0014174D01*
X0068551Y0014174D01*
X0070242Y0014174D01*
X0070242Y0014174D01*
X0070385Y0014203D01*
X0070624Y0014175D01*
X0070677Y0014145D01*
X0070861Y0014022D01*
X0071090Y0013976D01*
X0071090Y0013976D01*
X0071168Y0013976D01*
X0071168Y0013976D01*
X0071168Y0016441D01*
X0071242Y0016670D01*
X0071437Y0016812D01*
X0071558Y0016831D01*
X0072353Y0016831D01*
X0072582Y0016756D01*
X0072724Y0016561D01*
X0072743Y0016441D01*
X0072743Y0013976D01*
X0072743Y0013976D01*
X0072820Y0013976D01*
X0072820Y0013976D01*
X0073050Y0014022D01*
X0073234Y0014145D01*
X0073465Y0014210D01*
X0073526Y0014203D01*
X0073669Y0014174D01*
X0073669Y0014174D01*
X0075360Y0014174D01*
X0075360Y0014174D01*
X0075532Y0014209D01*
X0075727Y0014339D01*
X0075857Y0014534D01*
X0075891Y0014706D01*
X0075891Y0017381D01*
X0075857Y0017553D01*
X0075857Y0017553D01*
X0075727Y0017748D01*
X0075727Y0017748D01*
X0075727Y0017748D01*
X0075532Y0017878D01*
X0075532Y0017878D01*
X0075519Y0017881D01*
X0075500Y0017891D01*
X0075496Y0017893D01*
X0075497Y0017893D01*
X0075309Y0017998D01*
X0075208Y0018217D01*
X0075255Y0018453D01*
X0075432Y0018617D01*
X0075485Y0018637D01*
X0075899Y0018758D01*
X0076327Y0019033D01*
X0076660Y0019418D01*
X0076872Y0019881D01*
X0076877Y0019920D01*
X0076944Y0020385D01*
X0076944Y0020385D01*
X0076872Y0020889D01*
X0076872Y0020889D01*
X0076872Y0020889D01*
X0076660Y0021352D01*
X0076327Y0021737D01*
X0076323Y0021740D01*
X0076070Y0021902D01*
X0075918Y0022088D01*
X0075891Y0022230D01*
X0075891Y0024861D01*
X0075891Y0024861D01*
X0075857Y0025033D01*
X0075857Y0025033D01*
X0075727Y0025228D01*
X0075727Y0025228D01*
X0075697Y0025248D01*
X0075554Y0025423D01*
X0075546Y0025442D01*
X0075546Y0025442D01*
X0075473Y0025550D01*
X0075360Y0025721D01*
X0077181Y0025721D01*
X0077181Y0025721D01*
X0077511Y0025875D01*
X0077845Y0026209D01*
X0078045Y0026636D01*
X0078048Y0026657D01*
X0078048Y0026657D01*
X0077181Y0026657D01*
X0077181Y0026657D01*
X0077181Y0025721D01*
X0075360Y0025721D01*
X0075307Y0025799D01*
X0075307Y0025799D01*
X0075295Y0025811D01*
X0075185Y0026026D01*
X0075181Y0026087D01*
X0075181Y0029594D01*
X0077181Y0029594D01*
X0077181Y0028657D01*
X0077181Y0028657D01*
X0078048Y0028657D01*
X0078048Y0028657D01*
X0078045Y0028679D01*
X0077845Y0029106D01*
X0077511Y0029440D01*
X0077181Y0029594D01*
X0075181Y0029594D01*
X0074850Y0029440D01*
X0074516Y0029106D01*
X0074496Y0029078D01*
X0074491Y0029082D01*
X0074355Y0028937D01*
X0074118Y0028891D01*
X0073900Y0028992D01*
X0073890Y0029002D01*
X0073608Y0029284D01*
X0073608Y0029284D01*
X0073583Y0029310D01*
X0073587Y0029314D01*
X0073466Y0029472D01*
X0073443Y0029602D01*
X0073443Y0030202D01*
X0073518Y0030431D01*
X0073713Y0030573D01*
X0073833Y0030592D01*
X0075877Y0030592D01*
X0075877Y0030592D01*
X0075975Y0030603D01*
X0076047Y0030635D01*
X0076133Y0030673D01*
X0076379Y0030781D01*
X0076691Y0031093D01*
X0076869Y0031497D01*
X0076880Y0031595D01*
X0076880Y0032809D01*
X0076955Y0033038D01*
X0077150Y0033180D01*
X0077380Y0033183D01*
X0077422Y0033170D01*
X0077422Y0033170D01*
X0077931Y0033170D01*
X0077931Y0033170D01*
X0078420Y0033314D01*
X0078420Y0033314D01*
X0078447Y0033322D01*
X0078449Y0033312D01*
X0078644Y0033334D01*
X0078854Y0033216D01*
G37*
G36*
X0032009Y0024139D02*
G01*
X0032055Y0024100D01*
X0032330Y0023825D01*
X0032439Y0023611D01*
X0032401Y0023373D01*
X0032330Y0023274D01*
X0032004Y0022948D01*
X0031826Y0022545D01*
X0031826Y0022545D01*
X0031815Y0022446D01*
X0031815Y0020913D01*
X0031815Y0020913D01*
X0031815Y0020913D01*
X0031817Y0020889D01*
X0031826Y0020814D01*
X0031826Y0020814D01*
X0032004Y0020411D01*
X0032004Y0020411D01*
X0032004Y0020411D01*
X0032316Y0020099D01*
X0032316Y0020099D01*
X0032330Y0020085D01*
X0032439Y0019870D01*
X0032401Y0019632D01*
X0032330Y0019534D01*
X0032316Y0019520D01*
X0032316Y0019520D01*
X0032056Y0019260D01*
X0032004Y0019208D01*
X0031969Y0019129D01*
X0031808Y0018949D01*
X0031613Y0018896D01*
X0029455Y0018896D01*
X0029226Y0018971D01*
X0029099Y0019129D01*
X0029063Y0019208D01*
X0029063Y0019208D01*
X0029063Y0019208D01*
X0028878Y0019394D01*
X0028769Y0019608D01*
X0028806Y0019846D01*
X0028878Y0019945D01*
X0029210Y0020277D01*
X0029407Y0020680D01*
X0025445Y0020680D01*
X0025216Y0020754D01*
X0025075Y0020949D01*
X0025055Y0021069D01*
X0025055Y0022290D01*
X0025130Y0022519D01*
X0025325Y0022660D01*
X0025445Y0022680D01*
X0029407Y0022680D01*
X0029210Y0023082D01*
X0028878Y0023414D01*
X0028769Y0023629D01*
X0028806Y0023867D01*
X0028878Y0023965D01*
X0029012Y0024100D01*
X0029227Y0024209D01*
X0029288Y0024214D01*
X0031780Y0024214D01*
X0032009Y0024139D01*
G37*
G36*
X0062096Y0031666D02*
G01*
X0063976Y0029786D01*
X0064085Y0029571D01*
X0064047Y0029333D01*
X0063877Y0029163D01*
X0063700Y0029120D01*
X0063662Y0029120D01*
X0063467Y0029095D01*
X0063467Y0029095D01*
X0063039Y0028895D01*
X0062705Y0028561D01*
X0062551Y0028231D01*
X0062551Y0028231D01*
X0065098Y0028231D01*
X0065327Y0028156D01*
X0065469Y0027961D01*
X0065488Y0027841D01*
X0065488Y0026620D01*
X0065413Y0026391D01*
X0065218Y0026250D01*
X0065098Y0026231D01*
X0062551Y0026231D01*
X0062551Y0026231D01*
X0062705Y0025900D01*
X0063039Y0025566D01*
X0063067Y0025547D01*
X0063063Y0025541D01*
X0063209Y0025405D01*
X0063255Y0025168D01*
X0063153Y0024950D01*
X0063143Y0024940D01*
X0062861Y0024658D01*
X0062689Y0024268D01*
X0062678Y0024173D01*
X0062678Y0022730D01*
X0062689Y0022634D01*
X0062689Y0022634D01*
X0062689Y0022634D01*
X0062861Y0022244D01*
X0063163Y0021943D01*
X0063538Y0021777D01*
X0063718Y0021616D01*
X0063768Y0021381D01*
X0063671Y0021161D01*
X0063538Y0021064D01*
X0063163Y0020898D01*
X0063163Y0020898D01*
X0063163Y0020898D01*
X0062861Y0020597D01*
X0062861Y0020597D01*
X0062850Y0020585D01*
X0062635Y0020476D01*
X0062574Y0020471D01*
X0061387Y0020471D01*
X0061157Y0020546D01*
X0061066Y0020659D01*
X0061059Y0020654D01*
X0061039Y0020684D01*
X0061039Y0020684D01*
X0061039Y0020684D01*
X0060742Y0020980D01*
X0060553Y0021064D01*
X0060373Y0021225D01*
X0060322Y0021460D01*
X0060420Y0021680D01*
X0060553Y0021777D01*
X0060742Y0021861D01*
X0061039Y0022157D01*
X0061208Y0022540D01*
X0061219Y0022634D01*
X0061219Y0024032D01*
X0061208Y0024126D01*
X0061039Y0024509D01*
X0060742Y0024805D01*
X0060584Y0024875D01*
X0060404Y0025036D01*
X0060353Y0025271D01*
X0060451Y0025492D01*
X0060576Y0025585D01*
X0060866Y0025720D01*
X0061195Y0026049D01*
X0061335Y0026349D01*
X0061335Y0026349D01*
X0057598Y0026349D01*
X0057594Y0026345D01*
X0057379Y0026235D01*
X0057318Y0026231D01*
X0054822Y0026231D01*
X0054593Y0026305D01*
X0054452Y0026500D01*
X0054433Y0026620D01*
X0054433Y0029098D01*
X0054433Y0029098D01*
X0054412Y0029095D01*
X0053984Y0028895D01*
X0053956Y0028876D01*
X0053951Y0028882D01*
X0053776Y0028793D01*
X0053539Y0028831D01*
X0053368Y0029001D01*
X0053330Y0029234D01*
X0053347Y0029352D01*
X0053345Y0029367D01*
X0053274Y0029856D01*
X0053266Y0029883D01*
X0053276Y0029885D01*
X0053253Y0030081D01*
X0053372Y0030291D01*
X0053591Y0030391D01*
X0053635Y0030394D01*
X0056343Y0030394D01*
X0056343Y0030394D01*
X0056611Y0030433D01*
X0057024Y0030635D01*
X0057024Y0030635D01*
X0057290Y0030900D01*
X0057504Y0031010D01*
X0057742Y0030972D01*
X0057913Y0030802D01*
X0057938Y0030723D01*
X0057941Y0030724D01*
X0057949Y0030697D01*
X0057949Y0030697D01*
X0057949Y0030697D01*
X0058160Y0030234D01*
X0058494Y0029849D01*
X0058494Y0029849D01*
X0058512Y0029828D01*
X0058507Y0029823D01*
X0058613Y0029647D01*
X0058592Y0029407D01*
X0058434Y0029225D01*
X0058322Y0029186D01*
X0058323Y0029182D01*
X0058295Y0029174D01*
X0057873Y0028977D01*
X0057612Y0028716D01*
X0057397Y0028607D01*
X0057159Y0028644D01*
X0057061Y0028716D01*
X0056882Y0028895D01*
X0056454Y0029095D01*
X0056454Y0029095D01*
X0056433Y0029098D01*
X0056433Y0028231D01*
X0056433Y0028231D01*
X0057165Y0028231D01*
X0057169Y0028235D01*
X0057383Y0028344D01*
X0057444Y0028349D01*
X0061335Y0028349D01*
X0061335Y0028349D01*
X0061195Y0028648D01*
X0060866Y0028977D01*
X0060704Y0029053D01*
X0060527Y0029217D01*
X0060482Y0029454D01*
X0060583Y0029672D01*
X0060658Y0029734D01*
X0060836Y0029849D01*
X0061170Y0030234D01*
X0061381Y0030697D01*
X0061385Y0030723D01*
X0061454Y0031201D01*
X0061454Y0031201D01*
X0061434Y0031335D01*
X0061475Y0031572D01*
X0061648Y0031740D01*
X0061887Y0031774D01*
X0062096Y0031666D01*
G37*
G36*
X0066166Y0036403D02*
G01*
X0066308Y0036208D01*
X0066308Y0035967D01*
X0066166Y0035772D01*
X0066148Y0035760D01*
X0065841Y0035563D01*
X0065841Y0035563D01*
X0065841Y0035563D01*
X0065739Y0035445D01*
X0065508Y0035178D01*
X0065296Y0034715D01*
X0065296Y0034715D01*
X0065224Y0034211D01*
X0065224Y0034211D01*
X0065296Y0033707D01*
X0065296Y0033707D01*
X0065296Y0033707D01*
X0065296Y0033707D01*
X0065508Y0033244D01*
X0065841Y0032859D01*
X0066270Y0032584D01*
X0066758Y0032441D01*
X0066758Y0032441D01*
X0067267Y0032441D01*
X0067267Y0032441D01*
X0067267Y0032441D01*
X0067267Y0032441D01*
X0067407Y0032482D01*
X0067525Y0032516D01*
X0067766Y0032509D01*
X0067956Y0032362D01*
X0068024Y0032142D01*
X0068024Y0031596D01*
X0068024Y0031595D01*
X0068036Y0031497D01*
X0068036Y0031497D01*
X0068214Y0031093D01*
X0068214Y0031093D01*
X0068214Y0031093D01*
X0068526Y0030781D01*
X0068930Y0030603D01*
X0069028Y0030592D01*
X0070890Y0030592D01*
X0071120Y0030517D01*
X0071261Y0030322D01*
X0071280Y0030202D01*
X0071280Y0029532D01*
X0071206Y0029302D01*
X0071166Y0029256D01*
X0071024Y0029114D01*
X0070893Y0028983D01*
X0070720Y0028592D01*
X0070709Y0028497D01*
X0070709Y0026818D01*
X0070720Y0026723D01*
X0070720Y0026723D01*
X0070720Y0026723D01*
X0070893Y0026332D01*
X0071194Y0026031D01*
X0071194Y0026031D01*
X0071197Y0026028D01*
X0071306Y0025813D01*
X0071269Y0025575D01*
X0071098Y0025405D01*
X0070998Y0025370D01*
X0070938Y0025358D01*
X0070918Y0025350D01*
X0070678Y0025331D01*
X0070472Y0025457D01*
X0070437Y0025514D01*
X0070436Y0025513D01*
X0070412Y0025550D01*
X0070307Y0025707D01*
X0070176Y0025903D01*
X0070162Y0025912D01*
X0070118Y0025942D01*
X0070059Y0025990D01*
X0068085Y0027964D01*
X0067976Y0028179D01*
X0067971Y0028240D01*
X0067971Y0028257D01*
X0067978Y0028333D01*
X0067981Y0028349D01*
X0067992Y0028402D01*
X0067908Y0028824D01*
X0067903Y0028831D01*
X0067892Y0028848D01*
X0067669Y0029181D01*
X0067669Y0029181D01*
X0067611Y0029220D01*
X0067552Y0029269D01*
X0063426Y0033394D01*
X0063317Y0033609D01*
X0063316Y0033725D01*
X0063321Y0033759D01*
X0063262Y0034166D01*
X0063249Y0034263D01*
X0063249Y0034263D01*
X0063249Y0034263D01*
X0063037Y0034726D01*
X0062704Y0035110D01*
X0062598Y0035178D01*
X0062275Y0035386D01*
X0061787Y0035529D01*
X0061787Y0035529D01*
X0061278Y0035529D01*
X0061278Y0035529D01*
X0060789Y0035386D01*
X0060789Y0035386D01*
X0060361Y0035110D01*
X0060361Y0035110D01*
X0060361Y0035110D01*
X0060184Y0034906D01*
X0060028Y0034726D01*
X0059816Y0034263D01*
X0059816Y0034263D01*
X0059744Y0033759D01*
X0059744Y0033759D01*
X0059793Y0033416D01*
X0059752Y0033179D01*
X0059579Y0033011D01*
X0059437Y0032978D01*
X0059438Y0032975D01*
X0059410Y0032971D01*
X0058922Y0032828D01*
X0058922Y0032828D01*
X0058494Y0032553D01*
X0058494Y0032553D01*
X0058494Y0032553D01*
X0058171Y0032180D01*
X0058160Y0032168D01*
X0057949Y0031705D01*
X0057949Y0031705D01*
X0057947Y0031696D01*
X0057944Y0031690D01*
X0057941Y0031678D01*
X0057939Y0031679D01*
X0057841Y0031480D01*
X0057628Y0031368D01*
X0057562Y0031362D01*
X0049226Y0031362D01*
X0048997Y0031437D01*
X0048931Y0031497D01*
X0048793Y0031656D01*
X0048365Y0031931D01*
X0047877Y0032075D01*
X0047877Y0032075D01*
X0047367Y0032075D01*
X0047367Y0032075D01*
X0047281Y0032049D01*
X0047040Y0032056D01*
X0046901Y0032164D01*
X0046891Y0032154D01*
X0046569Y0032476D01*
X0046569Y0032476D01*
X0046186Y0032645D01*
X0046186Y0032645D01*
X0046186Y0032645D01*
X0046134Y0032651D01*
X0045915Y0032752D01*
X0045797Y0032962D01*
X0045825Y0033201D01*
X0045962Y0033362D01*
X0048383Y0033362D01*
X0051964Y0033362D01*
X0051964Y0033362D01*
X0053964Y0033362D01*
X0053964Y0033362D01*
X0057546Y0033362D01*
X0057349Y0033765D01*
X0057024Y0034090D01*
X0056611Y0034292D01*
X0056343Y0034331D01*
X0053964Y0034331D01*
X0053964Y0034331D01*
X0053964Y0033362D01*
X0051964Y0033362D01*
X0051964Y0034331D01*
X0051964Y0034331D01*
X0049585Y0034331D01*
X0049585Y0034331D01*
X0049318Y0034292D01*
X0048904Y0034090D01*
X0048579Y0033765D01*
X0048383Y0033362D01*
X0045962Y0033362D01*
X0045962Y0033363D01*
X0045986Y0033379D01*
X0046267Y0033566D01*
X0046306Y0033624D01*
X0046354Y0033683D01*
X0048469Y0035799D01*
X0048684Y0035908D01*
X0048922Y0035870D01*
X0049021Y0035799D01*
X0049038Y0035781D01*
X0049038Y0035781D01*
X0049038Y0035781D01*
X0049200Y0035710D01*
X0049441Y0035603D01*
X0049540Y0035592D01*
X0056388Y0035592D01*
X0056487Y0035603D01*
X0056891Y0035781D01*
X0057203Y0036093D01*
X0057253Y0036208D01*
X0057270Y0036245D01*
X0057430Y0036425D01*
X0057626Y0036478D01*
X0065937Y0036478D01*
X0066166Y0036403D01*
G37*
G36*
X0076160Y0050713D02*
G01*
X0076301Y0050518D01*
X0076301Y0050277D01*
X0076225Y0050142D01*
X0076172Y0050081D01*
X0075960Y0049618D01*
X0075960Y0049618D01*
X0075939Y0049467D01*
X0075832Y0049251D01*
X0075619Y0049138D01*
X0075553Y0049133D01*
X0069028Y0049133D01*
X0069028Y0049133D01*
X0068930Y0049121D01*
X0068930Y0049121D01*
X0068526Y0048943D01*
X0068214Y0048631D01*
X0068036Y0048228D01*
X0068036Y0048228D01*
X0068024Y0048129D01*
X0068024Y0046596D01*
X0068024Y0046595D01*
X0068036Y0046497D01*
X0068036Y0046497D01*
X0068214Y0046093D01*
X0068214Y0046093D01*
X0068214Y0046093D01*
X0068526Y0045781D01*
X0068526Y0045781D01*
X0068526Y0045781D01*
X0068808Y0045657D01*
X0068930Y0045603D01*
X0069028Y0045592D01*
X0075673Y0045592D01*
X0075902Y0045517D01*
X0076043Y0045322D01*
X0076043Y0045082D01*
X0076027Y0045040D01*
X0075960Y0044894D01*
X0075960Y0044894D01*
X0075899Y0044467D01*
X0075793Y0044251D01*
X0075580Y0044138D01*
X0075513Y0044133D01*
X0069028Y0044133D01*
X0069028Y0044133D01*
X0068930Y0044121D01*
X0068930Y0044121D01*
X0068526Y0043943D01*
X0068214Y0043631D01*
X0068173Y0043538D01*
X0068012Y0043359D01*
X0067817Y0043306D01*
X0062442Y0043306D01*
X0062366Y0043313D01*
X0062298Y0043327D01*
X0062191Y0043306D01*
X0061876Y0043243D01*
X0061518Y0043004D01*
X0061518Y0043004D01*
X0061479Y0042946D01*
X0061430Y0042887D01*
X0061222Y0042679D01*
X0061008Y0042569D01*
X0060947Y0042565D01*
X0060613Y0042565D01*
X0060124Y0042421D01*
X0060124Y0042421D01*
X0059696Y0042146D01*
X0059363Y0041761D01*
X0059151Y0041298D01*
X0059151Y0041298D01*
X0059079Y0040794D01*
X0059079Y0040794D01*
X0059151Y0040290D01*
X0059151Y0040290D01*
X0059151Y0040290D01*
X0059151Y0040290D01*
X0059363Y0039827D01*
X0059696Y0039442D01*
X0059741Y0039413D01*
X0059827Y0039358D01*
X0059979Y0039172D01*
X0059993Y0038931D01*
X0059863Y0038729D01*
X0059638Y0038641D01*
X0059616Y0038641D01*
X0057355Y0038641D01*
X0057126Y0038715D01*
X0057079Y0038755D01*
X0056891Y0038943D01*
X0056891Y0038943D01*
X0056487Y0039121D01*
X0056388Y0039133D01*
X0049540Y0039133D01*
X0049540Y0039133D01*
X0049441Y0039121D01*
X0049441Y0039121D01*
X0049038Y0038943D01*
X0048761Y0038666D01*
X0048546Y0038557D01*
X0048308Y0038594D01*
X0048138Y0038765D01*
X0048100Y0039003D01*
X0048132Y0039106D01*
X0048275Y0039413D01*
X0047338Y0039413D01*
X0047338Y0039413D01*
X0047338Y0038547D01*
X0047462Y0038438D01*
X0047585Y0038231D01*
X0047563Y0037991D01*
X0047481Y0037869D01*
X0045430Y0035818D01*
X0045215Y0035708D01*
X0044977Y0035746D01*
X0044943Y0035765D01*
X0044621Y0035973D01*
X0044334Y0036057D01*
X0044132Y0036116D01*
X0044132Y0036116D01*
X0043623Y0036116D01*
X0043623Y0036116D01*
X0043134Y0035973D01*
X0043134Y0035973D01*
X0042706Y0035698D01*
X0042706Y0035698D01*
X0042706Y0035698D01*
X0042523Y0035486D01*
X0042373Y0035313D01*
X0042161Y0034850D01*
X0042161Y0034850D01*
X0042089Y0034346D01*
X0042089Y0034346D01*
X0042161Y0033842D01*
X0042161Y0033842D01*
X0042161Y0033842D01*
X0042161Y0033842D01*
X0042275Y0033593D01*
X0042302Y0033353D01*
X0042196Y0033155D01*
X0041811Y0032770D01*
X0041597Y0032661D01*
X0041536Y0032656D01*
X0040679Y0032656D01*
X0040585Y0032645D01*
X0040202Y0032476D01*
X0039941Y0032215D01*
X0039726Y0032106D01*
X0039488Y0032143D01*
X0039389Y0032215D01*
X0039386Y0032218D01*
X0039277Y0032433D01*
X0039314Y0032670D01*
X0039367Y0032749D01*
X0039561Y0032972D01*
X0039772Y0033435D01*
X0039791Y0033566D01*
X0039845Y0033939D01*
X0039845Y0033939D01*
X0039772Y0034443D01*
X0039772Y0034443D01*
X0039772Y0034443D01*
X0039599Y0034822D01*
X0039572Y0035062D01*
X0039690Y0035271D01*
X0039909Y0035371D01*
X0039954Y0035374D01*
X0040156Y0035374D01*
X0040351Y0035400D01*
X0040351Y0035400D01*
X0040779Y0035599D01*
X0041113Y0035933D01*
X0041312Y0036361D01*
X0041315Y0036382D01*
X0041315Y0036382D01*
X0038838Y0036382D01*
X0038609Y0036456D01*
X0038467Y0036651D01*
X0038448Y0036772D01*
X0038448Y0039319D01*
X0040448Y0039319D01*
X0040448Y0038382D01*
X0040448Y0038382D01*
X0041315Y0038382D01*
X0041315Y0038382D01*
X0041312Y0038403D01*
X0041113Y0038831D01*
X0040779Y0039165D01*
X0040448Y0039319D01*
X0038448Y0039319D01*
X0038118Y0039165D01*
X0037784Y0038831D01*
X0037764Y0038803D01*
X0037758Y0038807D01*
X0037622Y0038661D01*
X0037386Y0038615D01*
X0037168Y0038717D01*
X0037158Y0038726D01*
X0036876Y0039008D01*
X0036876Y0039008D01*
X0036864Y0039020D01*
X0036755Y0039234D01*
X0036750Y0039295D01*
X0036750Y0039413D01*
X0044401Y0039413D01*
X0044555Y0039083D01*
X0044889Y0038749D01*
X0045317Y0038549D01*
X0045317Y0038549D01*
X0045338Y0038547D01*
X0045338Y0038547D01*
X0045338Y0039413D01*
X0045338Y0039413D01*
X0044401Y0039413D01*
X0044401Y0039413D01*
X0036750Y0039413D01*
X0036750Y0041528D01*
X0036758Y0041604D01*
X0036772Y0041673D01*
X0036688Y0042095D01*
X0036540Y0042315D01*
X0036475Y0042532D01*
X0036475Y0043227D01*
X0036475Y0043227D01*
X0036446Y0043370D01*
X0036475Y0043610D01*
X0036505Y0043663D01*
X0036627Y0043846D01*
X0036673Y0044076D01*
X0036673Y0044076D01*
X0036673Y0044154D01*
X0036673Y0044154D01*
X0032539Y0044154D01*
X0032539Y0044154D01*
X0032539Y0044076D01*
X0032585Y0043846D01*
X0032707Y0043663D01*
X0032773Y0043431D01*
X0032765Y0043370D01*
X0032737Y0043227D01*
X0032737Y0041536D01*
X0032771Y0041365D01*
X0032771Y0041365D01*
X0032901Y0041170D01*
X0032901Y0041170D01*
X0032901Y0041170D01*
X0033096Y0041039D01*
X0033264Y0041006D01*
X0033268Y0041005D01*
X0034198Y0041005D01*
X0034427Y0040931D01*
X0034568Y0040736D01*
X0034587Y0040615D01*
X0034587Y0039295D01*
X0034513Y0039066D01*
X0034473Y0039020D01*
X0034462Y0039008D01*
X0034462Y0039008D01*
X0034284Y0038831D01*
X0034160Y0038707D01*
X0033988Y0038317D01*
X0033977Y0038221D01*
X0033977Y0036542D01*
X0033988Y0036447D01*
X0033988Y0036447D01*
X0033988Y0036447D01*
X0034160Y0036057D01*
X0034462Y0035755D01*
X0034787Y0035612D01*
X0034855Y0035565D01*
X0034857Y0035568D01*
X0034948Y0035508D01*
X0035007Y0035459D01*
X0035432Y0035034D01*
X0035541Y0034820D01*
X0035503Y0034582D01*
X0035333Y0034411D01*
X0035156Y0034369D01*
X0032926Y0034369D01*
X0032850Y0034376D01*
X0032781Y0034390D01*
X0032781Y0034390D01*
X0032728Y0034380D01*
X0032489Y0034408D01*
X0032312Y0034571D01*
X0032262Y0034762D01*
X0032262Y0036245D01*
X0032262Y0036245D01*
X0032221Y0036527D01*
X0032008Y0036962D01*
X0031666Y0037304D01*
X0031666Y0037304D01*
X0031666Y0037304D01*
X0031457Y0037406D01*
X0031271Y0037497D01*
X0031098Y0037665D01*
X0031056Y0037902D01*
X0031068Y0037957D01*
X0031069Y0037961D01*
X0031142Y0038465D01*
X0031142Y0038465D01*
X0031069Y0038969D01*
X0031069Y0038969D01*
X0031069Y0038969D01*
X0030858Y0039432D01*
X0030525Y0039817D01*
X0030304Y0039958D01*
X0030152Y0040145D01*
X0030128Y0040337D01*
X0030142Y0040437D01*
X0027696Y0040437D01*
X0027467Y0040511D01*
X0027326Y0040706D01*
X0027307Y0040827D01*
X0027307Y0043402D01*
X0029307Y0043402D01*
X0029307Y0042437D01*
X0029307Y0042437D01*
X0030142Y0042437D01*
X0030132Y0042512D01*
X0030132Y0042512D01*
X0029935Y0042934D01*
X0029606Y0043262D01*
X0029307Y0043402D01*
X0029307Y0043402D01*
X0027307Y0043402D01*
X0027307Y0043402D01*
X0027007Y0043262D01*
X0026678Y0042934D01*
X0026543Y0042644D01*
X0026379Y0042468D01*
X0026142Y0042422D01*
X0025924Y0042523D01*
X0025833Y0042651D01*
X0025821Y0042679D01*
X0025763Y0042810D01*
X0025467Y0043106D01*
X0025083Y0043275D01*
X0025083Y0043275D01*
X0025083Y0043275D01*
X0024990Y0043286D01*
X0024990Y0043286D01*
X0023592Y0043286D01*
X0023592Y0043286D01*
X0023498Y0043275D01*
X0023115Y0043106D01*
X0022819Y0042810D01*
X0022649Y0042426D01*
X0022639Y0042333D01*
X0022639Y0040541D01*
X0022649Y0040448D01*
X0022649Y0040448D01*
X0022649Y0040448D01*
X0022819Y0040064D01*
X0023095Y0039788D01*
X0023205Y0039573D01*
X0023209Y0039512D01*
X0023209Y0037948D01*
X0023135Y0037719D01*
X0022940Y0037577D01*
X0022820Y0037558D01*
X0022751Y0037558D01*
X0022469Y0037517D01*
X0022034Y0037304D01*
X0021691Y0036962D01*
X0021486Y0036542D01*
X0021479Y0036527D01*
X0021438Y0036245D01*
X0021438Y0033952D01*
X0021479Y0033670D01*
X0021530Y0033566D01*
X0021691Y0033235D01*
X0021691Y0033235D01*
X0021691Y0033235D01*
X0022034Y0032893D01*
X0022034Y0032893D01*
X0022034Y0032893D01*
X0022169Y0032826D01*
X0022342Y0032659D01*
X0022384Y0032422D01*
X0022278Y0032205D01*
X0022163Y0032123D01*
X0021897Y0031999D01*
X0021563Y0031665D01*
X0021364Y0031238D01*
X0021361Y0031217D01*
X0021361Y0031217D01*
X0023838Y0031217D01*
X0024067Y0031142D01*
X0024209Y0030947D01*
X0024228Y0030827D01*
X0024228Y0028280D01*
X0024228Y0028280D01*
X0024559Y0028434D01*
X0024893Y0028768D01*
X0024912Y0028796D01*
X0024918Y0028792D01*
X0025054Y0028937D01*
X0025290Y0028983D01*
X0025509Y0028882D01*
X0025518Y0028872D01*
X0025801Y0028590D01*
X0026191Y0028418D01*
X0026286Y0028407D01*
X0027266Y0028407D01*
X0027495Y0028332D01*
X0027561Y0028272D01*
X0027676Y0028139D01*
X0028036Y0027908D01*
X0028189Y0027721D01*
X0028202Y0027481D01*
X0028072Y0027278D01*
X0027848Y0027191D01*
X0027825Y0027190D01*
X0023862Y0027190D01*
X0023862Y0027190D01*
X0023763Y0027179D01*
X0023763Y0027179D01*
X0023359Y0027001D01*
X0023047Y0026689D01*
X0022857Y0026258D01*
X0022852Y0026261D01*
X0022738Y0026088D01*
X0022513Y0026002D01*
X0022313Y0026046D01*
X0021871Y0026279D01*
X0021220Y0026439D01*
X0021220Y0026439D01*
X0020551Y0026439D01*
X0020551Y0026439D01*
X0019992Y0026301D01*
X0019752Y0026319D01*
X0019568Y0026474D01*
X0019509Y0026680D01*
X0019509Y0029217D01*
X0021361Y0029217D01*
X0021364Y0029195D01*
X0021563Y0028768D01*
X0021897Y0028434D01*
X0022228Y0028280D01*
X0022228Y0028280D01*
X0022228Y0029217D01*
X0022228Y0029217D01*
X0021361Y0029217D01*
X0021361Y0029217D01*
X0019509Y0029217D01*
X0019509Y0044690D01*
X0037921Y0044690D01*
X0037993Y0044186D01*
X0037993Y0044186D01*
X0037993Y0044186D01*
X0037993Y0044186D01*
X0038204Y0043723D01*
X0038538Y0043338D01*
X0038966Y0043063D01*
X0039455Y0042919D01*
X0039455Y0042919D01*
X0039828Y0042919D01*
X0040057Y0042845D01*
X0040198Y0042650D01*
X0040217Y0042530D01*
X0040217Y0041536D01*
X0040251Y0041365D01*
X0040251Y0041365D01*
X0040382Y0041170D01*
X0040382Y0041170D01*
X0040382Y0041170D01*
X0040577Y0041039D01*
X0040744Y0041006D01*
X0040749Y0041005D01*
X0040749Y0041005D01*
X0043424Y0041005D01*
X0043424Y0041005D01*
X0043596Y0041039D01*
X0043791Y0041170D01*
X0043791Y0041170D01*
X0043807Y0041186D01*
X0044022Y0041296D01*
X0044083Y0041300D01*
X0044243Y0041300D01*
X0044319Y0041293D01*
X0044332Y0041290D01*
X0044388Y0041279D01*
X0044810Y0041363D01*
X0044810Y0041363D01*
X0044845Y0041378D01*
X0044850Y0041367D01*
X0045003Y0041413D01*
X0048331Y0041413D01*
X0048560Y0041339D01*
X0048687Y0041181D01*
X0048726Y0041093D01*
X0049038Y0040781D01*
X0049038Y0040781D01*
X0049038Y0040781D01*
X0049375Y0040632D01*
X0049441Y0040603D01*
X0049540Y0040592D01*
X0056388Y0040592D01*
X0056487Y0040603D01*
X0056891Y0040781D01*
X0057203Y0041093D01*
X0057381Y0041497D01*
X0057392Y0041595D01*
X0057392Y0043129D01*
X0057381Y0043228D01*
X0057381Y0043228D01*
X0057381Y0043228D01*
X0057203Y0043631D01*
X0057203Y0043631D01*
X0057203Y0043631D01*
X0056891Y0043943D01*
X0056891Y0043943D01*
X0056891Y0043943D01*
X0056487Y0044121D01*
X0056388Y0044133D01*
X0056388Y0044133D01*
X0050215Y0044133D01*
X0049986Y0044207D01*
X0049940Y0044247D01*
X0049331Y0044855D01*
X0049283Y0044914D01*
X0049235Y0044985D01*
X0049170Y0045217D01*
X0049253Y0045443D01*
X0049454Y0045577D01*
X0049559Y0045592D01*
X0056388Y0045592D01*
X0056487Y0045603D01*
X0056891Y0045781D01*
X0057203Y0046093D01*
X0057246Y0046192D01*
X0057261Y0046226D01*
X0057422Y0046405D01*
X0057618Y0046458D01*
X0060609Y0046458D01*
X0060838Y0046383D01*
X0060904Y0046323D01*
X0061053Y0046152D01*
X0061481Y0045877D01*
X0061969Y0045733D01*
X0061969Y0045733D01*
X0062479Y0045733D01*
X0062479Y0045733D01*
X0062967Y0045877D01*
X0063171Y0046007D01*
X0063404Y0046069D01*
X0063628Y0045981D01*
X0063676Y0045935D01*
X0064004Y0045557D01*
X0064432Y0045282D01*
X0064920Y0045138D01*
X0064920Y0045138D01*
X0065429Y0045138D01*
X0065429Y0045138D01*
X0065918Y0045282D01*
X0066346Y0045557D01*
X0066680Y0045942D01*
X0066891Y0046405D01*
X0066891Y0046405D01*
X0066964Y0046909D01*
X0066964Y0046909D01*
X0066891Y0047413D01*
X0066891Y0047413D01*
X0066891Y0047413D01*
X0066680Y0047876D01*
X0066346Y0048261D01*
X0066217Y0048344D01*
X0065918Y0048536D01*
X0065429Y0048679D01*
X0065429Y0048679D01*
X0064920Y0048679D01*
X0064920Y0048679D01*
X0064432Y0048536D01*
X0064228Y0048405D01*
X0063995Y0048344D01*
X0063771Y0048431D01*
X0063723Y0048477D01*
X0063688Y0048517D01*
X0063395Y0048855D01*
X0062967Y0049131D01*
X0062940Y0049138D01*
X0062479Y0049274D01*
X0062479Y0049274D01*
X0061969Y0049274D01*
X0061969Y0049274D01*
X0061481Y0049131D01*
X0061481Y0049131D01*
X0061053Y0048855D01*
X0061053Y0048855D01*
X0061053Y0048855D01*
X0060966Y0048755D01*
X0060760Y0048631D01*
X0060671Y0048621D01*
X0057374Y0048621D01*
X0057145Y0048695D01*
X0057099Y0048735D01*
X0056891Y0048943D01*
X0056891Y0048943D01*
X0056487Y0049121D01*
X0056388Y0049133D01*
X0049540Y0049133D01*
X0049540Y0049133D01*
X0049441Y0049121D01*
X0049441Y0049121D01*
X0049038Y0048943D01*
X0049038Y0048943D01*
X0049038Y0048943D01*
X0048790Y0048696D01*
X0048576Y0048586D01*
X0048515Y0048581D01*
X0044083Y0048581D01*
X0043854Y0048656D01*
X0043807Y0048696D01*
X0043791Y0048712D01*
X0043791Y0048712D01*
X0043726Y0048755D01*
X0043596Y0048843D01*
X0043424Y0048877D01*
X0043424Y0048877D01*
X0040749Y0048877D01*
X0040749Y0048877D01*
X0040577Y0048843D01*
X0040577Y0048843D01*
X0040382Y0048712D01*
X0040382Y0048712D01*
X0040251Y0048517D01*
X0040251Y0048517D01*
X0040217Y0048345D01*
X0040217Y0046850D01*
X0040143Y0046621D01*
X0039948Y0046479D01*
X0039828Y0046460D01*
X0039455Y0046460D01*
X0038966Y0046317D01*
X0038966Y0046317D01*
X0038538Y0046042D01*
X0038538Y0046042D01*
X0038538Y0046042D01*
X0038265Y0045726D01*
X0038204Y0045657D01*
X0037993Y0045194D01*
X0037993Y0045194D01*
X0037921Y0044690D01*
X0037921Y0044690D01*
X0019509Y0044690D01*
X0019509Y0047776D01*
X0027542Y0047776D01*
X0027614Y0047272D01*
X0027614Y0047272D01*
X0027614Y0047272D01*
X0027614Y0047272D01*
X0027826Y0046809D01*
X0028159Y0046424D01*
X0028587Y0046149D01*
X0029076Y0046005D01*
X0029076Y0046005D01*
X0029585Y0046005D01*
X0029585Y0046005D01*
X0030073Y0046149D01*
X0030502Y0046424D01*
X0030661Y0046608D01*
X0030868Y0046733D01*
X0031108Y0046712D01*
X0031290Y0046554D01*
X0031299Y0046537D01*
X0031304Y0046529D01*
X0031304Y0046529D01*
X0031304Y0046529D01*
X0031638Y0046144D01*
X0032066Y0045869D01*
X0032442Y0045758D01*
X0032492Y0045728D01*
X0032504Y0045728D01*
X0032549Y0045725D01*
X0032554Y0045725D01*
X0033069Y0045725D01*
X0033114Y0045728D01*
X0036673Y0045728D01*
X0036673Y0045728D01*
X0036673Y0045806D01*
X0036673Y0045806D01*
X0036627Y0046036D01*
X0036505Y0046219D01*
X0036439Y0046451D01*
X0036446Y0046512D01*
X0036475Y0046655D01*
X0036475Y0048345D01*
X0036441Y0048517D01*
X0036441Y0048517D01*
X0036310Y0048712D01*
X0036310Y0048712D01*
X0036303Y0048717D01*
X0036115Y0048843D01*
X0035943Y0048877D01*
X0035943Y0048877D01*
X0034049Y0048877D01*
X0033838Y0048939D01*
X0033552Y0049123D01*
X0033518Y0049133D01*
X0033063Y0049266D01*
X0033063Y0049266D01*
X0032554Y0049266D01*
X0032554Y0049266D01*
X0032066Y0049123D01*
X0032066Y0049123D01*
X0031638Y0048847D01*
X0031638Y0048847D01*
X0031638Y0048847D01*
X0031633Y0048843D01*
X0031478Y0048663D01*
X0031272Y0048539D01*
X0031032Y0048559D01*
X0030849Y0048717D01*
X0030840Y0048734D01*
X0030835Y0048743D01*
X0030835Y0048743D01*
X0030835Y0048743D01*
X0030502Y0049127D01*
X0030496Y0049131D01*
X0030073Y0049403D01*
X0029585Y0049546D01*
X0029585Y0049546D01*
X0029076Y0049546D01*
X0029076Y0049546D01*
X0028587Y0049403D01*
X0028587Y0049403D01*
X0028159Y0049127D01*
X0028159Y0049127D01*
X0028159Y0049127D01*
X0027923Y0048855D01*
X0027826Y0048743D01*
X0027614Y0048280D01*
X0027614Y0048280D01*
X0027542Y0047776D01*
X0027542Y0047776D01*
X0019509Y0047776D01*
X0019509Y0050398D01*
X0019584Y0050627D01*
X0019779Y0050768D01*
X0019899Y0050787D01*
X0075930Y0050787D01*
X0076160Y0050713D01*
G37*
M02*
