G75*
G70*
%OFA0B0*%
%FSLAX25Y25*%
%IPPOS*%
%LPD*%
%AMOC8*
5,1,8,0,0,1.08239X$1,22.5*
%
%ADD19C,0.00394*%
%ADD21C,0.00472*%
%ADD22C,0.00787*%
X0000000Y0000000D02*
%LPD*%
G01*
D19*
X0080561Y0041929D02*
X0080561Y0043804D01*
X0080561Y0043804D02*
X0082435Y0043991D01*
X0082435Y0043991D02*
X0082248Y0043804D01*
X0082248Y0043804D02*
X0082061Y0043429D01*
X0082061Y0043429D02*
X0082061Y0042491D01*
X0082061Y0042491D02*
X0082248Y0042116D01*
X0082248Y0042116D02*
X0082435Y0041929D01*
X0082435Y0041929D02*
X0082810Y0041741D01*
X0082810Y0041741D02*
X0083748Y0041741D01*
X0083748Y0041741D02*
X0084123Y0041929D01*
X0084123Y0041929D02*
X0084310Y0042116D01*
X0084310Y0042116D02*
X0084498Y0042491D01*
X0084498Y0042491D02*
X0084498Y0043429D01*
X0084498Y0043429D02*
X0084310Y0043804D01*
X0084310Y0043804D02*
X0084123Y0043991D01*
X0080561Y0040617D02*
X0084498Y0039304D01*
X0084498Y0039304D02*
X0080561Y0037992D01*
X0080561Y0035554D02*
X0080561Y0034804D01*
X0080561Y0034804D02*
X0080748Y0034429D01*
X0080748Y0034429D02*
X0081123Y0034054D01*
X0081123Y0034054D02*
X0081873Y0033866D01*
X0081873Y0033866D02*
X0083185Y0033866D01*
X0083185Y0033866D02*
X0083935Y0034054D01*
X0083935Y0034054D02*
X0084310Y0034429D01*
X0084310Y0034429D02*
X0084498Y0034804D01*
X0084498Y0034804D02*
X0084498Y0035554D01*
X0084498Y0035554D02*
X0084310Y0035929D01*
X0084310Y0035929D02*
X0083935Y0036304D01*
X0083935Y0036304D02*
X0083185Y0036491D01*
X0083185Y0036491D02*
X0081873Y0036491D01*
X0081873Y0036491D02*
X0081123Y0036304D01*
X0081123Y0036304D02*
X0080748Y0035929D01*
X0080748Y0035929D02*
X0080561Y0035554D01*
X0080561Y0032179D02*
X0083748Y0032179D01*
X0083748Y0032179D02*
X0084123Y0031992D01*
X0084123Y0031992D02*
X0084310Y0031804D01*
X0084310Y0031804D02*
X0084498Y0031429D01*
X0084498Y0031429D02*
X0084498Y0030679D01*
X0084498Y0030679D02*
X0084310Y0030304D01*
X0084310Y0030304D02*
X0084123Y0030117D01*
X0084123Y0030117D02*
X0083748Y0029929D01*
X0083748Y0029929D02*
X0080561Y0029929D01*
X0080561Y0028617D02*
X0080561Y0026367D01*
X0084498Y0027492D02*
X0080561Y0027492D01*
X0080561Y0016866D02*
X0080561Y0014616D01*
X0084498Y0015741D02*
X0080561Y0015741D01*
X0084498Y0013304D02*
X0080561Y0013304D01*
X0084498Y0011429D02*
X0080561Y0011429D01*
X0080561Y0011429D02*
X0084498Y0009180D01*
X0084498Y0009180D02*
X0080561Y0009180D01*
X0083373Y0023991D02*
X0083373Y0022116D01*
X0084498Y0024366D02*
X0080561Y0023054D01*
X0080561Y0023054D02*
X0084498Y0021741D01*
X0080748Y0054241D02*
X0080561Y0054616D01*
X0080561Y0054616D02*
X0080561Y0055179D01*
X0080561Y0055179D02*
X0080748Y0055741D01*
X0080748Y0055741D02*
X0081123Y0056116D01*
X0081123Y0056116D02*
X0081498Y0056304D01*
X0081498Y0056304D02*
X0082248Y0056491D01*
X0082248Y0056491D02*
X0082810Y0056491D01*
X0082810Y0056491D02*
X0083560Y0056304D01*
X0083560Y0056304D02*
X0083935Y0056116D01*
X0083935Y0056116D02*
X0084310Y0055741D01*
X0084310Y0055741D02*
X0084498Y0055179D01*
X0084498Y0055179D02*
X0084498Y0054804D01*
X0084498Y0054804D02*
X0084310Y0054241D01*
X0084310Y0054241D02*
X0084123Y0054054D01*
X0084123Y0054054D02*
X0082810Y0054054D01*
X0082810Y0054054D02*
X0082810Y0054804D01*
X0084498Y0052367D02*
X0080561Y0052367D01*
X0080561Y0052367D02*
X0084498Y0050117D01*
X0084498Y0050117D02*
X0080561Y0050117D01*
X0084498Y0048242D02*
X0080561Y0048242D01*
X0080561Y0048242D02*
X0080561Y0047305D01*
X0080561Y0047305D02*
X0080748Y0046742D01*
X0080748Y0046742D02*
X0081123Y0046367D01*
X0081123Y0046367D02*
X0081498Y0046180D01*
X0081498Y0046180D02*
X0082248Y0045992D01*
X0082248Y0045992D02*
X0082810Y0045992D01*
X0082810Y0045992D02*
X0083560Y0046180D01*
X0083560Y0046180D02*
X0083935Y0046367D01*
X0083935Y0046367D02*
X0084310Y0046742D01*
X0084310Y0046742D02*
X0084498Y0047305D01*
X0084498Y0047305D02*
X0084498Y0048242D01*
X0014366Y0041939D02*
X0013054Y0038002D01*
X0013054Y0038002D02*
X0011741Y0041939D01*
X0008179Y0038002D02*
X0009492Y0039877D01*
X0010429Y0038002D02*
X0010429Y0041939D01*
X0010429Y0041939D02*
X0008929Y0041939D01*
X0008929Y0041939D02*
X0008554Y0041752D01*
X0008554Y0041752D02*
X0008367Y0041564D01*
X0008367Y0041564D02*
X0008179Y0041189D01*
X0008179Y0041189D02*
X0008179Y0040627D01*
X0008179Y0040627D02*
X0008367Y0040252D01*
X0008367Y0040252D02*
X0008554Y0040065D01*
X0008554Y0040065D02*
X0008929Y0039877D01*
X0008929Y0039877D02*
X0010429Y0039877D01*
X0006492Y0039502D02*
X0003492Y0039502D01*
X0014366Y0016939D02*
X0013054Y0013002D01*
X0013054Y0013002D02*
X0011741Y0016939D01*
X0008179Y0013002D02*
X0009492Y0014877D01*
X0010429Y0013002D02*
X0010429Y0016939D01*
X0010429Y0016939D02*
X0008929Y0016939D01*
X0008929Y0016939D02*
X0008554Y0016752D01*
X0008554Y0016752D02*
X0008367Y0016564D01*
X0008367Y0016564D02*
X0008179Y0016189D01*
X0008179Y0016189D02*
X0008179Y0015627D01*
X0008179Y0015627D02*
X0008367Y0015252D01*
X0008367Y0015252D02*
X0008554Y0015065D01*
X0008554Y0015065D02*
X0008929Y0014877D01*
X0008929Y0014877D02*
X0010429Y0014877D01*
X0006492Y0014502D02*
X0003492Y0014502D01*
X0004992Y0013002D02*
X0004992Y0016002D01*
D22*
X0019803Y0050689D02*
X0019803Y0025492D01*
X0019803Y0012894D02*
X0019803Y0018012D01*
X0019803Y0012894D02*
X0078858Y0012894D01*
X0076496Y0050689D02*
X0019803Y0050689D01*
X0078858Y0012894D02*
X0078858Y0032972D01*
X0019409Y0012500D02*
%LPD*%
G01*
D22*
X0019803Y0050689D02*
X0019803Y0025492D01*
X0019803Y0012894D02*
X0019803Y0018012D01*
X0019803Y0012894D02*
X0078858Y0012894D01*
X0076496Y0050689D02*
X0019803Y0050689D01*
X0078858Y0012894D02*
X0078858Y0032972D01*
D21*
X0029252Y0044905D02*
X0026102Y0044905D01*
X0029252Y0044905D02*
X0036338Y0044905D01*
X0029252Y0032621D02*
X0032401Y0032621D01*
X0029252Y0032621D02*
X0026102Y0032621D01*
X0038149Y0018240D02*
X0038149Y0017390D01*
X0035315Y0018240D02*
X0035315Y0017390D01*
X0065146Y0045610D02*
X0065995Y0045610D01*
X0065146Y0042776D02*
X0065995Y0042776D01*
X0073357Y0046437D02*
X0072508Y0046437D01*
X0073357Y0049272D02*
X0072508Y0049272D01*
X0056740Y0041870D02*
X0057589Y0041870D01*
X0056740Y0039035D02*
X0057589Y0039035D01*
X0073160Y0045610D02*
X0072311Y0045610D01*
X0073160Y0042776D02*
X0072311Y0042776D01*
X0073020Y0025433D02*
X0073869Y0025433D01*
X0073020Y0022598D02*
X0073869Y0022598D01*
X0054117Y0013642D02*
X0062778Y0013642D01*
X0054117Y0013642D02*
X0039943Y0013642D01*
X0054117Y0034193D02*
X0062778Y0034193D01*
X0054117Y0034193D02*
X0045455Y0034193D01*
X0027016Y0028382D02*
X0028804Y0028382D01*
X0027016Y0022594D02*
X0028804Y0022594D01*
X0066077Y0035217D02*
X0064867Y0035217D01*
X0066077Y0038209D02*
X0064867Y0038209D01*
X0025542Y0046280D02*
X0024693Y0046280D01*
X0025542Y0049114D02*
X0024693Y0049114D01*
X0073754Y0038957D02*
X0072544Y0038957D01*
X0073754Y0041949D02*
X0072544Y0041949D01*
X0057821Y0035217D02*
X0056611Y0035217D01*
X0057821Y0038209D02*
X0056611Y0038209D01*
X0028804Y0020807D02*
X0027016Y0020807D01*
X0028804Y0015020D02*
X0027016Y0015020D01*
X0057770Y0046358D02*
X0056560Y0046358D01*
X0057770Y0049350D02*
X0056560Y0049350D01*
X0072387Y0017303D02*
X0073597Y0017303D01*
X0072387Y0014311D02*
X0073597Y0014311D01*
X0072840Y0026260D02*
X0074049Y0026260D01*
X0072840Y0029252D02*
X0074049Y0029252D01*
X0066372Y0038957D02*
X0065162Y0038957D01*
X0066372Y0041949D02*
X0065162Y0041949D01*
X0073967Y0030177D02*
X0073118Y0030177D01*
X0073967Y0033012D02*
X0073118Y0033012D01*
X0038135Y0024616D02*
X0038135Y0025465D01*
X0035300Y0024616D02*
X0035300Y0025465D01*
X0072347Y0035217D02*
X0073557Y0035217D01*
X0072347Y0038209D02*
X0073557Y0038209D01*
X0045393Y0036870D02*
X0042244Y0036870D01*
X0045393Y0049154D02*
X0052480Y0049154D01*
X0045393Y0049154D02*
X0042244Y0049154D01*
X0045393Y0036870D02*
X0048543Y0036870D01*
X0056740Y0042776D02*
X0057589Y0042776D01*
X0056740Y0045610D02*
X0057589Y0045610D01*
M02*
