G75*
G70*
%OFA0B0*%
%FSLAX25Y25*%
%IPPOS*%
%LPD*%
%AMOC8*
5,1,8,0,0,1.08239X$1,22.5*
%
%ADD10R,0.06693X0.06693*%
%ADD11O,0.06693X0.06693*%
%ADD12C,0.02362*%
%ADD13R,0.00984X0.24350*%
%ADD14R,0.00984X0.04390*%
%ADD15R,0.56201X0.00984*%
%ADD16R,0.59449X0.00984*%
%ADD17R,0.00984X0.20374*%
X0000000Y0000000D02*
%LPD*%
G01*
D10*
X0010000Y0032500D03*
D11*
X0010000Y0022500D03*
D12*
X0077677Y0039665D03*
X0077677Y0034941D03*
X0077677Y0044390D03*
X0077677Y0049114D03*
D13*
X0020000Y0038612D03*
D14*
X0020000Y0014793D03*
D15*
X0047608Y0050295D03*
D16*
X0049232Y0013091D03*
D17*
X0078465Y0022785D03*
D12*
X0020886Y0023681D03*
X0020886Y0019744D03*
D10*
X0090000Y0012500D03*
D11*
X0090000Y0022500D03*
X0090000Y0032500D03*
X0090000Y0042500D03*
X0090000Y0052500D03*
X0019409Y0012500D02*
%LPD*%
G01*
D12*
X0077677Y0039665D03*
X0077677Y0034941D03*
X0077677Y0044390D03*
X0077677Y0049114D03*
D13*
X0020000Y0038612D03*
D14*
X0020000Y0014793D03*
D15*
X0047608Y0050295D03*
D16*
X0049232Y0013091D03*
D17*
X0078464Y0022785D03*
D12*
X0020885Y0023681D03*
X0020885Y0019744D03*
D12*
X0031066Y0031437D03*
X0037293Y0049407D03*
X0077834Y0013878D03*
X0021063Y0047657D03*
X0021279Y0039370D03*
X0054645Y0014075D03*
X0046298Y0038355D03*
X0028593Y0021701D03*
X0040934Y0034582D03*
X0036732Y0014075D03*
X0028502Y0014130D03*
X0058484Y0034055D03*
X0060654Y0026159D03*
X0020787Y0031201D03*
X0048149Y0033563D03*
X0077677Y0022835D03*
X0055334Y0029823D03*
X0067130Y0049198D03*
X0077578Y0018701D03*
X0033978Y0028558D03*
X0033682Y0015412D03*
X0051558Y0029352D03*
X0038174Y0021480D03*
X0028847Y0029491D03*
X0029330Y0047776D03*
X0075156Y0020385D03*
X0039709Y0044690D03*
X0038056Y0033939D03*
X0048944Y0019269D03*
X0070394Y0020474D03*
X0065175Y0046909D03*
X0032809Y0047496D03*
X0062224Y0047504D03*
X0061532Y0033759D03*
X0060867Y0040794D03*
X0049348Y0022773D03*
X0029353Y0038465D03*
X0043877Y0034346D03*
X0047622Y0030304D03*
X0048248Y0026378D03*
X0059665Y0031201D03*
X0067013Y0034211D03*
X0061301Y0015671D03*
X0048444Y0015551D03*
G36*
X0076160Y0050713D02*
G01*
X0076301Y0050518D01*
X0076301Y0050277D01*
X0076225Y0050142D01*
X0076172Y0050081D01*
X0075960Y0049618D01*
X0075960Y0049618D01*
X0075888Y0049114D01*
X0075888Y0049114D01*
X0075960Y0048610D01*
X0075960Y0048610D01*
X0075960Y0048610D01*
X0075960Y0048610D01*
X0076172Y0048147D01*
X0076400Y0047884D01*
X0076494Y0047662D01*
X0076496Y0047628D01*
X0076496Y0045876D01*
X0076421Y0045647D01*
X0076400Y0045620D01*
X0076172Y0045357D01*
X0075960Y0044894D01*
X0075960Y0044894D01*
X0075888Y0044390D01*
X0075888Y0044390D01*
X0075960Y0043886D01*
X0075960Y0043886D01*
X0075960Y0043886D01*
X0075960Y0043886D01*
X0076172Y0043423D01*
X0076400Y0043159D01*
X0076494Y0042937D01*
X0076496Y0042904D01*
X0076496Y0041151D01*
X0076421Y0040922D01*
X0076400Y0040896D01*
X0076172Y0040632D01*
X0075960Y0040169D01*
X0075960Y0040169D01*
X0075888Y0039665D01*
X0075888Y0039665D01*
X0075960Y0039161D01*
X0075960Y0039161D01*
X0075960Y0039161D01*
X0075960Y0039161D01*
X0076172Y0038698D01*
X0076400Y0038435D01*
X0076494Y0038213D01*
X0076496Y0038179D01*
X0076496Y0036427D01*
X0076421Y0036198D01*
X0076400Y0036172D01*
X0076172Y0035908D01*
X0075960Y0035445D01*
X0075960Y0035445D01*
X0075888Y0034941D01*
X0075888Y0034941D01*
X0075960Y0034437D01*
X0075960Y0034437D01*
X0075960Y0034437D01*
X0075960Y0034437D01*
X0076172Y0033974D01*
X0076505Y0033589D01*
X0076934Y0033314D01*
X0077422Y0033170D01*
X0077422Y0033170D01*
X0077931Y0033170D01*
X0077931Y0033170D01*
X0078420Y0033314D01*
X0078420Y0033314D01*
X0078447Y0033322D01*
X0078449Y0033312D01*
X0078644Y0033334D01*
X0078854Y0033216D01*
X0078954Y0032997D01*
X0078956Y0032952D01*
X0078956Y0012990D01*
X0078882Y0012761D01*
X0078687Y0012619D01*
X0078566Y0012600D01*
X0019899Y0012600D01*
X0019670Y0012675D01*
X0019528Y0012870D01*
X0019509Y0012990D01*
X0019509Y0015412D01*
X0031894Y0015412D01*
X0031966Y0014908D01*
X0031966Y0014908D01*
X0031966Y0014908D01*
X0031966Y0014908D01*
X0032177Y0014445D01*
X0032511Y0014060D01*
X0032939Y0013785D01*
X0033428Y0013641D01*
X0033428Y0013641D01*
X0033937Y0013641D01*
X0033937Y0013641D01*
X0034425Y0013785D01*
X0034854Y0014060D01*
X0035187Y0014445D01*
X0035398Y0014908D01*
X0035398Y0014908D01*
X0035471Y0015412D01*
X0035471Y0015412D01*
X0035398Y0015916D01*
X0035398Y0015916D01*
X0035398Y0015916D01*
X0035187Y0016379D01*
X0034854Y0016764D01*
X0034425Y0017039D01*
X0033937Y0017182D01*
X0033937Y0017182D01*
X0033428Y0017182D01*
X0033428Y0017182D01*
X0032939Y0017039D01*
X0032939Y0017039D01*
X0032511Y0016764D01*
X0032177Y0016379D01*
X0031966Y0015916D01*
X0031966Y0015916D01*
X0031894Y0015412D01*
X0031894Y0015412D01*
X0019509Y0015412D01*
X0019509Y0016745D01*
X0019584Y0016974D01*
X0019779Y0017116D01*
X0019992Y0017124D01*
X0020551Y0016986D01*
X0020551Y0016986D01*
X0021220Y0016986D01*
X0021220Y0016986D01*
X0021871Y0017146D01*
X0022464Y0017458D01*
X0022965Y0017902D01*
X0023345Y0018453D01*
X0023583Y0019079D01*
X0023664Y0019744D01*
X0023583Y0020409D01*
X0023345Y0021035D01*
X0023038Y0021480D01*
X0036385Y0021480D01*
X0036457Y0020976D01*
X0036457Y0020976D01*
X0036457Y0020976D01*
X0036457Y0020976D01*
X0036669Y0020513D01*
X0037002Y0020128D01*
X0037431Y0019853D01*
X0037919Y0019710D01*
X0037919Y0019710D01*
X0038428Y0019710D01*
X0038428Y0019710D01*
X0038917Y0019853D01*
X0039345Y0020128D01*
X0039678Y0020513D01*
X0039890Y0020976D01*
X0039890Y0020978D01*
X0039962Y0021480D01*
X0039962Y0021480D01*
X0039890Y0021984D01*
X0039890Y0021984D01*
X0039890Y0021984D01*
X0039678Y0022447D01*
X0039345Y0022832D01*
X0038917Y0023107D01*
X0038428Y0023251D01*
X0038428Y0023251D01*
X0037919Y0023251D01*
X0037919Y0023251D01*
X0037431Y0023107D01*
X0037431Y0023107D01*
X0037002Y0022832D01*
X0037002Y0022832D01*
X0037002Y0022832D01*
X0036952Y0022773D01*
X0036669Y0022447D01*
X0036457Y0021984D01*
X0036457Y0021984D01*
X0036385Y0021480D01*
X0036385Y0021480D01*
X0023038Y0021480D01*
X0023031Y0021491D01*
X0022962Y0021722D01*
X0023031Y0021934D01*
X0023345Y0022390D01*
X0023583Y0023016D01*
X0023664Y0023681D01*
X0023583Y0024346D01*
X0023345Y0024972D01*
X0022965Y0025523D01*
X0022464Y0025967D01*
X0021871Y0026279D01*
X0021871Y0026279D01*
X0021871Y0026279D01*
X0021220Y0026439D01*
X0021220Y0026439D01*
X0020551Y0026439D01*
X0020551Y0026439D01*
X0019992Y0026301D01*
X0019752Y0026319D01*
X0019568Y0026474D01*
X0019509Y0026680D01*
X0019509Y0029491D01*
X0027059Y0029491D01*
X0027131Y0028987D01*
X0027131Y0028987D01*
X0027131Y0028987D01*
X0027131Y0028987D01*
X0027343Y0028524D01*
X0027676Y0028139D01*
X0028104Y0027864D01*
X0028593Y0027721D01*
X0028593Y0027721D01*
X0029102Y0027721D01*
X0029102Y0027721D01*
X0029590Y0027864D01*
X0030019Y0028139D01*
X0030352Y0028524D01*
X0030564Y0028987D01*
X0030574Y0029062D01*
X0030613Y0029332D01*
X0030720Y0029548D01*
X0030933Y0029660D01*
X0030999Y0029666D01*
X0031321Y0029666D01*
X0031321Y0029666D01*
X0031809Y0029810D01*
X0031816Y0029814D01*
X0031823Y0029816D01*
X0031834Y0029821D01*
X0031835Y0029819D01*
X0032049Y0029875D01*
X0032274Y0029788D01*
X0032404Y0029585D01*
X0032390Y0029345D01*
X0032381Y0029324D01*
X0032262Y0029062D01*
X0032262Y0029062D01*
X0032189Y0028558D01*
X0032189Y0028558D01*
X0032262Y0028054D01*
X0032262Y0028054D01*
X0032262Y0028054D01*
X0032262Y0028054D01*
X0032473Y0027591D01*
X0032807Y0027206D01*
X0033235Y0026931D01*
X0033723Y0026788D01*
X0033723Y0026788D01*
X0034232Y0026788D01*
X0034232Y0026788D01*
X0034721Y0026931D01*
X0035149Y0027206D01*
X0035483Y0027591D01*
X0035694Y0028054D01*
X0035694Y0028054D01*
X0035767Y0028558D01*
X0035767Y0028558D01*
X0035694Y0029062D01*
X0035694Y0029062D01*
X0035694Y0029062D01*
X0035483Y0029525D01*
X0035149Y0029910D01*
X0034721Y0030185D01*
X0034595Y0030222D01*
X0034315Y0030304D01*
X0045833Y0030304D01*
X0045906Y0029800D01*
X0045906Y0029800D01*
X0045906Y0029800D01*
X0045906Y0029800D01*
X0046117Y0029337D01*
X0046451Y0028952D01*
X0046879Y0028677D01*
X0047207Y0028581D01*
X0047406Y0028445D01*
X0047487Y0028218D01*
X0047419Y0027987D01*
X0047308Y0027879D01*
X0047076Y0027730D01*
X0047076Y0027730D01*
X0047076Y0027730D01*
X0046948Y0027581D01*
X0046743Y0027345D01*
X0046531Y0026882D01*
X0046531Y0026882D01*
X0046459Y0026378D01*
X0046459Y0026378D01*
X0046531Y0025874D01*
X0046531Y0025874D01*
X0046531Y0025874D01*
X0046531Y0025874D01*
X0046743Y0025411D01*
X0047076Y0025026D01*
X0047505Y0024751D01*
X0047890Y0024638D01*
X0048089Y0024502D01*
X0048170Y0024275D01*
X0048102Y0024044D01*
X0048075Y0024008D01*
X0047843Y0023740D01*
X0047631Y0023277D01*
X0047631Y0023277D01*
X0047559Y0022773D01*
X0047559Y0022773D01*
X0047631Y0022270D01*
X0047631Y0022270D01*
X0047631Y0022270D01*
X0047631Y0022270D01*
X0047843Y0021806D01*
X0048176Y0021422D01*
X0048176Y0021422D01*
X0048183Y0021414D01*
X0048277Y0021192D01*
X0048222Y0020957D01*
X0048099Y0020831D01*
X0047773Y0020621D01*
X0047773Y0020621D01*
X0047773Y0020621D01*
X0047773Y0020621D01*
X0047440Y0020236D01*
X0047228Y0019773D01*
X0047228Y0019773D01*
X0047156Y0019269D01*
X0047156Y0019269D01*
X0047228Y0018765D01*
X0047228Y0018765D01*
X0047228Y0018765D01*
X0047228Y0018765D01*
X0047440Y0018302D01*
X0047773Y0017917D01*
X0047822Y0017886D01*
X0047974Y0017699D01*
X0047988Y0017459D01*
X0047858Y0017256D01*
X0047721Y0017184D01*
X0047701Y0017178D01*
X0047701Y0017178D01*
X0047273Y0016903D01*
X0047273Y0016903D01*
X0047273Y0016903D01*
X0047137Y0016745D01*
X0046940Y0016518D01*
X0046728Y0016055D01*
X0046728Y0016055D01*
X0046656Y0015551D01*
X0046656Y0015551D01*
X0046728Y0015047D01*
X0046728Y0015047D01*
X0046728Y0015047D01*
X0046728Y0015047D01*
X0046940Y0014584D01*
X0047273Y0014199D01*
X0047701Y0013924D01*
X0048190Y0013781D01*
X0048190Y0013781D01*
X0048699Y0013781D01*
X0048699Y0013781D01*
X0049187Y0013924D01*
X0049616Y0014199D01*
X0049949Y0014584D01*
X0050161Y0015047D01*
X0050178Y0015168D01*
X0050233Y0015551D01*
X0050233Y0015551D01*
X0050216Y0015671D01*
X0059512Y0015671D01*
X0059585Y0015168D01*
X0059585Y0015168D01*
X0059585Y0015168D01*
X0059585Y0015168D01*
X0059796Y0014704D01*
X0060129Y0014320D01*
X0060558Y0014044D01*
X0061046Y0013901D01*
X0061046Y0013901D01*
X0061555Y0013901D01*
X0061555Y0013901D01*
X0062044Y0014044D01*
X0062472Y0014320D01*
X0062805Y0014704D01*
X0063017Y0015168D01*
X0063017Y0015168D01*
X0063089Y0015671D01*
X0063089Y0015671D01*
X0063017Y0016175D01*
X0063017Y0016175D01*
X0063017Y0016175D01*
X0062805Y0016638D01*
X0062472Y0017023D01*
X0062222Y0017184D01*
X0062044Y0017298D01*
X0061555Y0017442D01*
X0061555Y0017442D01*
X0061046Y0017442D01*
X0061046Y0017442D01*
X0060558Y0017298D01*
X0060558Y0017298D01*
X0060129Y0017023D01*
X0059796Y0016638D01*
X0059585Y0016175D01*
X0059585Y0016175D01*
X0059512Y0015671D01*
X0059512Y0015671D01*
X0050216Y0015671D01*
X0050161Y0016055D01*
X0050161Y0016055D01*
X0050161Y0016055D01*
X0049949Y0016518D01*
X0049616Y0016903D01*
X0049567Y0016934D01*
X0049414Y0017121D01*
X0049401Y0017361D01*
X0049531Y0017564D01*
X0049668Y0017636D01*
X0049687Y0017642D01*
X0050116Y0017917D01*
X0050449Y0018302D01*
X0050660Y0018765D01*
X0050699Y0019033D01*
X0050733Y0019269D01*
X0050733Y0019269D01*
X0050660Y0019773D01*
X0050660Y0019773D01*
X0050660Y0019773D01*
X0050449Y0020236D01*
X0050243Y0020474D01*
X0068606Y0020474D01*
X0068678Y0019970D01*
X0068678Y0019970D01*
X0068678Y0019970D01*
X0068678Y0019970D01*
X0068889Y0019507D01*
X0069223Y0019122D01*
X0069651Y0018847D01*
X0070140Y0018703D01*
X0070140Y0018703D01*
X0070649Y0018703D01*
X0070649Y0018703D01*
X0071137Y0018847D01*
X0071566Y0019122D01*
X0071899Y0019507D01*
X0072110Y0019970D01*
X0072133Y0020128D01*
X0072170Y0020385D01*
X0073367Y0020385D01*
X0073439Y0019881D01*
X0073439Y0019881D01*
X0073439Y0019881D01*
X0073439Y0019881D01*
X0073651Y0019418D01*
X0073984Y0019033D01*
X0074412Y0018758D01*
X0074901Y0018615D01*
X0074901Y0018615D01*
X0075410Y0018615D01*
X0075410Y0018615D01*
X0075899Y0018758D01*
X0076327Y0019033D01*
X0076660Y0019418D01*
X0076872Y0019881D01*
X0076884Y0019970D01*
X0076944Y0020385D01*
X0076944Y0020385D01*
X0076872Y0020889D01*
X0076872Y0020889D01*
X0076872Y0020889D01*
X0076660Y0021352D01*
X0076327Y0021737D01*
X0075899Y0022012D01*
X0075410Y0022156D01*
X0075410Y0022156D01*
X0074901Y0022156D01*
X0074901Y0022156D01*
X0074412Y0022012D01*
X0074412Y0022012D01*
X0073984Y0021737D01*
X0073984Y0021737D01*
X0073984Y0021737D01*
X0073762Y0021480D01*
X0073651Y0021352D01*
X0073439Y0020889D01*
X0073439Y0020889D01*
X0073367Y0020385D01*
X0073367Y0020385D01*
X0072170Y0020385D01*
X0072183Y0020474D01*
X0072183Y0020474D01*
X0072110Y0020978D01*
X0072110Y0020978D01*
X0072110Y0020978D01*
X0071899Y0021441D01*
X0071566Y0021826D01*
X0071545Y0021839D01*
X0071137Y0022101D01*
X0070649Y0022244D01*
X0070649Y0022244D01*
X0070140Y0022244D01*
X0070140Y0022244D01*
X0069651Y0022101D01*
X0069651Y0022101D01*
X0069223Y0021826D01*
X0069223Y0021826D01*
X0069223Y0021826D01*
X0069125Y0021713D01*
X0068889Y0021441D01*
X0068678Y0020978D01*
X0068678Y0020978D01*
X0068606Y0020474D01*
X0068606Y0020474D01*
X0050243Y0020474D01*
X0050116Y0020621D01*
X0050116Y0020621D01*
X0050109Y0020629D01*
X0050015Y0020851D01*
X0050070Y0021085D01*
X0050193Y0021212D01*
X0050519Y0021422D01*
X0050852Y0021806D01*
X0051064Y0022270D01*
X0051081Y0022390D01*
X0051136Y0022773D01*
X0051136Y0022773D01*
X0051064Y0023277D01*
X0051064Y0023277D01*
X0051064Y0023277D01*
X0050852Y0023740D01*
X0050519Y0024125D01*
X0050091Y0024400D01*
X0049746Y0024502D01*
X0049705Y0024514D01*
X0049506Y0024650D01*
X0049425Y0024877D01*
X0049493Y0025108D01*
X0049520Y0025143D01*
X0049752Y0025411D01*
X0049964Y0025874D01*
X0049992Y0026074D01*
X0050036Y0026378D01*
X0050036Y0026378D01*
X0049964Y0026882D01*
X0049964Y0026882D01*
X0049964Y0026882D01*
X0049752Y0027345D01*
X0049419Y0027730D01*
X0048991Y0028005D01*
X0048991Y0028005D01*
X0048662Y0028101D01*
X0048463Y0028237D01*
X0048382Y0028464D01*
X0048450Y0028695D01*
X0048561Y0028803D01*
X0048793Y0028952D01*
X0049121Y0029330D01*
X0049327Y0029455D01*
X0049567Y0029434D01*
X0049749Y0029276D01*
X0049801Y0029131D01*
X0049842Y0028848D01*
X0049842Y0028848D01*
X0049842Y0028848D01*
X0049842Y0028848D01*
X0050053Y0028385D01*
X0050387Y0028000D01*
X0050815Y0027725D01*
X0051303Y0027581D01*
X0051303Y0027581D01*
X0051813Y0027581D01*
X0051813Y0027581D01*
X0052301Y0027725D01*
X0052729Y0028000D01*
X0053063Y0028385D01*
X0053274Y0028848D01*
X0053294Y0028987D01*
X0053347Y0029352D01*
X0053347Y0029352D01*
X0053274Y0029856D01*
X0053274Y0029856D01*
X0053274Y0029856D01*
X0053063Y0030319D01*
X0052729Y0030704D01*
X0052301Y0030979D01*
X0051813Y0031122D01*
X0051813Y0031122D01*
X0051303Y0031122D01*
X0051303Y0031122D01*
X0050815Y0030979D01*
X0050815Y0030979D01*
X0050387Y0030704D01*
X0050387Y0030704D01*
X0050059Y0030326D01*
X0049853Y0030201D01*
X0049613Y0030222D01*
X0049431Y0030380D01*
X0049379Y0030526D01*
X0049338Y0030808D01*
X0049338Y0030808D01*
X0049338Y0030808D01*
X0049159Y0031201D01*
X0057876Y0031201D01*
X0057949Y0030697D01*
X0057949Y0030697D01*
X0057949Y0030697D01*
X0057949Y0030697D01*
X0058160Y0030234D01*
X0058494Y0029849D01*
X0058922Y0029574D01*
X0059410Y0029430D01*
X0059410Y0029430D01*
X0059919Y0029430D01*
X0059919Y0029430D01*
X0060408Y0029574D01*
X0060836Y0029849D01*
X0061170Y0030234D01*
X0061381Y0030697D01*
X0061382Y0030704D01*
X0061454Y0031201D01*
X0061454Y0031201D01*
X0061404Y0031543D01*
X0061445Y0031780D01*
X0061618Y0031948D01*
X0061760Y0031981D01*
X0061759Y0031984D01*
X0061787Y0031988D01*
X0061787Y0031988D01*
X0062275Y0032132D01*
X0062704Y0032407D01*
X0063037Y0032792D01*
X0063249Y0033255D01*
X0063257Y0033314D01*
X0063321Y0033759D01*
X0063321Y0033759D01*
X0063256Y0034211D01*
X0065224Y0034211D01*
X0065296Y0033707D01*
X0065296Y0033707D01*
X0065296Y0033707D01*
X0065296Y0033707D01*
X0065508Y0033244D01*
X0065841Y0032859D01*
X0066270Y0032584D01*
X0066758Y0032441D01*
X0066758Y0032441D01*
X0067267Y0032441D01*
X0067267Y0032441D01*
X0067756Y0032584D01*
X0068184Y0032859D01*
X0068517Y0033244D01*
X0068729Y0033707D01*
X0068729Y0033707D01*
X0068801Y0034211D01*
X0068801Y0034211D01*
X0068729Y0034715D01*
X0068729Y0034715D01*
X0068729Y0034715D01*
X0068517Y0035178D01*
X0068184Y0035563D01*
X0067974Y0035698D01*
X0067756Y0035838D01*
X0067267Y0035981D01*
X0067267Y0035981D01*
X0066758Y0035981D01*
X0066758Y0035981D01*
X0066270Y0035838D01*
X0066270Y0035838D01*
X0065841Y0035563D01*
X0065841Y0035563D01*
X0065841Y0035563D01*
X0065739Y0035445D01*
X0065508Y0035178D01*
X0065296Y0034715D01*
X0065296Y0034715D01*
X0065224Y0034211D01*
X0065224Y0034211D01*
X0063256Y0034211D01*
X0063249Y0034263D01*
X0063249Y0034263D01*
X0063249Y0034263D01*
X0063037Y0034726D01*
X0062704Y0035110D01*
X0062598Y0035178D01*
X0062275Y0035386D01*
X0061787Y0035529D01*
X0061787Y0035529D01*
X0061278Y0035529D01*
X0061278Y0035529D01*
X0060789Y0035386D01*
X0060789Y0035386D01*
X0060361Y0035110D01*
X0060028Y0034726D01*
X0059816Y0034263D01*
X0059816Y0034263D01*
X0059744Y0033759D01*
X0059744Y0033759D01*
X0059793Y0033416D01*
X0059752Y0033179D01*
X0059579Y0033011D01*
X0059437Y0032978D01*
X0059438Y0032975D01*
X0059410Y0032971D01*
X0058922Y0032828D01*
X0058922Y0032828D01*
X0058494Y0032553D01*
X0058494Y0032553D01*
X0058494Y0032553D01*
X0058397Y0032441D01*
X0058160Y0032168D01*
X0057949Y0031705D01*
X0057949Y0031705D01*
X0057876Y0031201D01*
X0057876Y0031201D01*
X0049159Y0031201D01*
X0049127Y0031271D01*
X0048793Y0031656D01*
X0048718Y0031705D01*
X0048365Y0031931D01*
X0047877Y0032075D01*
X0047877Y0032075D01*
X0047367Y0032075D01*
X0047367Y0032075D01*
X0046879Y0031931D01*
X0046879Y0031931D01*
X0046451Y0031656D01*
X0046451Y0031656D01*
X0046451Y0031656D01*
X0046260Y0031437D01*
X0046117Y0031271D01*
X0045906Y0030808D01*
X0045906Y0030808D01*
X0045833Y0030304D01*
X0045833Y0030304D01*
X0034315Y0030304D01*
X0034232Y0030329D01*
X0034232Y0030329D01*
X0033723Y0030329D01*
X0033723Y0030329D01*
X0033235Y0030185D01*
X0033235Y0030185D01*
X0033228Y0030181D01*
X0033221Y0030179D01*
X0033209Y0030174D01*
X0033209Y0030176D01*
X0032995Y0030119D01*
X0032770Y0030207D01*
X0032640Y0030409D01*
X0032654Y0030650D01*
X0032662Y0030670D01*
X0032782Y0030933D01*
X0032782Y0030933D01*
X0032855Y0031437D01*
X0032855Y0031437D01*
X0032782Y0031940D01*
X0032782Y0031940D01*
X0032782Y0031940D01*
X0032571Y0032404D01*
X0032237Y0032788D01*
X0031809Y0033064D01*
X0031445Y0033170D01*
X0031321Y0033207D01*
X0031321Y0033207D01*
X0030811Y0033207D01*
X0030811Y0033207D01*
X0030323Y0033064D01*
X0030323Y0033064D01*
X0029895Y0032788D01*
X0029895Y0032788D01*
X0029895Y0032788D01*
X0029690Y0032553D01*
X0029561Y0032404D01*
X0029350Y0031940D01*
X0029350Y0031940D01*
X0029300Y0031596D01*
X0029194Y0031380D01*
X0028981Y0031267D01*
X0028914Y0031261D01*
X0028593Y0031261D01*
X0028104Y0031118D01*
X0028104Y0031118D01*
X0027676Y0030843D01*
X0027676Y0030843D01*
X0027676Y0030843D01*
X0027353Y0030470D01*
X0027343Y0030458D01*
X0027131Y0029995D01*
X0027131Y0029995D01*
X0027059Y0029491D01*
X0027059Y0029491D01*
X0019509Y0029491D01*
X0019509Y0033939D01*
X0036267Y0033939D01*
X0036340Y0033435D01*
X0036340Y0033435D01*
X0036340Y0033435D01*
X0036340Y0033435D01*
X0036551Y0032972D01*
X0036885Y0032588D01*
X0037313Y0032312D01*
X0037801Y0032169D01*
X0037801Y0032169D01*
X0038311Y0032169D01*
X0038311Y0032169D01*
X0038799Y0032312D01*
X0039227Y0032588D01*
X0039561Y0032972D01*
X0039772Y0033435D01*
X0039772Y0033435D01*
X0039845Y0033939D01*
X0039845Y0033939D01*
X0039786Y0034346D01*
X0042089Y0034346D01*
X0042161Y0033842D01*
X0042161Y0033842D01*
X0042161Y0033842D01*
X0042161Y0033842D01*
X0042373Y0033379D01*
X0042706Y0032994D01*
X0043134Y0032719D01*
X0043623Y0032575D01*
X0043623Y0032575D01*
X0044132Y0032575D01*
X0044132Y0032575D01*
X0044621Y0032719D01*
X0045049Y0032994D01*
X0045382Y0033379D01*
X0045594Y0033842D01*
X0045594Y0033842D01*
X0045666Y0034346D01*
X0045666Y0034346D01*
X0045594Y0034850D01*
X0045594Y0034850D01*
X0045594Y0034850D01*
X0045382Y0035313D01*
X0045049Y0035698D01*
X0044621Y0035973D01*
X0044591Y0035981D01*
X0044132Y0036116D01*
X0044132Y0036116D01*
X0043623Y0036116D01*
X0043623Y0036116D01*
X0043134Y0035973D01*
X0043134Y0035973D01*
X0042706Y0035698D01*
X0042706Y0035698D01*
X0042706Y0035698D01*
X0042436Y0035386D01*
X0042373Y0035313D01*
X0042161Y0034850D01*
X0042161Y0034850D01*
X0042089Y0034346D01*
X0042089Y0034346D01*
X0039786Y0034346D01*
X0039772Y0034443D01*
X0039772Y0034443D01*
X0039772Y0034443D01*
X0039561Y0034906D01*
X0039227Y0035291D01*
X0038799Y0035566D01*
X0038311Y0035710D01*
X0038311Y0035710D01*
X0037801Y0035710D01*
X0037801Y0035710D01*
X0037313Y0035566D01*
X0037313Y0035566D01*
X0036885Y0035291D01*
X0036885Y0035291D01*
X0036885Y0035291D01*
X0036728Y0035110D01*
X0036551Y0034906D01*
X0036340Y0034443D01*
X0036340Y0034443D01*
X0036267Y0033939D01*
X0036267Y0033939D01*
X0019509Y0033939D01*
X0019509Y0038465D01*
X0027565Y0038465D01*
X0027637Y0037961D01*
X0027637Y0037961D01*
X0027637Y0037961D01*
X0027637Y0037961D01*
X0027849Y0037498D01*
X0028182Y0037113D01*
X0028610Y0036838D01*
X0029099Y0036694D01*
X0029099Y0036694D01*
X0029608Y0036694D01*
X0029608Y0036694D01*
X0030096Y0036838D01*
X0030525Y0037113D01*
X0030858Y0037498D01*
X0031069Y0037961D01*
X0031142Y0038465D01*
X0031108Y0038698D01*
X0031069Y0038969D01*
X0031069Y0038969D01*
X0031069Y0038969D01*
X0030858Y0039432D01*
X0030525Y0039817D01*
X0030096Y0040092D01*
X0029608Y0040235D01*
X0029608Y0040235D01*
X0029099Y0040235D01*
X0029099Y0040235D01*
X0028610Y0040092D01*
X0028610Y0040092D01*
X0028182Y0039817D01*
X0027849Y0039432D01*
X0027637Y0038969D01*
X0027637Y0038969D01*
X0027565Y0038465D01*
X0027565Y0038465D01*
X0019509Y0038465D01*
X0019509Y0040794D01*
X0059079Y0040794D01*
X0059151Y0040290D01*
X0059151Y0040290D01*
X0059151Y0040290D01*
X0059151Y0040290D01*
X0059363Y0039827D01*
X0059696Y0039442D01*
X0060124Y0039167D01*
X0060613Y0039024D01*
X0060613Y0039024D01*
X0061122Y0039024D01*
X0061122Y0039024D01*
X0061610Y0039167D01*
X0062039Y0039442D01*
X0062372Y0039827D01*
X0062583Y0040290D01*
X0062633Y0040632D01*
X0062656Y0040794D01*
X0062656Y0040794D01*
X0062583Y0041298D01*
X0062583Y0041298D01*
X0062583Y0041298D01*
X0062372Y0041761D01*
X0062039Y0042146D01*
X0061610Y0042421D01*
X0061122Y0042565D01*
X0061122Y0042565D01*
X0060613Y0042565D01*
X0060613Y0042565D01*
X0060124Y0042421D01*
X0060124Y0042421D01*
X0059696Y0042146D01*
X0059363Y0041761D01*
X0059151Y0041298D01*
X0059151Y0041298D01*
X0059079Y0040794D01*
X0059079Y0040794D01*
X0019509Y0040794D01*
X0019509Y0044690D01*
X0037921Y0044690D01*
X0037993Y0044186D01*
X0037993Y0044186D01*
X0037993Y0044186D01*
X0037993Y0044186D01*
X0038204Y0043723D01*
X0038538Y0043338D01*
X0038966Y0043063D01*
X0039455Y0042919D01*
X0039455Y0042919D01*
X0039964Y0042919D01*
X0039964Y0042919D01*
X0040452Y0043063D01*
X0040881Y0043338D01*
X0041214Y0043723D01*
X0041425Y0044186D01*
X0041455Y0044390D01*
X0041498Y0044690D01*
X0041498Y0044690D01*
X0041425Y0045194D01*
X0041425Y0045194D01*
X0041425Y0045194D01*
X0041214Y0045657D01*
X0040881Y0046042D01*
X0040452Y0046317D01*
X0040153Y0046405D01*
X0039964Y0046460D01*
X0039964Y0046460D01*
X0039455Y0046460D01*
X0039455Y0046460D01*
X0038966Y0046317D01*
X0038966Y0046317D01*
X0038538Y0046042D01*
X0038538Y0046042D01*
X0038538Y0046042D01*
X0038264Y0045725D01*
X0038204Y0045657D01*
X0037993Y0045194D01*
X0037993Y0045194D01*
X0037921Y0044690D01*
X0037921Y0044690D01*
X0019509Y0044690D01*
X0019509Y0047776D01*
X0027542Y0047776D01*
X0027614Y0047272D01*
X0027614Y0047272D01*
X0027614Y0047272D01*
X0027614Y0047272D01*
X0027826Y0046809D01*
X0028159Y0046424D01*
X0028587Y0046149D01*
X0029076Y0046005D01*
X0029076Y0046005D01*
X0029585Y0046005D01*
X0029585Y0046005D01*
X0030073Y0046149D01*
X0030502Y0046424D01*
X0030661Y0046608D01*
X0030868Y0046733D01*
X0031108Y0046712D01*
X0031290Y0046554D01*
X0031299Y0046537D01*
X0031304Y0046529D01*
X0031304Y0046529D01*
X0031304Y0046529D01*
X0031638Y0046144D01*
X0032066Y0045869D01*
X0032554Y0045725D01*
X0032554Y0045725D01*
X0033063Y0045725D01*
X0033063Y0045725D01*
X0033552Y0045869D01*
X0033980Y0046144D01*
X0034314Y0046529D01*
X0034525Y0046992D01*
X0034526Y0047000D01*
X0034598Y0047496D01*
X0034598Y0047496D01*
X0034596Y0047504D01*
X0060435Y0047504D01*
X0060508Y0047000D01*
X0060508Y0047000D01*
X0060508Y0047000D01*
X0060508Y0047000D01*
X0060719Y0046537D01*
X0061053Y0046152D01*
X0061481Y0045877D01*
X0061969Y0045733D01*
X0061969Y0045733D01*
X0062479Y0045733D01*
X0062479Y0045733D01*
X0062967Y0045877D01*
X0063171Y0046007D01*
X0063404Y0046069D01*
X0063628Y0045981D01*
X0063676Y0045935D01*
X0064004Y0045557D01*
X0064432Y0045282D01*
X0064920Y0045138D01*
X0064920Y0045138D01*
X0065429Y0045138D01*
X0065429Y0045138D01*
X0065918Y0045282D01*
X0066346Y0045557D01*
X0066680Y0045942D01*
X0066891Y0046405D01*
X0066894Y0046424D01*
X0066964Y0046909D01*
X0066964Y0046909D01*
X0066891Y0047413D01*
X0066891Y0047413D01*
X0066891Y0047413D01*
X0066680Y0047876D01*
X0066346Y0048261D01*
X0066217Y0048344D01*
X0065918Y0048536D01*
X0065429Y0048679D01*
X0065429Y0048679D01*
X0064920Y0048679D01*
X0064920Y0048679D01*
X0064432Y0048536D01*
X0064228Y0048405D01*
X0063995Y0048344D01*
X0063771Y0048431D01*
X0063723Y0048477D01*
X0063395Y0048855D01*
X0062967Y0049131D01*
X0062479Y0049274D01*
X0062479Y0049274D01*
X0061969Y0049274D01*
X0061969Y0049274D01*
X0061481Y0049131D01*
X0061481Y0049131D01*
X0061053Y0048855D01*
X0061053Y0048855D01*
X0061053Y0048855D01*
X0060776Y0048536D01*
X0060719Y0048471D01*
X0060508Y0048007D01*
X0060508Y0048007D01*
X0060435Y0047504D01*
X0060435Y0047504D01*
X0034596Y0047504D01*
X0034525Y0048000D01*
X0034525Y0048000D01*
X0034525Y0048000D01*
X0034314Y0048463D01*
X0033980Y0048847D01*
X0033552Y0049123D01*
X0033525Y0049131D01*
X0033063Y0049266D01*
X0033063Y0049266D01*
X0032554Y0049266D01*
X0032554Y0049266D01*
X0032066Y0049123D01*
X0032066Y0049123D01*
X0031638Y0048847D01*
X0031478Y0048663D01*
X0031272Y0048539D01*
X0031032Y0048559D01*
X0030849Y0048717D01*
X0030840Y0048734D01*
X0030835Y0048743D01*
X0030835Y0048743D01*
X0030835Y0048743D01*
X0030502Y0049127D01*
X0030073Y0049403D01*
X0029585Y0049546D01*
X0029585Y0049546D01*
X0029076Y0049546D01*
X0029076Y0049546D01*
X0028587Y0049403D01*
X0028587Y0049403D01*
X0028159Y0049127D01*
X0028159Y0049127D01*
X0028159Y0049127D01*
X0028147Y0049114D01*
X0027826Y0048743D01*
X0027614Y0048280D01*
X0027614Y0048280D01*
X0027542Y0047776D01*
X0027542Y0047776D01*
X0019509Y0047776D01*
X0019509Y0050398D01*
X0019584Y0050627D01*
X0019779Y0050768D01*
X0019899Y0050787D01*
X0075930Y0050787D01*
X0076160Y0050713D01*
G37*
M02*
