M48
INCH,TZ
T01C0.011800
T02C0.039400
%
T01
X2089Y2368
X2089Y1974
X7768Y4911
X7768Y4439
X7768Y3967
X7768Y3494
X2079Y3120
X2106Y4766
X2128Y3937
X2850Y1413
X2859Y2170
X2885Y2949
X2933Y4778
X2935Y3846
X3107Y3144
X3281Y4750
X3368Y1541
X3398Y2856
X3673Y1407
X3729Y4941
X3806Y3394
X3817Y2148
X3971Y4469
X4094Y3458
X4388Y3435
X4630Y3836
X4762Y3030
X4815Y3356
X4825Y2638
X4845Y1555
X4895Y1927
X4935Y2277
X5156Y2935
X5465Y1407
X5534Y2982
X5848Y3406
X5967Y3120
X6065Y2616
X6087Y4079
X6130Y1567
X6153Y3376
X6222Y4750
X6518Y4691
X6701Y3421
X6713Y4920
X7040Y2047
X7516Y2039
X7758Y1870
X7768Y2283
X7784Y1388
X2089Y2368
X2089Y1974
X7768Y4911
X7768Y4439
X7768Y3967
X7768Y3494
T02
X1000Y3250
X1000Y2250
X9000Y5250
X9000Y4250
X9000Y3250
X9000Y2250
X9000Y1250
M30
