G04 #@! TF.GenerationSoftware,KiCad,Pcbnew,8.0.1-8.0.1-1~ubuntu22.04.1*
G04 #@! TF.CreationDate,2024-04-13T04:14:19+00:00*
G04 #@! TF.ProjectId,vr-discrete,76722d64-6973-4637-9265-74652e6b6963,rev?*
G04 #@! TF.SameCoordinates,Original*
G04 #@! TF.FileFunction,Legend,Bot*
G04 #@! TF.FilePolarity,Positive*
%FSLAX46Y46*%
G04 Gerber Fmt 4.6, Leading zero omitted, Abs format (unit mm)*
G04 Created by KiCad (PCBNEW 8.0.1-8.0.1-1~ubuntu22.04.1) date 2024-04-13 04:14:19*
%MOMM*%
%LPD*%
G01*
G04 APERTURE LIST*
%ADD10C,0.100000*%
%ADD11C,0.200000*%
G04 APERTURE END LIST*
D10*
X20462419Y10649926D02*
X20462419Y11126116D01*
X20462419Y11126116D02*
X20938609Y11173735D01*
X20938609Y11173735D02*
X20890990Y11126116D01*
X20890990Y11126116D02*
X20843371Y11030878D01*
X20843371Y11030878D02*
X20843371Y10792783D01*
X20843371Y10792783D02*
X20890990Y10697545D01*
X20890990Y10697545D02*
X20938609Y10649926D01*
X20938609Y10649926D02*
X21033847Y10602307D01*
X21033847Y10602307D02*
X21271942Y10602307D01*
X21271942Y10602307D02*
X21367180Y10649926D01*
X21367180Y10649926D02*
X21414800Y10697545D01*
X21414800Y10697545D02*
X21462419Y10792783D01*
X21462419Y10792783D02*
X21462419Y11030878D01*
X21462419Y11030878D02*
X21414800Y11126116D01*
X21414800Y11126116D02*
X21367180Y11173735D01*
X20462419Y10316592D02*
X21462419Y9983259D01*
X21462419Y9983259D02*
X20462419Y9649926D01*
X20462419Y9030640D02*
X20462419Y8840164D01*
X20462419Y8840164D02*
X20510038Y8744926D01*
X20510038Y8744926D02*
X20605276Y8649688D01*
X20605276Y8649688D02*
X20795752Y8602069D01*
X20795752Y8602069D02*
X21129085Y8602069D01*
X21129085Y8602069D02*
X21319561Y8649688D01*
X21319561Y8649688D02*
X21414800Y8744926D01*
X21414800Y8744926D02*
X21462419Y8840164D01*
X21462419Y8840164D02*
X21462419Y9030640D01*
X21462419Y9030640D02*
X21414800Y9125878D01*
X21414800Y9125878D02*
X21319561Y9221116D01*
X21319561Y9221116D02*
X21129085Y9268735D01*
X21129085Y9268735D02*
X20795752Y9268735D01*
X20795752Y9268735D02*
X20605276Y9221116D01*
X20605276Y9221116D02*
X20510038Y9125878D01*
X20510038Y9125878D02*
X20462419Y9030640D01*
X20462419Y8173497D02*
X21271942Y8173497D01*
X21271942Y8173497D02*
X21367180Y8125878D01*
X21367180Y8125878D02*
X21414800Y8078259D01*
X21414800Y8078259D02*
X21462419Y7983021D01*
X21462419Y7983021D02*
X21462419Y7792545D01*
X21462419Y7792545D02*
X21414800Y7697307D01*
X21414800Y7697307D02*
X21367180Y7649688D01*
X21367180Y7649688D02*
X21271942Y7602069D01*
X21271942Y7602069D02*
X20462419Y7602069D01*
X20462419Y7268735D02*
X20462419Y6697307D01*
X21462419Y6983021D02*
X20462419Y6983021D01*
X20462419Y4283973D02*
X20462419Y3712545D01*
X21462419Y3998259D02*
X20462419Y3998259D01*
X21462419Y3379211D02*
X20462419Y3379211D01*
X21462419Y2903021D02*
X20462419Y2903021D01*
X20462419Y2903021D02*
X21462419Y2331593D01*
X21462419Y2331593D02*
X20462419Y2331593D01*
X21176704Y6093735D02*
X21176704Y5617545D01*
X21462419Y6188973D02*
X20462419Y5855640D01*
X20462419Y5855640D02*
X21462419Y5522307D01*
X20510038Y13777307D02*
X20462419Y13872545D01*
X20462419Y13872545D02*
X20462419Y14015402D01*
X20462419Y14015402D02*
X20510038Y14158259D01*
X20510038Y14158259D02*
X20605276Y14253497D01*
X20605276Y14253497D02*
X20700514Y14301116D01*
X20700514Y14301116D02*
X20890990Y14348735D01*
X20890990Y14348735D02*
X21033847Y14348735D01*
X21033847Y14348735D02*
X21224323Y14301116D01*
X21224323Y14301116D02*
X21319561Y14253497D01*
X21319561Y14253497D02*
X21414800Y14158259D01*
X21414800Y14158259D02*
X21462419Y14015402D01*
X21462419Y14015402D02*
X21462419Y13920164D01*
X21462419Y13920164D02*
X21414800Y13777307D01*
X21414800Y13777307D02*
X21367180Y13729688D01*
X21367180Y13729688D02*
X21033847Y13729688D01*
X21033847Y13729688D02*
X21033847Y13920164D01*
X21462419Y13301116D02*
X20462419Y13301116D01*
X20462419Y13301116D02*
X21462419Y12729688D01*
X21462419Y12729688D02*
X20462419Y12729688D01*
X21462419Y12253497D02*
X20462419Y12253497D01*
X20462419Y12253497D02*
X20462419Y12015402D01*
X20462419Y12015402D02*
X20510038Y11872545D01*
X20510038Y11872545D02*
X20605276Y11777307D01*
X20605276Y11777307D02*
X20700514Y11729688D01*
X20700514Y11729688D02*
X20890990Y11682069D01*
X20890990Y11682069D02*
X21033847Y11682069D01*
X21033847Y11682069D02*
X21224323Y11729688D01*
X21224323Y11729688D02*
X21319561Y11777307D01*
X21319561Y11777307D02*
X21414800Y11872545D01*
X21414800Y11872545D02*
X21462419Y12015402D01*
X21462419Y12015402D02*
X21462419Y12253497D01*
X3648972Y10652581D02*
X3315639Y9652581D01*
X3315639Y9652581D02*
X2982306Y10652581D01*
X2077544Y9652581D02*
X2410877Y10128772D01*
X2648972Y9652581D02*
X2648972Y10652581D01*
X2648972Y10652581D02*
X2268020Y10652581D01*
X2268020Y10652581D02*
X2172782Y10604962D01*
X2172782Y10604962D02*
X2125163Y10557343D01*
X2125163Y10557343D02*
X2077544Y10462105D01*
X2077544Y10462105D02*
X2077544Y10319248D01*
X2077544Y10319248D02*
X2125163Y10224010D01*
X2125163Y10224010D02*
X2172782Y10176391D01*
X2172782Y10176391D02*
X2268020Y10128772D01*
X2268020Y10128772D02*
X2648972Y10128772D01*
X1648972Y10033534D02*
X887068Y10033534D01*
X3648972Y4302581D02*
X3315639Y3302581D01*
X3315639Y3302581D02*
X2982306Y4302581D01*
X2077544Y3302581D02*
X2410877Y3778772D01*
X2648972Y3302581D02*
X2648972Y4302581D01*
X2648972Y4302581D02*
X2268020Y4302581D01*
X2268020Y4302581D02*
X2172782Y4254962D01*
X2172782Y4254962D02*
X2125163Y4207343D01*
X2125163Y4207343D02*
X2077544Y4112105D01*
X2077544Y4112105D02*
X2077544Y3969248D01*
X2077544Y3969248D02*
X2125163Y3874010D01*
X2125163Y3874010D02*
X2172782Y3826391D01*
X2172782Y3826391D02*
X2268020Y3778772D01*
X2268020Y3778772D02*
X2648972Y3778772D01*
X1648972Y3683534D02*
X887068Y3683534D01*
X1268020Y3302581D02*
X1268020Y4064486D01*
D11*
G04 #@! TO.C,M750*
X5030000Y12875000D02*
X5030000Y6475000D01*
X5030000Y3275000D02*
X5030000Y4575000D01*
X5030000Y3275000D02*
X20030000Y3275000D01*
X19430000Y12875000D02*
X5030000Y12875000D01*
X20030000Y3275000D02*
X20030000Y8375000D01*
G04 #@! TD*
M02*
