G04 #@! TF.GenerationSoftware,KiCad,Pcbnew,8.0.1-8.0.1-1~ubuntu22.04.1*
G04 #@! TF.CreationDate,2024-04-13T04:14:19+00:00*
G04 #@! TF.ProjectId,vr-discrete,76722d64-6973-4637-9265-74652e6b6963,rev?*
G04 #@! TF.SameCoordinates,Original*
G04 #@! TF.FileFunction,Copper,L1,Top*
G04 #@! TF.FilePolarity,Positive*
%FSLAX46Y46*%
G04 Gerber Fmt 4.6, Leading zero omitted, Abs format (unit mm)*
G04 Created by KiCad (PCBNEW 8.0.1-8.0.1-1~ubuntu22.04.1) date 2024-04-13 04:14:19*
%MOMM*%
%LPD*%
G01*
G04 APERTURE LIST*
G04 #@! TA.AperFunction,ComponentPad*
%ADD10R,1.700000X1.700000*%
G04 #@! TD*
G04 #@! TA.AperFunction,ComponentPad*
%ADD11O,1.700000X1.700000*%
G04 #@! TD*
G04 #@! TA.AperFunction,ComponentPad*
%ADD12C,0.600000*%
G04 #@! TD*
G04 #@! TA.AperFunction,SMDPad,CuDef*
%ADD13R,0.250000X6.185000*%
G04 #@! TD*
G04 #@! TA.AperFunction,SMDPad,CuDef*
%ADD14R,0.250000X1.115000*%
G04 #@! TD*
G04 #@! TA.AperFunction,SMDPad,CuDef*
%ADD15R,14.275000X0.250000*%
G04 #@! TD*
G04 #@! TA.AperFunction,SMDPad,CuDef*
%ADD16R,15.100000X0.250000*%
G04 #@! TD*
G04 #@! TA.AperFunction,SMDPad,CuDef*
%ADD17R,0.250000X5.175000*%
G04 #@! TD*
G04 #@! TA.AperFunction,Conductor*
%ADD18C,0.500000*%
G04 #@! TD*
G04 APERTURE END LIST*
D10*
G04 #@! TO.P,J1,1,Pin_1*
G04 #@! TO.N,Net-(J1-Pin_1)*
X2540000Y8255000D03*
D11*
G04 #@! TO.P,J1,2,Pin_2*
G04 #@! TO.N,Net-(J1-Pin_2)*
X2540000Y5715000D03*
G04 #@! TD*
D12*
G04 #@! TO.P,M750,E1,Thresh_IN*
G04 #@! TO.N,Net-(J2-Pin_4)*
X19730000Y10075000D03*
G04 #@! TO.P,M750,E2,OUT_A*
G04 #@! TO.N,Net-(J2-Pin_3)*
X19730000Y8875000D03*
G04 #@! TO.P,M750,E3,OUT*
G04 #@! TO.N,Net-(J2-Pin_2)*
X19730000Y11275000D03*
G04 #@! TO.P,M750,E4,V5_IN*
G04 #@! TO.N,Net-(J2-Pin_1)*
X19730000Y12475000D03*
D13*
G04 #@! TO.P,M750,G,GND*
G04 #@! TO.N,Net-(J2-Pin_5)*
X5080000Y9807500D03*
D14*
X5080000Y3757500D03*
D15*
X12092500Y12775000D03*
D16*
X12505000Y3325000D03*
D17*
X19930000Y5787500D03*
D12*
G04 #@! TO.P,M750,W1,VR-*
G04 #@! TO.N,Net-(J1-Pin_1)*
X5305000Y6015000D03*
G04 #@! TO.P,M750,W2,VR+*
G04 #@! TO.N,Net-(J1-Pin_2)*
X5305000Y5015000D03*
G04 #@! TD*
D10*
G04 #@! TO.P,J2,1,Pin_1*
G04 #@! TO.N,Net-(J2-Pin_1)*
X22860000Y3175000D03*
D11*
G04 #@! TO.P,J2,2,Pin_2*
G04 #@! TO.N,Net-(J2-Pin_2)*
X22860000Y5715000D03*
G04 #@! TO.P,J2,3,Pin_3*
G04 #@! TO.N,Net-(J2-Pin_3)*
X22860000Y8255000D03*
G04 #@! TO.P,J2,4,Pin_4*
G04 #@! TO.N,Net-(J2-Pin_4)*
X22860000Y10795000D03*
G04 #@! TO.P,J2,5,Pin_5*
G04 #@! TO.N,Net-(J2-Pin_5)*
X22860000Y13335000D03*
G04 #@! TD*
D18*
G04 #@! TO.N,*
X19730000Y8845000D02*
X22860000Y5715000D01*
X19730000Y8875000D02*
X19730000Y8845000D01*
G04 #@! TO.N,Net-(J1-Pin_2)*
X5305000Y5015000D02*
X4605000Y5715000D01*
X4605000Y5715000D02*
X2540000Y5715000D01*
G04 #@! TO.N,Net-(J1-Pin_1)*
X5305000Y6015000D02*
X3065000Y8255000D01*
X3065000Y8255000D02*
X2540000Y8255000D01*
G04 #@! TO.N,Net-(J2-Pin_3)*
X19730000Y11275000D02*
X19840000Y11275000D01*
X19840000Y11275000D02*
X22860000Y8255000D01*
G04 #@! TO.N,Net-(J2-Pin_4)*
X21180000Y12475000D02*
X22860000Y10795000D01*
X19730000Y12475000D02*
X21180000Y12475000D01*
G04 #@! TD*
G04 #@! TA.AperFunction,Conductor*
G04 #@! TO.N,Net-(J2-Pin_5)*
G36*
X24842539Y15354815D02*
G01*
X24888294Y15302011D01*
X24899500Y15250500D01*
X24899500Y624500D01*
X24879815Y557461D01*
X24827011Y511706D01*
X24775500Y500500D01*
X624500Y500500D01*
X557461Y520185D01*
X511706Y572989D01*
X500500Y624500D01*
X500500Y5715000D01*
X1184341Y5715000D01*
X1204936Y5479597D01*
X1204938Y5479587D01*
X1266094Y5251345D01*
X1266096Y5251341D01*
X1266097Y5251337D01*
X1365965Y5037170D01*
X1365967Y5037166D01*
X1442280Y4928181D01*
X1501505Y4843599D01*
X1668599Y4676505D01*
X1741946Y4625147D01*
X1862165Y4540968D01*
X1862167Y4540967D01*
X1862170Y4540965D01*
X2076337Y4441097D01*
X2304592Y4379937D01*
X2492918Y4363461D01*
X2539999Y4359341D01*
X2540000Y4359341D01*
X2540001Y4359341D01*
X2579234Y4362774D01*
X2775408Y4379937D01*
X3003663Y4441097D01*
X3217830Y4540965D01*
X3411401Y4676505D01*
X3578495Y4843599D01*
X3626127Y4911624D01*
X3680704Y4955249D01*
X3727701Y4964500D01*
X4242770Y4964500D01*
X4309809Y4944815D01*
X4330451Y4928181D01*
X4551692Y4706941D01*
X4574358Y4670875D01*
X4576188Y4671756D01*
X4579209Y4665482D01*
X4579211Y4665478D01*
X4675184Y4512738D01*
X4802738Y4385184D01*
X4811089Y4379937D01*
X4955478Y4289211D01*
X4959795Y4287132D01*
X5011658Y4240313D01*
X5030000Y4175409D01*
X5030000Y3375000D01*
X19930000Y3375000D01*
X19930000Y7284271D01*
X19949685Y7351310D01*
X20002489Y7397065D01*
X20071647Y7407009D01*
X20135203Y7377984D01*
X20141681Y7371952D01*
X21487130Y6026503D01*
X21520615Y5965180D01*
X21522977Y5928015D01*
X21504341Y5715003D01*
X21504341Y5715000D01*
X21524936Y5479597D01*
X21524938Y5479587D01*
X21586094Y5251345D01*
X21586096Y5251341D01*
X21586097Y5251337D01*
X21685965Y5037170D01*
X21685967Y5037166D01*
X21762280Y4928181D01*
X21821501Y4843604D01*
X21821506Y4843598D01*
X21943430Y4721674D01*
X21976915Y4660351D01*
X21971931Y4590659D01*
X21930059Y4534726D01*
X21899083Y4517811D01*
X21767669Y4468797D01*
X21767664Y4468794D01*
X21652455Y4382548D01*
X21652452Y4382545D01*
X21566206Y4267336D01*
X21566202Y4267329D01*
X21515908Y4132483D01*
X21509501Y4072884D01*
X21509501Y4072877D01*
X21509500Y4072865D01*
X21509500Y2277130D01*
X21509501Y2277124D01*
X21515908Y2217517D01*
X21566202Y2082672D01*
X21566206Y2082665D01*
X21652452Y1967456D01*
X21652455Y1967453D01*
X21767664Y1881207D01*
X21767671Y1881203D01*
X21902517Y1830909D01*
X21902516Y1830909D01*
X21909444Y1830165D01*
X21962127Y1824500D01*
X23757872Y1824501D01*
X23817483Y1830909D01*
X23952331Y1881204D01*
X24067546Y1967454D01*
X24153796Y2082669D01*
X24204091Y2217517D01*
X24210500Y2277127D01*
X24210499Y4072872D01*
X24204091Y4132483D01*
X24153796Y4267331D01*
X24153795Y4267332D01*
X24153793Y4267336D01*
X24067547Y4382545D01*
X24067544Y4382548D01*
X23952335Y4468794D01*
X23952328Y4468798D01*
X23820917Y4517811D01*
X23764983Y4559682D01*
X23740566Y4625147D01*
X23755418Y4693420D01*
X23776563Y4721668D01*
X23898495Y4843599D01*
X24034035Y5037170D01*
X24133903Y5251337D01*
X24195063Y5479592D01*
X24215659Y5715000D01*
X24195063Y5950408D01*
X24133903Y6178663D01*
X24034035Y6392829D01*
X23983151Y6465500D01*
X23898494Y6586403D01*
X23731402Y6753494D01*
X23731396Y6753499D01*
X23545842Y6883425D01*
X23502217Y6938002D01*
X23495023Y7007500D01*
X23526546Y7069855D01*
X23545842Y7086575D01*
X23568026Y7102109D01*
X23731401Y7216505D01*
X23898495Y7383599D01*
X24034035Y7577170D01*
X24133903Y7791337D01*
X24195063Y8019592D01*
X24215659Y8255000D01*
X24195063Y8490408D01*
X24133903Y8718663D01*
X24034035Y8932829D01*
X23898495Y9126401D01*
X23898494Y9126403D01*
X23731402Y9293494D01*
X23731396Y9293499D01*
X23545842Y9423425D01*
X23502217Y9478002D01*
X23495023Y9547500D01*
X23526546Y9609855D01*
X23545842Y9626575D01*
X23575147Y9647095D01*
X23731401Y9756505D01*
X23898495Y9923599D01*
X24034035Y10117170D01*
X24133903Y10331337D01*
X24195063Y10559592D01*
X24215659Y10795000D01*
X24195063Y11030408D01*
X24133903Y11258663D01*
X24034035Y11472829D01*
X23963096Y11574142D01*
X23898494Y11666403D01*
X23731402Y11833494D01*
X23731401Y11833495D01*
X23545405Y11963731D01*
X23501781Y12018308D01*
X23494588Y12087807D01*
X23526110Y12150161D01*
X23545405Y12166881D01*
X23731082Y12296895D01*
X23898105Y12463918D01*
X24033600Y12657422D01*
X24133429Y12871508D01*
X24133432Y12871514D01*
X24190636Y13085000D01*
X23293012Y13085000D01*
X23325925Y13142007D01*
X23360000Y13269174D01*
X23360000Y13400826D01*
X23325925Y13527993D01*
X23293012Y13585000D01*
X24190636Y13585000D01*
X24190635Y13585001D01*
X24133432Y13798487D01*
X24133429Y13798493D01*
X24033600Y14012578D01*
X24033599Y14012580D01*
X23898113Y14206074D01*
X23898108Y14206080D01*
X23731082Y14373106D01*
X23537578Y14508601D01*
X23323492Y14608430D01*
X23323486Y14608433D01*
X23110000Y14665636D01*
X23110000Y13768012D01*
X23052993Y13800925D01*
X22925826Y13835000D01*
X22794174Y13835000D01*
X22667007Y13800925D01*
X22610000Y13768012D01*
X22610000Y14665636D01*
X22609999Y14665636D01*
X22396513Y14608433D01*
X22396507Y14608430D01*
X22182422Y14508601D01*
X22182420Y14508600D01*
X21988926Y14373114D01*
X21988920Y14373109D01*
X21821891Y14206080D01*
X21821886Y14206074D01*
X21686400Y14012580D01*
X21686399Y14012578D01*
X21586570Y13798493D01*
X21586567Y13798487D01*
X21529364Y13585001D01*
X21529364Y13585000D01*
X22426988Y13585000D01*
X22394075Y13527993D01*
X22360000Y13400826D01*
X22360000Y13269174D01*
X22394075Y13142007D01*
X22426988Y13085000D01*
X21655550Y13085000D01*
X21588511Y13104685D01*
X21586669Y13105892D01*
X21584738Y13107182D01*
X21584729Y13107187D01*
X21535491Y13140087D01*
X21398917Y13196657D01*
X21398907Y13196660D01*
X21253920Y13225500D01*
X21253918Y13225500D01*
X20029972Y13225500D01*
X19989017Y13232458D01*
X19909254Y13260369D01*
X19909249Y13260370D01*
X19730004Y13280565D01*
X19729996Y13280565D01*
X19550750Y13260370D01*
X19550745Y13260369D01*
X19380476Y13200789D01*
X19227737Y13104816D01*
X19100184Y12977263D01*
X19009556Y12833028D01*
X18957221Y12786737D01*
X18904562Y12775000D01*
X5030000Y12775000D01*
X5030000Y7650730D01*
X5010315Y7583691D01*
X4957511Y7537936D01*
X4888353Y7527992D01*
X4824797Y7557017D01*
X4818319Y7563049D01*
X3926818Y8454550D01*
X3893333Y8515873D01*
X3890499Y8542231D01*
X3890499Y9152871D01*
X3890498Y9152877D01*
X3890497Y9152884D01*
X3884091Y9212483D01*
X3879600Y9224523D01*
X3833797Y9347329D01*
X3833793Y9347336D01*
X3747547Y9462545D01*
X3747544Y9462548D01*
X3632335Y9548794D01*
X3632328Y9548798D01*
X3497482Y9599092D01*
X3497483Y9599092D01*
X3437883Y9605499D01*
X3437881Y9605500D01*
X3437873Y9605500D01*
X3437864Y9605500D01*
X1642129Y9605500D01*
X1642123Y9605499D01*
X1582516Y9599092D01*
X1447671Y9548798D01*
X1447664Y9548794D01*
X1332455Y9462548D01*
X1332452Y9462545D01*
X1246206Y9347336D01*
X1246202Y9347329D01*
X1195908Y9212483D01*
X1192808Y9183642D01*
X1189501Y9152877D01*
X1189500Y9152865D01*
X1189500Y7357130D01*
X1189501Y7357124D01*
X1195908Y7297517D01*
X1246202Y7162672D01*
X1246206Y7162665D01*
X1332452Y7047456D01*
X1332455Y7047453D01*
X1447664Y6961207D01*
X1447671Y6961203D01*
X1579081Y6912190D01*
X1635015Y6870319D01*
X1659432Y6804855D01*
X1644580Y6736582D01*
X1623430Y6708327D01*
X1501503Y6586400D01*
X1365965Y6392831D01*
X1365964Y6392829D01*
X1266098Y6178665D01*
X1266094Y6178656D01*
X1204938Y5950414D01*
X1204936Y5950404D01*
X1184341Y5715001D01*
X1184341Y5715000D01*
X500500Y5715000D01*
X500500Y15250500D01*
X520185Y15317539D01*
X572989Y15363294D01*
X624500Y15374500D01*
X24775500Y15374500D01*
X24842539Y15354815D01*
G37*
G04 #@! TD.AperFunction*
G04 #@! TD*
G04 #@! TA.AperFunction,NonConductor*
G36*
X20884809Y11704815D02*
G01*
X20905451Y11688181D01*
X21487130Y11106502D01*
X21520615Y11045179D01*
X21522977Y11008014D01*
X21517624Y10946827D01*
X21492172Y10881758D01*
X21435581Y10840779D01*
X21365819Y10836901D01*
X21306415Y10869953D01*
X20663549Y11512819D01*
X20630064Y11574142D01*
X20635048Y11643834D01*
X20676920Y11699767D01*
X20742384Y11724184D01*
X20751230Y11724500D01*
X20817770Y11724500D01*
X20884809Y11704815D01*
G37*
G04 #@! TD.AperFunction*
G04 #@! TA.AperFunction,NonConductor*
G36*
X20597301Y9456003D02*
G01*
X20602828Y9450804D01*
X21487130Y8566502D01*
X21520615Y8505179D01*
X21522977Y8468014D01*
X21517624Y8406827D01*
X21492172Y8341758D01*
X21435581Y8300779D01*
X21365819Y8296901D01*
X21306415Y8329953D01*
X20499454Y9136914D01*
X20470093Y9183642D01*
X20455789Y9224523D01*
X20410153Y9297151D01*
X20391153Y9364387D01*
X20411520Y9431223D01*
X20464788Y9476437D01*
X20534044Y9485675D01*
X20597301Y9456003D01*
G37*
G04 #@! TD.AperFunction*
M02*
